M48
; DRILL file {KiCad (5.1.2)-2} date 05/11/23 10:57:47
; FORMAT={-:-/ absolute / metric / decimal}
; #@! TF.CreationDate,2023-05-11T10:57:47+05:30
; #@! TF.GenerationSoftware,Kicad,Pcbnew,(5.1.2)-2
; #@! TF.FileFunction,Plated,1,2,PTH
FMAT,2
METRIC
T1C0.200
T2C0.300
T3C0.400
T4C1.000
T5C2.200
%
G90
G05
T1
X102.006Y-119.57
X106.058Y-119.57
X110.196Y-100.381
X110.704Y-98.92
X163.155Y-100.038
X163.663Y-98.692
X164.171Y-100.063
X164.666Y-98.679
T2
X92.772Y-94.68
X96.52Y-104.013
X97.663Y-94.361
X99.695Y-114.046
X100.584Y-105.664
X100.724Y-101.74
X100.787Y-98.019
X102.362Y-114.046
X102.362Y-124.46
X102.411Y-74.5
X106.045Y-92.583
X106.045Y-106.045
T3
X91.059Y-86.995
X91.567Y-102.997
X92.837Y-116.967
X93.98Y-103.505
X94.986Y-94.351
X99.695Y-97.028
X99.822Y-99.695
X101.464Y-91.05
X106.045Y-82.677
X83.9Y-75.0
X84.383Y-73.833
X84.383Y-76.167
X85.55Y-73.35
X85.55Y-76.65
X86.717Y-73.833
X86.717Y-76.167
X87.2Y-75.0
X83.9Y-124.0
X84.383Y-122.833
X84.383Y-125.167
X85.55Y-122.35
X85.55Y-125.65
X86.717Y-122.833
X86.717Y-125.167
X87.2Y-124.0
T4
X85.55Y-89.84
X85.55Y-92.38
X85.55Y-94.92
X85.55Y-97.46
X85.55Y-100.0
X85.55Y-102.54
X85.55Y-105.08
X85.55Y-107.62
T5
X85.55Y-75.0
X85.55Y-124.0
T0
M30
