%TF.GenerationSoftware,KiCad,Pcbnew,(5.1.2)-2*%
%TF.CreationDate,2023-05-11T10:58:17+05:30*%
%TF.ProjectId,83mm,38336d6d-2e6b-4696-9361-645f70636258,rev?*%
%TF.SameCoordinates,Original*%
%TF.FileFunction,Copper,L2,Bot*%
%TF.FilePolarity,Positive*%
%FSLAX46Y46*%
G04 Gerber Fmt 4.6, Leading zero omitted, Abs format (unit mm)*
G04 Created by KiCad (PCBNEW (5.1.2)-2) date 2023-05-11 10:58:17*
%MOMM*%
%LPD*%
G04 APERTURE LIST*
%ADD10C,0.300000*%
%ADD11C,4.400000*%
%ADD12C,0.700000*%
%ADD13R,1.700000X1.700000*%
%ADD14O,1.700000X1.700000*%
%ADD15C,0.800000*%
%ADD16C,0.400000*%
%ADD17C,0.600000*%
%ADD18C,0.508000*%
%ADD19C,0.254000*%
G04 APERTURE END LIST*
D10*
X84919357Y-82443000D02*
X84990785Y-82657285D01*
X85062214Y-82728714D01*
X85205071Y-82800142D01*
X85419357Y-82800142D01*
X85562214Y-82728714D01*
X85633642Y-82657285D01*
X85705071Y-82514428D01*
X85705071Y-81943000D01*
X84205071Y-81943000D01*
X84205071Y-82443000D01*
X84276500Y-82585857D01*
X84347928Y-82657285D01*
X84490785Y-82728714D01*
X84633642Y-82728714D01*
X84776500Y-82657285D01*
X84847928Y-82585857D01*
X84919357Y-82443000D01*
X84919357Y-81943000D01*
X84205071Y-83728714D02*
X84205071Y-84014428D01*
X84276500Y-84157285D01*
X84419357Y-84300142D01*
X84705071Y-84371571D01*
X85205071Y-84371571D01*
X85490785Y-84300142D01*
X85633642Y-84157285D01*
X85705071Y-84014428D01*
X85705071Y-83728714D01*
X85633642Y-83585857D01*
X85490785Y-83443000D01*
X85205071Y-83371571D01*
X84705071Y-83371571D01*
X84419357Y-83443000D01*
X84276500Y-83585857D01*
X84205071Y-83728714D01*
X84205071Y-84800142D02*
X84205071Y-85657285D01*
X85705071Y-85228714D02*
X84205071Y-85228714D01*
D11*
X85550000Y-75000000D03*
D12*
X87200000Y-75000000D03*
X86716726Y-76166726D03*
X85550000Y-76650000D03*
X84383274Y-76166726D03*
X83900000Y-75000000D03*
X84383274Y-73833274D03*
X85550000Y-73350000D03*
X86716726Y-73833274D03*
X86716726Y-122833274D03*
X85550000Y-122350000D03*
X84383274Y-122833274D03*
X83900000Y-124000000D03*
X84383274Y-125166726D03*
X85550000Y-125650000D03*
X86716726Y-125166726D03*
X87200000Y-124000000D03*
D11*
X85550000Y-124000000D03*
D13*
X85550000Y-89840000D03*
D14*
X85550000Y-92380000D03*
X85550000Y-94920000D03*
X85550000Y-97460000D03*
X85550000Y-100000000D03*
X85550000Y-102540000D03*
X85550000Y-105080000D03*
X85550000Y-107620000D03*
D15*
X92837000Y-116967000D03*
X91567000Y-102997000D03*
X93980000Y-103505000D03*
X91059000Y-86995000D03*
X101464000Y-91050000D03*
X106045000Y-82677000D03*
D16*
X106057700Y-119570500D03*
X102006400Y-119570500D03*
D15*
X94986392Y-94351392D03*
X99695000Y-97028000D03*
X99822000Y-99695000D03*
D17*
X92772364Y-94679636D03*
X96520000Y-104013000D03*
X100723700Y-101739700D03*
X102362000Y-124460000D03*
X100787200Y-98018600D03*
X102411000Y-74500000D03*
X97663000Y-94361000D03*
X100584000Y-105664000D03*
X102362000Y-114046000D03*
X99695000Y-114046000D03*
X106045000Y-92583000D03*
X106045000Y-106045000D03*
D16*
X164666300Y-98679000D03*
X164171000Y-100063300D03*
X163663000Y-98691700D03*
X163155000Y-100037900D03*
X110196000Y-100380800D03*
X110704000Y-98920300D03*
D18*
X101464000Y-87258000D02*
X106045000Y-82677000D01*
X101464000Y-91050000D02*
X101464000Y-87258000D01*
X106057700Y-119570500D02*
X105774858Y-119570500D01*
X105774858Y-119570500D02*
X102006400Y-119570500D01*
D19*
X87452000Y-100000000D02*
X92472365Y-94979635D01*
X85550000Y-100000000D02*
X87452000Y-100000000D01*
X92472365Y-94979635D02*
X92772364Y-94679636D01*
X86752081Y-105080000D02*
X85550000Y-105080000D01*
X95028736Y-105080000D02*
X86752081Y-105080000D01*
X96095736Y-104013000D02*
X95028736Y-105080000D01*
X96520000Y-104013000D02*
X96095736Y-104013000D01*
X100723700Y-101739700D02*
X102108000Y-103124000D01*
X102108000Y-103124000D02*
X102870000Y-103886000D01*
X102870000Y-103886000D02*
X103505000Y-104521000D01*
X103505000Y-104521000D02*
X103505000Y-116840000D01*
X103505000Y-116840000D02*
X101346000Y-118999000D01*
X101346000Y-118999000D02*
X101346000Y-122555000D01*
X101346000Y-122555000D02*
X101346000Y-123444000D01*
X101346000Y-123444000D02*
X102362000Y-124460000D01*
X100487201Y-97718601D02*
X100487201Y-76423799D01*
X100787200Y-98018600D02*
X100487201Y-97718601D01*
X102411000Y-74500000D02*
X101981000Y-74930000D01*
X100487201Y-76423799D02*
X101981000Y-74930000D01*
X101981000Y-74930000D02*
X102362000Y-74549000D01*
X97663000Y-102743000D02*
X97663000Y-94361000D01*
X100584000Y-105664000D02*
X97663000Y-102743000D01*
X101937736Y-114046000D02*
X99695000Y-114046000D01*
X102362000Y-114046000D02*
X101937736Y-114046000D01*
X105620736Y-92583000D02*
X105029000Y-93174736D01*
X106045000Y-92583000D02*
X105620736Y-92583000D01*
X105029000Y-93174736D02*
X105029000Y-105029000D01*
X105029000Y-105029000D02*
X106045000Y-106045000D01*
X110704000Y-99354000D02*
X110704000Y-98920300D01*
X110197900Y-99860100D02*
X110704000Y-99354000D01*
X110197900Y-100096058D02*
X110197900Y-99860100D01*
X110196000Y-100380800D02*
X110196000Y-100097958D01*
X110196000Y-100097958D02*
X110197900Y-100096058D01*
X164666300Y-99040179D02*
X164666300Y-98679000D01*
X164171000Y-100063300D02*
X164171000Y-99535479D01*
X164171000Y-99535479D02*
X164666300Y-99040179D01*
X163663000Y-99036500D02*
X163663000Y-98691700D01*
X163155000Y-100037900D02*
X163155000Y-99544500D01*
X163155000Y-99544500D02*
X163663000Y-99036500D01*
G36*
X104423000Y-92712004D02*
G01*
X104392355Y-92749344D01*
X104354535Y-92820101D01*
X104321598Y-92881722D01*
X104278026Y-93025359D01*
X104267000Y-93137310D01*
X104263314Y-93174736D01*
X104267000Y-93212159D01*
X104267001Y-104483586D01*
X104267000Y-104483574D01*
X104255974Y-104371622D01*
X104212402Y-104227985D01*
X104141646Y-104095609D01*
X104141645Y-104095607D01*
X104106857Y-104053219D01*
X104046422Y-103979578D01*
X104017347Y-103955717D01*
X103435284Y-103373654D01*
X103435279Y-103373648D01*
X102673283Y-102611653D01*
X102673279Y-102611648D01*
X101646150Y-101584520D01*
X101622768Y-101466971D01*
X101552286Y-101296811D01*
X101449962Y-101143672D01*
X101319728Y-101013438D01*
X101166589Y-100911114D01*
X100996429Y-100840632D01*
X100815789Y-100804700D01*
X100631611Y-100804700D01*
X100450971Y-100840632D01*
X100280811Y-100911114D01*
X100127672Y-101013438D01*
X99997438Y-101143672D01*
X99895114Y-101296811D01*
X99824632Y-101466971D01*
X99788700Y-101647611D01*
X99788700Y-101831789D01*
X99824632Y-102012429D01*
X99895114Y-102182589D01*
X99997438Y-102335728D01*
X100127672Y-102465962D01*
X100280811Y-102568286D01*
X100450971Y-102638768D01*
X100568520Y-102662150D01*
X101595648Y-103689279D01*
X101595653Y-103689283D01*
X102357648Y-104451279D01*
X102357654Y-104451284D01*
X102743000Y-104836630D01*
X102743001Y-113191779D01*
X102634729Y-113146932D01*
X102454089Y-113111000D01*
X102269911Y-113111000D01*
X102089271Y-113146932D01*
X101919111Y-113217414D01*
X101819458Y-113284000D01*
X100237542Y-113284000D01*
X100137889Y-113217414D01*
X99967729Y-113146932D01*
X99787089Y-113111000D01*
X99602911Y-113111000D01*
X99422271Y-113146932D01*
X99252111Y-113217414D01*
X99098972Y-113319738D01*
X98968738Y-113449972D01*
X98866414Y-113603111D01*
X98795932Y-113773271D01*
X98760000Y-113953911D01*
X98760000Y-114138089D01*
X98795932Y-114318729D01*
X98866414Y-114488889D01*
X98968738Y-114642028D01*
X99098972Y-114772262D01*
X99252111Y-114874586D01*
X99422271Y-114945068D01*
X99602911Y-114981000D01*
X99787089Y-114981000D01*
X99967729Y-114945068D01*
X100137889Y-114874586D01*
X100237542Y-114808000D01*
X101819458Y-114808000D01*
X101919111Y-114874586D01*
X102089271Y-114945068D01*
X102269911Y-114981000D01*
X102454089Y-114981000D01*
X102634729Y-114945068D01*
X102743001Y-114900221D01*
X102743001Y-116524368D01*
X100833654Y-118433716D01*
X100804578Y-118457578D01*
X100748983Y-118525322D01*
X100709355Y-118573608D01*
X100671535Y-118644365D01*
X100638598Y-118705986D01*
X100595026Y-118849623D01*
X100584000Y-118961574D01*
X100580314Y-118999000D01*
X100584000Y-119036423D01*
X100584001Y-122517565D01*
X100584000Y-122517575D01*
X100584000Y-123406577D01*
X100580314Y-123444000D01*
X100595027Y-123593378D01*
X100638599Y-123737015D01*
X100709355Y-123869392D01*
X100773579Y-123947648D01*
X100804579Y-123985422D01*
X100833649Y-124009279D01*
X101439550Y-124615180D01*
X101462932Y-124732729D01*
X101533414Y-124902889D01*
X101635738Y-125056028D01*
X101765972Y-125186262D01*
X101919111Y-125288586D01*
X102089271Y-125359068D01*
X102269911Y-125395000D01*
X102454089Y-125395000D01*
X102634729Y-125359068D01*
X102804889Y-125288586D01*
X102958028Y-125186262D01*
X103088262Y-125056028D01*
X103190586Y-124902889D01*
X103261068Y-124732729D01*
X103297000Y-124552089D01*
X103297000Y-124367911D01*
X103261068Y-124187271D01*
X103190586Y-124017111D01*
X103088262Y-123863972D01*
X102958028Y-123733738D01*
X102804889Y-123631414D01*
X102634729Y-123560932D01*
X102517180Y-123537550D01*
X102108000Y-123128370D01*
X102108000Y-119314630D01*
X104017352Y-117405279D01*
X104046422Y-117381422D01*
X104141645Y-117265392D01*
X104212402Y-117133015D01*
X104255974Y-116989378D01*
X104267000Y-116877426D01*
X104267000Y-116877424D01*
X104270686Y-116840001D01*
X104267000Y-116802578D01*
X104267000Y-105066423D01*
X104278027Y-105178378D01*
X104321599Y-105322015D01*
X104392355Y-105454392D01*
X104423000Y-105491733D01*
X104423000Y-125873000D01*
X87686295Y-125873000D01*
X87752088Y-125807207D01*
X88062344Y-125342876D01*
X88276052Y-124826939D01*
X88385000Y-124279223D01*
X88385000Y-123720777D01*
X88276052Y-123173061D01*
X88062344Y-122657124D01*
X87752088Y-122192793D01*
X87357207Y-121797912D01*
X86892876Y-121487656D01*
X86376939Y-121273948D01*
X85829223Y-121165000D01*
X85270777Y-121165000D01*
X84723061Y-121273948D01*
X84207124Y-121487656D01*
X83742793Y-121797912D01*
X83677000Y-121863705D01*
X83677000Y-105080000D01*
X84057815Y-105080000D01*
X84086487Y-105371111D01*
X84171401Y-105651034D01*
X84309294Y-105909014D01*
X84494866Y-106135134D01*
X84720986Y-106320706D01*
X84775791Y-106350000D01*
X84720986Y-106379294D01*
X84494866Y-106564866D01*
X84309294Y-106790986D01*
X84171401Y-107048966D01*
X84086487Y-107328889D01*
X84057815Y-107620000D01*
X84086487Y-107911111D01*
X84171401Y-108191034D01*
X84309294Y-108449014D01*
X84494866Y-108675134D01*
X84720986Y-108860706D01*
X84978966Y-108998599D01*
X85258889Y-109083513D01*
X85477050Y-109105000D01*
X85622950Y-109105000D01*
X85841111Y-109083513D01*
X86121034Y-108998599D01*
X86379014Y-108860706D01*
X86605134Y-108675134D01*
X86790706Y-108449014D01*
X86928599Y-108191034D01*
X87013513Y-107911111D01*
X87042185Y-107620000D01*
X87013513Y-107328889D01*
X86928599Y-107048966D01*
X86790706Y-106790986D01*
X86605134Y-106564866D01*
X86379014Y-106379294D01*
X86324209Y-106350000D01*
X86379014Y-106320706D01*
X86605134Y-106135134D01*
X86790706Y-105909014D01*
X86826526Y-105842000D01*
X94991313Y-105842000D01*
X95028736Y-105845686D01*
X95066159Y-105842000D01*
X95066162Y-105842000D01*
X95178114Y-105830974D01*
X95321751Y-105787402D01*
X95454128Y-105716645D01*
X95570158Y-105621422D01*
X95594020Y-105592346D01*
X96269814Y-104916552D01*
X96427911Y-104948000D01*
X96612089Y-104948000D01*
X96792729Y-104912068D01*
X96962889Y-104841586D01*
X97116028Y-104739262D01*
X97246262Y-104609028D01*
X97348586Y-104455889D01*
X97419068Y-104285729D01*
X97455000Y-104105089D01*
X97455000Y-103920911D01*
X97419068Y-103740271D01*
X97348586Y-103570111D01*
X97246262Y-103416972D01*
X97116028Y-103286738D01*
X96962889Y-103184414D01*
X96792729Y-103113932D01*
X96612089Y-103078000D01*
X96427911Y-103078000D01*
X96247271Y-103113932D01*
X96077111Y-103184414D01*
X95963480Y-103260340D01*
X95946358Y-103262026D01*
X95802721Y-103305598D01*
X95774428Y-103320721D01*
X95670343Y-103376355D01*
X95620799Y-103417015D01*
X95554314Y-103471578D01*
X95530457Y-103500648D01*
X94713106Y-104318000D01*
X86826526Y-104318000D01*
X86790706Y-104250986D01*
X86605134Y-104024866D01*
X86379014Y-103839294D01*
X86314477Y-103804799D01*
X86431355Y-103735178D01*
X86647588Y-103540269D01*
X86821641Y-103306920D01*
X86946825Y-103044099D01*
X86991476Y-102896890D01*
X86870155Y-102667000D01*
X85677000Y-102667000D01*
X85677000Y-102687000D01*
X85423000Y-102687000D01*
X85423000Y-102667000D01*
X84229845Y-102667000D01*
X84108524Y-102896890D01*
X84153175Y-103044099D01*
X84278359Y-103306920D01*
X84452412Y-103540269D01*
X84668645Y-103735178D01*
X84785523Y-103804799D01*
X84720986Y-103839294D01*
X84494866Y-104024866D01*
X84309294Y-104250986D01*
X84171401Y-104508966D01*
X84086487Y-104788889D01*
X84057815Y-105080000D01*
X83677000Y-105080000D01*
X83677000Y-92380000D01*
X84057815Y-92380000D01*
X84086487Y-92671111D01*
X84171401Y-92951034D01*
X84309294Y-93209014D01*
X84494866Y-93435134D01*
X84720986Y-93620706D01*
X84775791Y-93650000D01*
X84720986Y-93679294D01*
X84494866Y-93864866D01*
X84309294Y-94090986D01*
X84171401Y-94348966D01*
X84086487Y-94628889D01*
X84057815Y-94920000D01*
X84086487Y-95211111D01*
X84171401Y-95491034D01*
X84309294Y-95749014D01*
X84494866Y-95975134D01*
X84720986Y-96160706D01*
X84775791Y-96190000D01*
X84720986Y-96219294D01*
X84494866Y-96404866D01*
X84309294Y-96630986D01*
X84171401Y-96888966D01*
X84086487Y-97168889D01*
X84057815Y-97460000D01*
X84086487Y-97751111D01*
X84171401Y-98031034D01*
X84309294Y-98289014D01*
X84494866Y-98515134D01*
X84720986Y-98700706D01*
X84775791Y-98730000D01*
X84720986Y-98759294D01*
X84494866Y-98944866D01*
X84309294Y-99170986D01*
X84171401Y-99428966D01*
X84086487Y-99708889D01*
X84057815Y-100000000D01*
X84086487Y-100291111D01*
X84171401Y-100571034D01*
X84309294Y-100829014D01*
X84494866Y-101055134D01*
X84720986Y-101240706D01*
X84785523Y-101275201D01*
X84668645Y-101344822D01*
X84452412Y-101539731D01*
X84278359Y-101773080D01*
X84153175Y-102035901D01*
X84108524Y-102183110D01*
X84229845Y-102413000D01*
X85423000Y-102413000D01*
X85423000Y-102393000D01*
X85677000Y-102393000D01*
X85677000Y-102413000D01*
X86870155Y-102413000D01*
X86991476Y-102183110D01*
X86946825Y-102035901D01*
X86821641Y-101773080D01*
X86647588Y-101539731D01*
X86431355Y-101344822D01*
X86314477Y-101275201D01*
X86379014Y-101240706D01*
X86605134Y-101055134D01*
X86790706Y-100829014D01*
X86826526Y-100762000D01*
X87414577Y-100762000D01*
X87452000Y-100765686D01*
X87489423Y-100762000D01*
X87489426Y-100762000D01*
X87601378Y-100750974D01*
X87745015Y-100707402D01*
X87877392Y-100636645D01*
X87993422Y-100541422D01*
X88017284Y-100512346D01*
X92927545Y-95602086D01*
X93045093Y-95578704D01*
X93215253Y-95508222D01*
X93368392Y-95405898D01*
X93498626Y-95275664D01*
X93600950Y-95122525D01*
X93671432Y-94952365D01*
X93707364Y-94771725D01*
X93707364Y-94587547D01*
X93671432Y-94406907D01*
X93614273Y-94268911D01*
X96728000Y-94268911D01*
X96728000Y-94453089D01*
X96763932Y-94633729D01*
X96834414Y-94803889D01*
X96901001Y-94903544D01*
X96901000Y-102705577D01*
X96897314Y-102743000D01*
X96901000Y-102780423D01*
X96901000Y-102780425D01*
X96912026Y-102892377D01*
X96955598Y-103036014D01*
X96955599Y-103036015D01*
X97026355Y-103168392D01*
X97065983Y-103216678D01*
X97121578Y-103284422D01*
X97150654Y-103308284D01*
X99661550Y-105819181D01*
X99684932Y-105936729D01*
X99755414Y-106106889D01*
X99857738Y-106260028D01*
X99987972Y-106390262D01*
X100141111Y-106492586D01*
X100311271Y-106563068D01*
X100491911Y-106599000D01*
X100676089Y-106599000D01*
X100856729Y-106563068D01*
X101026889Y-106492586D01*
X101180028Y-106390262D01*
X101310262Y-106260028D01*
X101412586Y-106106889D01*
X101483068Y-105936729D01*
X101519000Y-105756089D01*
X101519000Y-105571911D01*
X101483068Y-105391271D01*
X101412586Y-105221111D01*
X101310262Y-105067972D01*
X101180028Y-104937738D01*
X101026889Y-104835414D01*
X100856729Y-104764932D01*
X100739181Y-104741550D01*
X98425000Y-102427370D01*
X98425000Y-96926061D01*
X98660000Y-96926061D01*
X98660000Y-97129939D01*
X98699774Y-97329898D01*
X98777795Y-97518256D01*
X98891063Y-97687774D01*
X99035226Y-97831937D01*
X99204744Y-97945205D01*
X99393102Y-98023226D01*
X99593061Y-98063000D01*
X99796939Y-98063000D01*
X99806273Y-98061143D01*
X99850556Y-98143993D01*
X99861470Y-98157292D01*
X99888132Y-98291329D01*
X99958614Y-98461489D01*
X100060938Y-98614628D01*
X100161772Y-98715462D01*
X100123898Y-98699774D01*
X99923939Y-98660000D01*
X99720061Y-98660000D01*
X99520102Y-98699774D01*
X99331744Y-98777795D01*
X99162226Y-98891063D01*
X99018063Y-99035226D01*
X98904795Y-99204744D01*
X98826774Y-99393102D01*
X98787000Y-99593061D01*
X98787000Y-99796939D01*
X98826774Y-99996898D01*
X98904795Y-100185256D01*
X99018063Y-100354774D01*
X99162226Y-100498937D01*
X99331744Y-100612205D01*
X99520102Y-100690226D01*
X99720061Y-100730000D01*
X99923939Y-100730000D01*
X100123898Y-100690226D01*
X100312256Y-100612205D01*
X100481774Y-100498937D01*
X100625937Y-100354774D01*
X100739205Y-100185256D01*
X100817226Y-99996898D01*
X100857000Y-99796939D01*
X100857000Y-99593061D01*
X100817226Y-99393102D01*
X100739205Y-99204744D01*
X100625937Y-99035226D01*
X100504071Y-98913360D01*
X100514471Y-98917668D01*
X100695111Y-98953600D01*
X100879289Y-98953600D01*
X101059929Y-98917668D01*
X101230089Y-98847186D01*
X101383228Y-98744862D01*
X101513462Y-98614628D01*
X101615786Y-98461489D01*
X101686268Y-98291329D01*
X101722200Y-98110689D01*
X101722200Y-97926511D01*
X101686268Y-97745871D01*
X101615786Y-97575711D01*
X101513462Y-97422572D01*
X101383228Y-97292338D01*
X101249201Y-97202784D01*
X101249201Y-76739429D01*
X102546279Y-75442352D01*
X102546284Y-75442346D01*
X102566180Y-75422450D01*
X102683729Y-75399068D01*
X102853889Y-75328586D01*
X103007028Y-75226262D01*
X103137262Y-75096028D01*
X103239586Y-74942889D01*
X103310068Y-74772729D01*
X103346000Y-74592089D01*
X103346000Y-74407911D01*
X103310068Y-74227271D01*
X103239586Y-74057111D01*
X103137262Y-73903972D01*
X103007028Y-73773738D01*
X102853889Y-73671414D01*
X102683729Y-73600932D01*
X102503089Y-73565000D01*
X102318911Y-73565000D01*
X102138271Y-73600932D01*
X101968111Y-73671414D01*
X101814972Y-73773738D01*
X101684738Y-73903972D01*
X101582414Y-74057111D01*
X101511932Y-74227271D01*
X101488550Y-74344820D01*
X101468654Y-74364716D01*
X101468648Y-74364721D01*
X99974850Y-75858520D01*
X99945780Y-75882377D01*
X99921923Y-75911447D01*
X99921922Y-75911448D01*
X99850556Y-75998407D01*
X99779800Y-76130784D01*
X99736228Y-76274421D01*
X99721515Y-76423799D01*
X99725202Y-76461232D01*
X99725201Y-95993000D01*
X99593061Y-95993000D01*
X99393102Y-96032774D01*
X99204744Y-96110795D01*
X99035226Y-96224063D01*
X98891063Y-96368226D01*
X98777795Y-96537744D01*
X98699774Y-96726102D01*
X98660000Y-96926061D01*
X98425000Y-96926061D01*
X98425000Y-94903542D01*
X98491586Y-94803889D01*
X98562068Y-94633729D01*
X98598000Y-94453089D01*
X98598000Y-94268911D01*
X98562068Y-94088271D01*
X98491586Y-93918111D01*
X98389262Y-93764972D01*
X98259028Y-93634738D01*
X98105889Y-93532414D01*
X97935729Y-93461932D01*
X97755089Y-93426000D01*
X97570911Y-93426000D01*
X97390271Y-93461932D01*
X97220111Y-93532414D01*
X97066972Y-93634738D01*
X96936738Y-93764972D01*
X96834414Y-93918111D01*
X96763932Y-94088271D01*
X96728000Y-94268911D01*
X93614273Y-94268911D01*
X93600950Y-94236747D01*
X93498626Y-94083608D01*
X93368392Y-93953374D01*
X93215253Y-93851050D01*
X93045093Y-93780568D01*
X92864453Y-93744636D01*
X92680275Y-93744636D01*
X92499635Y-93780568D01*
X92329475Y-93851050D01*
X92176336Y-93953374D01*
X92046102Y-94083608D01*
X91943778Y-94236747D01*
X91873296Y-94406907D01*
X91849914Y-94524455D01*
X87136370Y-99238000D01*
X86826526Y-99238000D01*
X86790706Y-99170986D01*
X86605134Y-98944866D01*
X86379014Y-98759294D01*
X86324209Y-98730000D01*
X86379014Y-98700706D01*
X86605134Y-98515134D01*
X86790706Y-98289014D01*
X86928599Y-98031034D01*
X87013513Y-97751111D01*
X87042185Y-97460000D01*
X87013513Y-97168889D01*
X86928599Y-96888966D01*
X86790706Y-96630986D01*
X86605134Y-96404866D01*
X86379014Y-96219294D01*
X86324209Y-96190000D01*
X86379014Y-96160706D01*
X86605134Y-95975134D01*
X86790706Y-95749014D01*
X86928599Y-95491034D01*
X87013513Y-95211111D01*
X87042185Y-94920000D01*
X87013513Y-94628889D01*
X86928599Y-94348966D01*
X86790706Y-94090986D01*
X86605134Y-93864866D01*
X86379014Y-93679294D01*
X86324209Y-93650000D01*
X86379014Y-93620706D01*
X86605134Y-93435134D01*
X86790706Y-93209014D01*
X86928599Y-92951034D01*
X87013513Y-92671111D01*
X87042185Y-92380000D01*
X87013513Y-92088889D01*
X86928599Y-91808966D01*
X86790706Y-91550986D01*
X86605134Y-91324866D01*
X86575313Y-91300393D01*
X86644180Y-91279502D01*
X86754494Y-91220537D01*
X86851185Y-91141185D01*
X86930537Y-91044494D01*
X86989502Y-90934180D01*
X87025812Y-90814482D01*
X87038072Y-90690000D01*
X87038072Y-88990000D01*
X87025812Y-88865518D01*
X86989502Y-88745820D01*
X86930537Y-88635506D01*
X86851185Y-88538815D01*
X86754494Y-88459463D01*
X86644180Y-88400498D01*
X86524482Y-88364188D01*
X86400000Y-88351928D01*
X84700000Y-88351928D01*
X84575518Y-88364188D01*
X84455820Y-88400498D01*
X84345506Y-88459463D01*
X84248815Y-88538815D01*
X84169463Y-88635506D01*
X84110498Y-88745820D01*
X84074188Y-88865518D01*
X84061928Y-88990000D01*
X84061928Y-90690000D01*
X84074188Y-90814482D01*
X84110498Y-90934180D01*
X84169463Y-91044494D01*
X84248815Y-91141185D01*
X84345506Y-91220537D01*
X84455820Y-91279502D01*
X84524687Y-91300393D01*
X84494866Y-91324866D01*
X84309294Y-91550986D01*
X84171401Y-91808966D01*
X84086487Y-92088889D01*
X84057815Y-92380000D01*
X83677000Y-92380000D01*
X83677000Y-86585143D01*
X87056500Y-86585143D01*
X87056500Y-80800857D01*
X83677000Y-80800857D01*
X83677000Y-77136295D01*
X83742793Y-77202088D01*
X84207124Y-77512344D01*
X84723061Y-77726052D01*
X85270777Y-77835000D01*
X85829223Y-77835000D01*
X86376939Y-77726052D01*
X86892876Y-77512344D01*
X87357207Y-77202088D01*
X87752088Y-76807207D01*
X88062344Y-76342876D01*
X88276052Y-75826939D01*
X88385000Y-75279223D01*
X88385000Y-74720777D01*
X88276052Y-74173061D01*
X88062344Y-73657124D01*
X87752088Y-73192793D01*
X87686295Y-73127000D01*
X104423000Y-73127000D01*
X104423000Y-92712004D01*
X104423000Y-92712004D01*
G37*
X104423000Y-92712004D02*
X104392355Y-92749344D01*
X104354535Y-92820101D01*
X104321598Y-92881722D01*
X104278026Y-93025359D01*
X104267000Y-93137310D01*
X104263314Y-93174736D01*
X104267000Y-93212159D01*
X104267001Y-104483586D01*
X104267000Y-104483574D01*
X104255974Y-104371622D01*
X104212402Y-104227985D01*
X104141646Y-104095609D01*
X104141645Y-104095607D01*
X104106857Y-104053219D01*
X104046422Y-103979578D01*
X104017347Y-103955717D01*
X103435284Y-103373654D01*
X103435279Y-103373648D01*
X102673283Y-102611653D01*
X102673279Y-102611648D01*
X101646150Y-101584520D01*
X101622768Y-101466971D01*
X101552286Y-101296811D01*
X101449962Y-101143672D01*
X101319728Y-101013438D01*
X101166589Y-100911114D01*
X100996429Y-100840632D01*
X100815789Y-100804700D01*
X100631611Y-100804700D01*
X100450971Y-100840632D01*
X100280811Y-100911114D01*
X100127672Y-101013438D01*
X99997438Y-101143672D01*
X99895114Y-101296811D01*
X99824632Y-101466971D01*
X99788700Y-101647611D01*
X99788700Y-101831789D01*
X99824632Y-102012429D01*
X99895114Y-102182589D01*
X99997438Y-102335728D01*
X100127672Y-102465962D01*
X100280811Y-102568286D01*
X100450971Y-102638768D01*
X100568520Y-102662150D01*
X101595648Y-103689279D01*
X101595653Y-103689283D01*
X102357648Y-104451279D01*
X102357654Y-104451284D01*
X102743000Y-104836630D01*
X102743001Y-113191779D01*
X102634729Y-113146932D01*
X102454089Y-113111000D01*
X102269911Y-113111000D01*
X102089271Y-113146932D01*
X101919111Y-113217414D01*
X101819458Y-113284000D01*
X100237542Y-113284000D01*
X100137889Y-113217414D01*
X99967729Y-113146932D01*
X99787089Y-113111000D01*
X99602911Y-113111000D01*
X99422271Y-113146932D01*
X99252111Y-113217414D01*
X99098972Y-113319738D01*
X98968738Y-113449972D01*
X98866414Y-113603111D01*
X98795932Y-113773271D01*
X98760000Y-113953911D01*
X98760000Y-114138089D01*
X98795932Y-114318729D01*
X98866414Y-114488889D01*
X98968738Y-114642028D01*
X99098972Y-114772262D01*
X99252111Y-114874586D01*
X99422271Y-114945068D01*
X99602911Y-114981000D01*
X99787089Y-114981000D01*
X99967729Y-114945068D01*
X100137889Y-114874586D01*
X100237542Y-114808000D01*
X101819458Y-114808000D01*
X101919111Y-114874586D01*
X102089271Y-114945068D01*
X102269911Y-114981000D01*
X102454089Y-114981000D01*
X102634729Y-114945068D01*
X102743001Y-114900221D01*
X102743001Y-116524368D01*
X100833654Y-118433716D01*
X100804578Y-118457578D01*
X100748983Y-118525322D01*
X100709355Y-118573608D01*
X100671535Y-118644365D01*
X100638598Y-118705986D01*
X100595026Y-118849623D01*
X100584000Y-118961574D01*
X100580314Y-118999000D01*
X100584000Y-119036423D01*
X100584001Y-122517565D01*
X100584000Y-122517575D01*
X100584000Y-123406577D01*
X100580314Y-123444000D01*
X100595027Y-123593378D01*
X100638599Y-123737015D01*
X100709355Y-123869392D01*
X100773579Y-123947648D01*
X100804579Y-123985422D01*
X100833649Y-124009279D01*
X101439550Y-124615180D01*
X101462932Y-124732729D01*
X101533414Y-124902889D01*
X101635738Y-125056028D01*
X101765972Y-125186262D01*
X101919111Y-125288586D01*
X102089271Y-125359068D01*
X102269911Y-125395000D01*
X102454089Y-125395000D01*
X102634729Y-125359068D01*
X102804889Y-125288586D01*
X102958028Y-125186262D01*
X103088262Y-125056028D01*
X103190586Y-124902889D01*
X103261068Y-124732729D01*
X103297000Y-124552089D01*
X103297000Y-124367911D01*
X103261068Y-124187271D01*
X103190586Y-124017111D01*
X103088262Y-123863972D01*
X102958028Y-123733738D01*
X102804889Y-123631414D01*
X102634729Y-123560932D01*
X102517180Y-123537550D01*
X102108000Y-123128370D01*
X102108000Y-119314630D01*
X104017352Y-117405279D01*
X104046422Y-117381422D01*
X104141645Y-117265392D01*
X104212402Y-117133015D01*
X104255974Y-116989378D01*
X104267000Y-116877426D01*
X104267000Y-116877424D01*
X104270686Y-116840001D01*
X104267000Y-116802578D01*
X104267000Y-105066423D01*
X104278027Y-105178378D01*
X104321599Y-105322015D01*
X104392355Y-105454392D01*
X104423000Y-105491733D01*
X104423000Y-125873000D01*
X87686295Y-125873000D01*
X87752088Y-125807207D01*
X88062344Y-125342876D01*
X88276052Y-124826939D01*
X88385000Y-124279223D01*
X88385000Y-123720777D01*
X88276052Y-123173061D01*
X88062344Y-122657124D01*
X87752088Y-122192793D01*
X87357207Y-121797912D01*
X86892876Y-121487656D01*
X86376939Y-121273948D01*
X85829223Y-121165000D01*
X85270777Y-121165000D01*
X84723061Y-121273948D01*
X84207124Y-121487656D01*
X83742793Y-121797912D01*
X83677000Y-121863705D01*
X83677000Y-105080000D01*
X84057815Y-105080000D01*
X84086487Y-105371111D01*
X84171401Y-105651034D01*
X84309294Y-105909014D01*
X84494866Y-106135134D01*
X84720986Y-106320706D01*
X84775791Y-106350000D01*
X84720986Y-106379294D01*
X84494866Y-106564866D01*
X84309294Y-106790986D01*
X84171401Y-107048966D01*
X84086487Y-107328889D01*
X84057815Y-107620000D01*
X84086487Y-107911111D01*
X84171401Y-108191034D01*
X84309294Y-108449014D01*
X84494866Y-108675134D01*
X84720986Y-108860706D01*
X84978966Y-108998599D01*
X85258889Y-109083513D01*
X85477050Y-109105000D01*
X85622950Y-109105000D01*
X85841111Y-109083513D01*
X86121034Y-108998599D01*
X86379014Y-108860706D01*
X86605134Y-108675134D01*
X86790706Y-108449014D01*
X86928599Y-108191034D01*
X87013513Y-107911111D01*
X87042185Y-107620000D01*
X87013513Y-107328889D01*
X86928599Y-107048966D01*
X86790706Y-106790986D01*
X86605134Y-106564866D01*
X86379014Y-106379294D01*
X86324209Y-106350000D01*
X86379014Y-106320706D01*
X86605134Y-106135134D01*
X86790706Y-105909014D01*
X86826526Y-105842000D01*
X94991313Y-105842000D01*
X95028736Y-105845686D01*
X95066159Y-105842000D01*
X95066162Y-105842000D01*
X95178114Y-105830974D01*
X95321751Y-105787402D01*
X95454128Y-105716645D01*
X95570158Y-105621422D01*
X95594020Y-105592346D01*
X96269814Y-104916552D01*
X96427911Y-104948000D01*
X96612089Y-104948000D01*
X96792729Y-104912068D01*
X96962889Y-104841586D01*
X97116028Y-104739262D01*
X97246262Y-104609028D01*
X97348586Y-104455889D01*
X97419068Y-104285729D01*
X97455000Y-104105089D01*
X97455000Y-103920911D01*
X97419068Y-103740271D01*
X97348586Y-103570111D01*
X97246262Y-103416972D01*
X97116028Y-103286738D01*
X96962889Y-103184414D01*
X96792729Y-103113932D01*
X96612089Y-103078000D01*
X96427911Y-103078000D01*
X96247271Y-103113932D01*
X96077111Y-103184414D01*
X95963480Y-103260340D01*
X95946358Y-103262026D01*
X95802721Y-103305598D01*
X95774428Y-103320721D01*
X95670343Y-103376355D01*
X95620799Y-103417015D01*
X95554314Y-103471578D01*
X95530457Y-103500648D01*
X94713106Y-104318000D01*
X86826526Y-104318000D01*
X86790706Y-104250986D01*
X86605134Y-104024866D01*
X86379014Y-103839294D01*
X86314477Y-103804799D01*
X86431355Y-103735178D01*
X86647588Y-103540269D01*
X86821641Y-103306920D01*
X86946825Y-103044099D01*
X86991476Y-102896890D01*
X86870155Y-102667000D01*
X85677000Y-102667000D01*
X85677000Y-102687000D01*
X85423000Y-102687000D01*
X85423000Y-102667000D01*
X84229845Y-102667000D01*
X84108524Y-102896890D01*
X84153175Y-103044099D01*
X84278359Y-103306920D01*
X84452412Y-103540269D01*
X84668645Y-103735178D01*
X84785523Y-103804799D01*
X84720986Y-103839294D01*
X84494866Y-104024866D01*
X84309294Y-104250986D01*
X84171401Y-104508966D01*
X84086487Y-104788889D01*
X84057815Y-105080000D01*
X83677000Y-105080000D01*
X83677000Y-92380000D01*
X84057815Y-92380000D01*
X84086487Y-92671111D01*
X84171401Y-92951034D01*
X84309294Y-93209014D01*
X84494866Y-93435134D01*
X84720986Y-93620706D01*
X84775791Y-93650000D01*
X84720986Y-93679294D01*
X84494866Y-93864866D01*
X84309294Y-94090986D01*
X84171401Y-94348966D01*
X84086487Y-94628889D01*
X84057815Y-94920000D01*
X84086487Y-95211111D01*
X84171401Y-95491034D01*
X84309294Y-95749014D01*
X84494866Y-95975134D01*
X84720986Y-96160706D01*
X84775791Y-96190000D01*
X84720986Y-96219294D01*
X84494866Y-96404866D01*
X84309294Y-96630986D01*
X84171401Y-96888966D01*
X84086487Y-97168889D01*
X84057815Y-97460000D01*
X84086487Y-97751111D01*
X84171401Y-98031034D01*
X84309294Y-98289014D01*
X84494866Y-98515134D01*
X84720986Y-98700706D01*
X84775791Y-98730000D01*
X84720986Y-98759294D01*
X84494866Y-98944866D01*
X84309294Y-99170986D01*
X84171401Y-99428966D01*
X84086487Y-99708889D01*
X84057815Y-100000000D01*
X84086487Y-100291111D01*
X84171401Y-100571034D01*
X84309294Y-100829014D01*
X84494866Y-101055134D01*
X84720986Y-101240706D01*
X84785523Y-101275201D01*
X84668645Y-101344822D01*
X84452412Y-101539731D01*
X84278359Y-101773080D01*
X84153175Y-102035901D01*
X84108524Y-102183110D01*
X84229845Y-102413000D01*
X85423000Y-102413000D01*
X85423000Y-102393000D01*
X85677000Y-102393000D01*
X85677000Y-102413000D01*
X86870155Y-102413000D01*
X86991476Y-102183110D01*
X86946825Y-102035901D01*
X86821641Y-101773080D01*
X86647588Y-101539731D01*
X86431355Y-101344822D01*
X86314477Y-101275201D01*
X86379014Y-101240706D01*
X86605134Y-101055134D01*
X86790706Y-100829014D01*
X86826526Y-100762000D01*
X87414577Y-100762000D01*
X87452000Y-100765686D01*
X87489423Y-100762000D01*
X87489426Y-100762000D01*
X87601378Y-100750974D01*
X87745015Y-100707402D01*
X87877392Y-100636645D01*
X87993422Y-100541422D01*
X88017284Y-100512346D01*
X92927545Y-95602086D01*
X93045093Y-95578704D01*
X93215253Y-95508222D01*
X93368392Y-95405898D01*
X93498626Y-95275664D01*
X93600950Y-95122525D01*
X93671432Y-94952365D01*
X93707364Y-94771725D01*
X93707364Y-94587547D01*
X93671432Y-94406907D01*
X93614273Y-94268911D01*
X96728000Y-94268911D01*
X96728000Y-94453089D01*
X96763932Y-94633729D01*
X96834414Y-94803889D01*
X96901001Y-94903544D01*
X96901000Y-102705577D01*
X96897314Y-102743000D01*
X96901000Y-102780423D01*
X96901000Y-102780425D01*
X96912026Y-102892377D01*
X96955598Y-103036014D01*
X96955599Y-103036015D01*
X97026355Y-103168392D01*
X97065983Y-103216678D01*
X97121578Y-103284422D01*
X97150654Y-103308284D01*
X99661550Y-105819181D01*
X99684932Y-105936729D01*
X99755414Y-106106889D01*
X99857738Y-106260028D01*
X99987972Y-106390262D01*
X100141111Y-106492586D01*
X100311271Y-106563068D01*
X100491911Y-106599000D01*
X100676089Y-106599000D01*
X100856729Y-106563068D01*
X101026889Y-106492586D01*
X101180028Y-106390262D01*
X101310262Y-106260028D01*
X101412586Y-106106889D01*
X101483068Y-105936729D01*
X101519000Y-105756089D01*
X101519000Y-105571911D01*
X101483068Y-105391271D01*
X101412586Y-105221111D01*
X101310262Y-105067972D01*
X101180028Y-104937738D01*
X101026889Y-104835414D01*
X100856729Y-104764932D01*
X100739181Y-104741550D01*
X98425000Y-102427370D01*
X98425000Y-96926061D01*
X98660000Y-96926061D01*
X98660000Y-97129939D01*
X98699774Y-97329898D01*
X98777795Y-97518256D01*
X98891063Y-97687774D01*
X99035226Y-97831937D01*
X99204744Y-97945205D01*
X99393102Y-98023226D01*
X99593061Y-98063000D01*
X99796939Y-98063000D01*
X99806273Y-98061143D01*
X99850556Y-98143993D01*
X99861470Y-98157292D01*
X99888132Y-98291329D01*
X99958614Y-98461489D01*
X100060938Y-98614628D01*
X100161772Y-98715462D01*
X100123898Y-98699774D01*
X99923939Y-98660000D01*
X99720061Y-98660000D01*
X99520102Y-98699774D01*
X99331744Y-98777795D01*
X99162226Y-98891063D01*
X99018063Y-99035226D01*
X98904795Y-99204744D01*
X98826774Y-99393102D01*
X98787000Y-99593061D01*
X98787000Y-99796939D01*
X98826774Y-99996898D01*
X98904795Y-100185256D01*
X99018063Y-100354774D01*
X99162226Y-100498937D01*
X99331744Y-100612205D01*
X99520102Y-100690226D01*
X99720061Y-100730000D01*
X99923939Y-100730000D01*
X100123898Y-100690226D01*
X100312256Y-100612205D01*
X100481774Y-100498937D01*
X100625937Y-100354774D01*
X100739205Y-100185256D01*
X100817226Y-99996898D01*
X100857000Y-99796939D01*
X100857000Y-99593061D01*
X100817226Y-99393102D01*
X100739205Y-99204744D01*
X100625937Y-99035226D01*
X100504071Y-98913360D01*
X100514471Y-98917668D01*
X100695111Y-98953600D01*
X100879289Y-98953600D01*
X101059929Y-98917668D01*
X101230089Y-98847186D01*
X101383228Y-98744862D01*
X101513462Y-98614628D01*
X101615786Y-98461489D01*
X101686268Y-98291329D01*
X101722200Y-98110689D01*
X101722200Y-97926511D01*
X101686268Y-97745871D01*
X101615786Y-97575711D01*
X101513462Y-97422572D01*
X101383228Y-97292338D01*
X101249201Y-97202784D01*
X101249201Y-76739429D01*
X102546279Y-75442352D01*
X102546284Y-75442346D01*
X102566180Y-75422450D01*
X102683729Y-75399068D01*
X102853889Y-75328586D01*
X103007028Y-75226262D01*
X103137262Y-75096028D01*
X103239586Y-74942889D01*
X103310068Y-74772729D01*
X103346000Y-74592089D01*
X103346000Y-74407911D01*
X103310068Y-74227271D01*
X103239586Y-74057111D01*
X103137262Y-73903972D01*
X103007028Y-73773738D01*
X102853889Y-73671414D01*
X102683729Y-73600932D01*
X102503089Y-73565000D01*
X102318911Y-73565000D01*
X102138271Y-73600932D01*
X101968111Y-73671414D01*
X101814972Y-73773738D01*
X101684738Y-73903972D01*
X101582414Y-74057111D01*
X101511932Y-74227271D01*
X101488550Y-74344820D01*
X101468654Y-74364716D01*
X101468648Y-74364721D01*
X99974850Y-75858520D01*
X99945780Y-75882377D01*
X99921923Y-75911447D01*
X99921922Y-75911448D01*
X99850556Y-75998407D01*
X99779800Y-76130784D01*
X99736228Y-76274421D01*
X99721515Y-76423799D01*
X99725202Y-76461232D01*
X99725201Y-95993000D01*
X99593061Y-95993000D01*
X99393102Y-96032774D01*
X99204744Y-96110795D01*
X99035226Y-96224063D01*
X98891063Y-96368226D01*
X98777795Y-96537744D01*
X98699774Y-96726102D01*
X98660000Y-96926061D01*
X98425000Y-96926061D01*
X98425000Y-94903542D01*
X98491586Y-94803889D01*
X98562068Y-94633729D01*
X98598000Y-94453089D01*
X98598000Y-94268911D01*
X98562068Y-94088271D01*
X98491586Y-93918111D01*
X98389262Y-93764972D01*
X98259028Y-93634738D01*
X98105889Y-93532414D01*
X97935729Y-93461932D01*
X97755089Y-93426000D01*
X97570911Y-93426000D01*
X97390271Y-93461932D01*
X97220111Y-93532414D01*
X97066972Y-93634738D01*
X96936738Y-93764972D01*
X96834414Y-93918111D01*
X96763932Y-94088271D01*
X96728000Y-94268911D01*
X93614273Y-94268911D01*
X93600950Y-94236747D01*
X93498626Y-94083608D01*
X93368392Y-93953374D01*
X93215253Y-93851050D01*
X93045093Y-93780568D01*
X92864453Y-93744636D01*
X92680275Y-93744636D01*
X92499635Y-93780568D01*
X92329475Y-93851050D01*
X92176336Y-93953374D01*
X92046102Y-94083608D01*
X91943778Y-94236747D01*
X91873296Y-94406907D01*
X91849914Y-94524455D01*
X87136370Y-99238000D01*
X86826526Y-99238000D01*
X86790706Y-99170986D01*
X86605134Y-98944866D01*
X86379014Y-98759294D01*
X86324209Y-98730000D01*
X86379014Y-98700706D01*
X86605134Y-98515134D01*
X86790706Y-98289014D01*
X86928599Y-98031034D01*
X87013513Y-97751111D01*
X87042185Y-97460000D01*
X87013513Y-97168889D01*
X86928599Y-96888966D01*
X86790706Y-96630986D01*
X86605134Y-96404866D01*
X86379014Y-96219294D01*
X86324209Y-96190000D01*
X86379014Y-96160706D01*
X86605134Y-95975134D01*
X86790706Y-95749014D01*
X86928599Y-95491034D01*
X87013513Y-95211111D01*
X87042185Y-94920000D01*
X87013513Y-94628889D01*
X86928599Y-94348966D01*
X86790706Y-94090986D01*
X86605134Y-93864866D01*
X86379014Y-93679294D01*
X86324209Y-93650000D01*
X86379014Y-93620706D01*
X86605134Y-93435134D01*
X86790706Y-93209014D01*
X86928599Y-92951034D01*
X87013513Y-92671111D01*
X87042185Y-92380000D01*
X87013513Y-92088889D01*
X86928599Y-91808966D01*
X86790706Y-91550986D01*
X86605134Y-91324866D01*
X86575313Y-91300393D01*
X86644180Y-91279502D01*
X86754494Y-91220537D01*
X86851185Y-91141185D01*
X86930537Y-91044494D01*
X86989502Y-90934180D01*
X87025812Y-90814482D01*
X87038072Y-90690000D01*
X87038072Y-88990000D01*
X87025812Y-88865518D01*
X86989502Y-88745820D01*
X86930537Y-88635506D01*
X86851185Y-88538815D01*
X86754494Y-88459463D01*
X86644180Y-88400498D01*
X86524482Y-88364188D01*
X86400000Y-88351928D01*
X84700000Y-88351928D01*
X84575518Y-88364188D01*
X84455820Y-88400498D01*
X84345506Y-88459463D01*
X84248815Y-88538815D01*
X84169463Y-88635506D01*
X84110498Y-88745820D01*
X84074188Y-88865518D01*
X84061928Y-88990000D01*
X84061928Y-90690000D01*
X84074188Y-90814482D01*
X84110498Y-90934180D01*
X84169463Y-91044494D01*
X84248815Y-91141185D01*
X84345506Y-91220537D01*
X84455820Y-91279502D01*
X84524687Y-91300393D01*
X84494866Y-91324866D01*
X84309294Y-91550986D01*
X84171401Y-91808966D01*
X84086487Y-92088889D01*
X84057815Y-92380000D01*
X83677000Y-92380000D01*
X83677000Y-86585143D01*
X87056500Y-86585143D01*
X87056500Y-80800857D01*
X83677000Y-80800857D01*
X83677000Y-77136295D01*
X83742793Y-77202088D01*
X84207124Y-77512344D01*
X84723061Y-77726052D01*
X85270777Y-77835000D01*
X85829223Y-77835000D01*
X86376939Y-77726052D01*
X86892876Y-77512344D01*
X87357207Y-77202088D01*
X87752088Y-76807207D01*
X88062344Y-76342876D01*
X88276052Y-75826939D01*
X88385000Y-75279223D01*
X88385000Y-74720777D01*
X88276052Y-74173061D01*
X88062344Y-73657124D01*
X87752088Y-73192793D01*
X87686295Y-73127000D01*
X104423000Y-73127000D01*
X104423000Y-92712004D01*
M02*
