%FSLAX45Y45*%
G04 Gerber Fmt 4.5, Leading zero omitted, Abs format (unit mm)*
G04 Created by KiCad (PCBNEW (5.1.2)-2) date 2022-12-09 13:09:03*
%MOMM*%
%LPD*%
G04 APERTURE LIST*
%ADD10C,0.100000*%
%ADD11C,0.200000*%
%ADD12C,0.300000*%
G04 APERTURE END LIST*
D10*
X16755000Y-12700000D02*
X8255000Y-12700000D01*
X16755000Y-7200000D02*
X16755000Y-12700000D01*
X8255000Y-7200000D02*
X16755000Y-7200000D01*
X8255000Y-12700000D02*
X8255000Y-7200000D01*
D11*
X10190640Y-11947050D02*
X10210640Y-11967050D01*
X10210640Y-11947050D02*
X10190640Y-11967050D01*
X10595770Y-11947050D02*
X10615770Y-11967050D01*
X10615770Y-11947050D02*
X10595770Y-11967050D01*
X11009600Y-10028080D02*
X11029600Y-10048080D01*
X11029600Y-10028080D02*
X11009600Y-10048080D01*
X11060400Y-9882030D02*
X11080400Y-9902030D01*
X11080400Y-9882030D02*
X11060400Y-9902030D01*
X16305500Y-9993790D02*
X16325500Y-10013790D01*
X16325500Y-9993790D02*
X16305500Y-10013790D01*
X16356300Y-9859170D02*
X16376300Y-9879170D01*
X16376300Y-9859170D02*
X16356300Y-9879170D01*
X16407100Y-9996330D02*
X16427100Y-10016330D01*
X16427100Y-9996330D02*
X16407100Y-10016330D01*
X16456630Y-9857900D02*
X16476630Y-9877900D01*
X16476630Y-9857900D02*
X16456630Y-9877900D01*
X9292236Y-9467964D02*
G75*
G03X9292236Y-9467964I-15000J0D01*
G01*
X9667000Y-10401300D02*
G75*
G03X9667000Y-10401300I-15000J0D01*
G01*
X9781300Y-9436100D02*
G75*
G03X9781300Y-9436100I-15000J0D01*
G01*
X9984500Y-11404600D02*
G75*
G03X9984500Y-11404600I-15000J0D01*
G01*
X10073400Y-10566400D02*
G75*
G03X10073400Y-10566400I-15000J0D01*
G01*
X10087370Y-10173970D02*
G75*
G03X10087370Y-10173970I-15000J0D01*
G01*
X10093720Y-9801860D02*
G75*
G03X10093720Y-9801860I-15000J0D01*
G01*
X10251200Y-11404600D02*
G75*
G03X10251200Y-11404600I-15000J0D01*
G01*
X10251200Y-12446000D02*
G75*
G03X10251200Y-12446000I-15000J0D01*
G01*
X10256100Y-7450000D02*
G75*
G03X10256100Y-7450000I-15000J0D01*
G01*
X10619500Y-9258300D02*
G75*
G03X10619500Y-9258300I-15000J0D01*
G01*
X10619500Y-10604500D02*
G75*
G03X10619500Y-10604500I-15000J0D01*
G01*
X9105900Y-8679500D02*
X9105900Y-8719500D01*
X9085900Y-8699500D02*
X9125900Y-8699500D01*
X9156700Y-10279700D02*
X9156700Y-10319700D01*
X9136700Y-10299700D02*
X9176700Y-10299700D01*
X9283700Y-11676700D02*
X9283700Y-11716700D01*
X9263700Y-11696700D02*
X9303700Y-11696700D01*
X9398000Y-10330500D02*
X9398000Y-10370500D01*
X9378000Y-10350500D02*
X9418000Y-10350500D01*
X9498639Y-9415139D02*
X9498639Y-9455139D01*
X9478639Y-9435139D02*
X9518639Y-9435139D01*
X9969500Y-9682800D02*
X9969500Y-9722800D01*
X9949500Y-9702800D02*
X9989500Y-9702800D01*
X9982200Y-9949500D02*
X9982200Y-9989500D01*
X9962200Y-9969500D02*
X10002200Y-9969500D01*
X10146400Y-9085000D02*
X10146400Y-9125000D01*
X10126400Y-9105000D02*
X10166400Y-9105000D01*
X10604500Y-8247700D02*
X10604500Y-8287700D01*
X10584500Y-8267700D02*
X10624500Y-8267700D01*
X8390000Y-12380000D02*
X8390000Y-12420000D01*
X8370000Y-12400000D02*
X8410000Y-12400000D01*
X8438327Y-12263327D02*
X8438327Y-12303327D01*
X8418327Y-12283327D02*
X8458327Y-12283327D01*
X8438327Y-12496673D02*
X8438327Y-12536673D01*
X8418327Y-12516673D02*
X8458327Y-12516673D01*
X8555000Y-12215000D02*
X8555000Y-12255000D01*
X8535000Y-12235000D02*
X8575000Y-12235000D01*
X8555000Y-12545000D02*
X8555000Y-12585000D01*
X8535000Y-12565000D02*
X8575000Y-12565000D01*
X8671673Y-12263327D02*
X8671673Y-12303327D01*
X8651673Y-12283327D02*
X8691673Y-12283327D01*
X8671673Y-12496673D02*
X8671673Y-12536673D01*
X8651673Y-12516673D02*
X8691673Y-12516673D01*
X8720000Y-12380000D02*
X8720000Y-12420000D01*
X8700000Y-12400000D02*
X8740000Y-12400000D01*
X8390000Y-7480000D02*
X8390000Y-7520000D01*
X8370000Y-7500000D02*
X8410000Y-7500000D01*
X8438327Y-7363327D02*
X8438327Y-7403327D01*
X8418327Y-7383327D02*
X8458327Y-7383327D01*
X8438327Y-7596673D02*
X8438327Y-7636673D01*
X8418327Y-7616673D02*
X8458327Y-7616673D01*
X8555000Y-7315000D02*
X8555000Y-7355000D01*
X8535000Y-7335000D02*
X8575000Y-7335000D01*
X8555000Y-7645000D02*
X8555000Y-7685000D01*
X8535000Y-7665000D02*
X8575000Y-7665000D01*
X8671673Y-7363327D02*
X8671673Y-7403327D01*
X8651673Y-7383327D02*
X8691673Y-7383327D01*
X8671673Y-7596673D02*
X8671673Y-7636673D01*
X8651673Y-7616673D02*
X8691673Y-7616673D01*
X8720000Y-7480000D02*
X8720000Y-7520000D01*
X8700000Y-7500000D02*
X8740000Y-7500000D01*
X8590356Y-9019356D02*
X8590356Y-8948644D01*
X8519644Y-8948644D01*
X8519644Y-9019356D01*
X8590356Y-9019356D01*
X8590356Y-9273356D02*
X8590356Y-9202644D01*
X8519644Y-9202644D01*
X8519644Y-9273356D01*
X8590356Y-9273356D01*
X8590356Y-9527356D02*
X8590356Y-9456644D01*
X8519644Y-9456644D01*
X8519644Y-9527356D01*
X8590356Y-9527356D01*
X8590356Y-9781356D02*
X8590356Y-9710644D01*
X8519644Y-9710644D01*
X8519644Y-9781356D01*
X8590356Y-9781356D01*
X8590356Y-10035356D02*
X8590356Y-9964644D01*
X8519644Y-9964644D01*
X8519644Y-10035356D01*
X8590356Y-10035356D01*
X8590356Y-10289356D02*
X8590356Y-10218644D01*
X8519644Y-10218644D01*
X8519644Y-10289356D01*
X8590356Y-10289356D01*
X8590356Y-10543356D02*
X8590356Y-10472644D01*
X8519644Y-10472644D01*
X8519644Y-10543356D01*
X8590356Y-10543356D01*
X8590356Y-10797356D02*
X8590356Y-10726644D01*
X8519644Y-10726644D01*
X8519644Y-10797356D01*
X8590356Y-10797356D01*
X8555000Y-12510000D02*
X8665000Y-12400000D01*
X8555000Y-12290000D01*
X8445000Y-12400000D01*
X8555000Y-12510000D01*
X8555000Y-7610000D02*
X8665000Y-7500000D01*
X8555000Y-7390000D01*
X8445000Y-7500000D01*
X8555000Y-7610000D01*
D12*
X8536428Y-13170714D02*
X8536428Y-12870714D01*
X8607857Y-12870714D01*
X8650714Y-12885000D01*
X8679286Y-12913571D01*
X8693571Y-12942143D01*
X8707857Y-12999286D01*
X8707857Y-13042143D01*
X8693571Y-13099286D01*
X8679286Y-13127857D01*
X8650714Y-13156429D01*
X8607857Y-13170714D01*
X8536428Y-13170714D01*
X8836428Y-13170714D02*
X8836428Y-12970714D01*
X8836428Y-13027857D02*
X8850714Y-12999286D01*
X8865000Y-12985000D01*
X8893571Y-12970714D01*
X8922143Y-12970714D01*
X9022143Y-13170714D02*
X9022143Y-12970714D01*
X9022143Y-12870714D02*
X9007857Y-12885000D01*
X9022143Y-12899286D01*
X9036428Y-12885000D01*
X9022143Y-12870714D01*
X9022143Y-12899286D01*
X9207857Y-13170714D02*
X9179286Y-13156429D01*
X9165000Y-13127857D01*
X9165000Y-12870714D01*
X9365000Y-13170714D02*
X9336428Y-13156429D01*
X9322143Y-13127857D01*
X9322143Y-12870714D01*
X9707857Y-13170714D02*
X9707857Y-12870714D01*
X9807857Y-13085000D01*
X9907857Y-12870714D01*
X9907857Y-13170714D01*
X10179286Y-13170714D02*
X10179286Y-13013571D01*
X10165000Y-12985000D01*
X10136428Y-12970714D01*
X10079286Y-12970714D01*
X10050714Y-12985000D01*
X10179286Y-13156429D02*
X10150714Y-13170714D01*
X10079286Y-13170714D01*
X10050714Y-13156429D01*
X10036428Y-13127857D01*
X10036428Y-13099286D01*
X10050714Y-13070714D01*
X10079286Y-13056429D01*
X10150714Y-13056429D01*
X10179286Y-13042143D01*
X10322143Y-12970714D02*
X10322143Y-13270714D01*
X10322143Y-12985000D02*
X10350714Y-12970714D01*
X10407857Y-12970714D01*
X10436428Y-12985000D01*
X10450714Y-12999286D01*
X10465000Y-13027857D01*
X10465000Y-13113571D01*
X10450714Y-13142143D01*
X10436428Y-13156429D01*
X10407857Y-13170714D01*
X10350714Y-13170714D01*
X10322143Y-13156429D01*
X10593571Y-13142143D02*
X10607857Y-13156429D01*
X10593571Y-13170714D01*
X10579286Y-13156429D01*
X10593571Y-13142143D01*
X10593571Y-13170714D01*
X10593571Y-12985000D02*
X10607857Y-12999286D01*
X10593571Y-13013571D01*
X10579286Y-12999286D01*
X10593571Y-12985000D01*
X10593571Y-13013571D01*
X8230000Y-13655000D02*
X8250000Y-13675000D01*
X8250000Y-13655000D02*
X8230000Y-13675000D01*
X8593571Y-13500714D02*
X8622143Y-13500714D01*
X8650714Y-13515000D01*
X8665000Y-13529286D01*
X8679286Y-13557857D01*
X8693571Y-13615000D01*
X8693571Y-13686429D01*
X8679286Y-13743571D01*
X8665000Y-13772143D01*
X8650714Y-13786429D01*
X8622143Y-13800714D01*
X8593571Y-13800714D01*
X8565000Y-13786429D01*
X8550714Y-13772143D01*
X8536428Y-13743571D01*
X8522143Y-13686429D01*
X8522143Y-13615000D01*
X8536428Y-13557857D01*
X8550714Y-13529286D01*
X8565000Y-13515000D01*
X8593571Y-13500714D01*
X8822143Y-13772143D02*
X8836428Y-13786429D01*
X8822143Y-13800714D01*
X8807857Y-13786429D01*
X8822143Y-13772143D01*
X8822143Y-13800714D01*
X8950714Y-13529286D02*
X8965000Y-13515000D01*
X8993571Y-13500714D01*
X9065000Y-13500714D01*
X9093571Y-13515000D01*
X9107857Y-13529286D01*
X9122143Y-13557857D01*
X9122143Y-13586429D01*
X9107857Y-13629286D01*
X8936428Y-13800714D01*
X9122143Y-13800714D01*
X9307857Y-13500714D02*
X9336428Y-13500714D01*
X9365000Y-13515000D01*
X9379286Y-13529286D01*
X9393571Y-13557857D01*
X9407857Y-13615000D01*
X9407857Y-13686429D01*
X9393571Y-13743571D01*
X9379286Y-13772143D01*
X9365000Y-13786429D01*
X9336428Y-13800714D01*
X9307857Y-13800714D01*
X9279286Y-13786429D01*
X9265000Y-13772143D01*
X9250714Y-13743571D01*
X9236428Y-13686429D01*
X9236428Y-13615000D01*
X9250714Y-13557857D01*
X9265000Y-13529286D01*
X9279286Y-13515000D01*
X9307857Y-13500714D01*
X9536428Y-13800714D02*
X9536428Y-13600714D01*
X9536428Y-13629286D02*
X9550714Y-13615000D01*
X9579286Y-13600714D01*
X9622143Y-13600714D01*
X9650714Y-13615000D01*
X9665000Y-13643571D01*
X9665000Y-13800714D01*
X9665000Y-13643571D02*
X9679286Y-13615000D01*
X9707857Y-13600714D01*
X9750714Y-13600714D01*
X9779286Y-13615000D01*
X9793571Y-13643571D01*
X9793571Y-13800714D01*
X9936428Y-13800714D02*
X9936428Y-13600714D01*
X9936428Y-13629286D02*
X9950714Y-13615000D01*
X9979286Y-13600714D01*
X10022143Y-13600714D01*
X10050714Y-13615000D01*
X10065000Y-13643571D01*
X10065000Y-13800714D01*
X10065000Y-13643571D02*
X10079286Y-13615000D01*
X10107857Y-13600714D01*
X10150714Y-13600714D01*
X10179286Y-13615000D01*
X10193571Y-13643571D01*
X10193571Y-13800714D01*
X10779286Y-13486429D02*
X10522143Y-13872143D01*
X11165000Y-13500714D02*
X11193571Y-13500714D01*
X11222143Y-13515000D01*
X11236428Y-13529286D01*
X11250714Y-13557857D01*
X11265000Y-13615000D01*
X11265000Y-13686429D01*
X11250714Y-13743571D01*
X11236428Y-13772143D01*
X11222143Y-13786429D01*
X11193571Y-13800714D01*
X11165000Y-13800714D01*
X11136428Y-13786429D01*
X11122143Y-13772143D01*
X11107857Y-13743571D01*
X11093571Y-13686429D01*
X11093571Y-13615000D01*
X11107857Y-13557857D01*
X11122143Y-13529286D01*
X11136428Y-13515000D01*
X11165000Y-13500714D01*
X11393571Y-13772143D02*
X11407857Y-13786429D01*
X11393571Y-13800714D01*
X11379286Y-13786429D01*
X11393571Y-13772143D01*
X11393571Y-13800714D01*
X11593571Y-13500714D02*
X11622143Y-13500714D01*
X11650714Y-13515000D01*
X11665000Y-13529286D01*
X11679286Y-13557857D01*
X11693571Y-13615000D01*
X11693571Y-13686429D01*
X11679286Y-13743571D01*
X11665000Y-13772143D01*
X11650714Y-13786429D01*
X11622143Y-13800714D01*
X11593571Y-13800714D01*
X11565000Y-13786429D01*
X11550714Y-13772143D01*
X11536428Y-13743571D01*
X11522143Y-13686429D01*
X11522143Y-13615000D01*
X11536428Y-13557857D01*
X11550714Y-13529286D01*
X11565000Y-13515000D01*
X11593571Y-13500714D01*
X11879286Y-13500714D02*
X11907857Y-13500714D01*
X11936428Y-13515000D01*
X11950714Y-13529286D01*
X11965000Y-13557857D01*
X11979286Y-13615000D01*
X11979286Y-13686429D01*
X11965000Y-13743571D01*
X11950714Y-13772143D01*
X11936428Y-13786429D01*
X11907857Y-13800714D01*
X11879286Y-13800714D01*
X11850714Y-13786429D01*
X11836428Y-13772143D01*
X11822143Y-13743571D01*
X11807857Y-13686429D01*
X11807857Y-13615000D01*
X11822143Y-13557857D01*
X11836428Y-13529286D01*
X11850714Y-13515000D01*
X11879286Y-13500714D01*
X12150714Y-13629286D02*
X12122143Y-13615000D01*
X12107857Y-13600714D01*
X12093571Y-13572143D01*
X12093571Y-13557857D01*
X12107857Y-13529286D01*
X12122143Y-13515000D01*
X12150714Y-13500714D01*
X12207857Y-13500714D01*
X12236428Y-13515000D01*
X12250714Y-13529286D01*
X12265000Y-13557857D01*
X12265000Y-13572143D01*
X12250714Y-13600714D01*
X12236428Y-13615000D01*
X12207857Y-13629286D01*
X12150714Y-13629286D01*
X12122143Y-13643571D01*
X12107857Y-13657857D01*
X12093571Y-13686429D01*
X12093571Y-13743571D01*
X12107857Y-13772143D01*
X12122143Y-13786429D01*
X12150714Y-13800714D01*
X12207857Y-13800714D01*
X12236428Y-13786429D01*
X12250714Y-13772143D01*
X12265000Y-13743571D01*
X12265000Y-13686429D01*
X12250714Y-13657857D01*
X12236428Y-13643571D01*
X12207857Y-13629286D01*
X12379286Y-13500714D02*
X12379286Y-13557857D01*
X12493571Y-13500714D02*
X12493571Y-13557857D01*
X12936428Y-13915000D02*
X12922143Y-13900714D01*
X12893571Y-13857857D01*
X12879286Y-13829286D01*
X12865000Y-13786429D01*
X12850714Y-13715000D01*
X12850714Y-13657857D01*
X12865000Y-13586429D01*
X12879286Y-13543571D01*
X12893571Y-13515000D01*
X12922143Y-13472143D01*
X12936428Y-13457857D01*
X13093571Y-13629286D02*
X13065000Y-13615000D01*
X13050714Y-13600714D01*
X13036428Y-13572143D01*
X13036428Y-13557857D01*
X13050714Y-13529286D01*
X13065000Y-13515000D01*
X13093571Y-13500714D01*
X13150714Y-13500714D01*
X13179286Y-13515000D01*
X13193571Y-13529286D01*
X13207857Y-13557857D01*
X13207857Y-13572143D01*
X13193571Y-13600714D01*
X13179286Y-13615000D01*
X13150714Y-13629286D01*
X13093571Y-13629286D01*
X13065000Y-13643571D01*
X13050714Y-13657857D01*
X13036428Y-13686429D01*
X13036428Y-13743571D01*
X13050714Y-13772143D01*
X13065000Y-13786429D01*
X13093571Y-13800714D01*
X13150714Y-13800714D01*
X13179286Y-13786429D01*
X13193571Y-13772143D01*
X13207857Y-13743571D01*
X13207857Y-13686429D01*
X13193571Y-13657857D01*
X13179286Y-13643571D01*
X13150714Y-13629286D01*
X13565000Y-13800714D02*
X13565000Y-13500714D01*
X13693571Y-13800714D02*
X13693571Y-13643571D01*
X13679286Y-13615000D01*
X13650714Y-13600714D01*
X13607857Y-13600714D01*
X13579286Y-13615000D01*
X13565000Y-13629286D01*
X13879286Y-13800714D02*
X13850714Y-13786429D01*
X13836428Y-13772143D01*
X13822143Y-13743571D01*
X13822143Y-13657857D01*
X13836428Y-13629286D01*
X13850714Y-13615000D01*
X13879286Y-13600714D01*
X13922143Y-13600714D01*
X13950714Y-13615000D01*
X13965000Y-13629286D01*
X13979286Y-13657857D01*
X13979286Y-13743571D01*
X13965000Y-13772143D01*
X13950714Y-13786429D01*
X13922143Y-13800714D01*
X13879286Y-13800714D01*
X14150714Y-13800714D02*
X14122143Y-13786429D01*
X14107857Y-13757857D01*
X14107857Y-13500714D01*
X14379286Y-13786429D02*
X14350714Y-13800714D01*
X14293571Y-13800714D01*
X14265000Y-13786429D01*
X14250714Y-13757857D01*
X14250714Y-13643571D01*
X14265000Y-13615000D01*
X14293571Y-13600714D01*
X14350714Y-13600714D01*
X14379286Y-13615000D01*
X14393571Y-13643571D01*
X14393571Y-13672143D01*
X14250714Y-13700714D01*
X14507857Y-13786429D02*
X14536428Y-13800714D01*
X14593571Y-13800714D01*
X14622143Y-13786429D01*
X14636428Y-13757857D01*
X14636428Y-13743571D01*
X14622143Y-13715000D01*
X14593571Y-13700714D01*
X14550714Y-13700714D01*
X14522143Y-13686429D01*
X14507857Y-13657857D01*
X14507857Y-13643571D01*
X14522143Y-13615000D01*
X14550714Y-13600714D01*
X14593571Y-13600714D01*
X14622143Y-13615000D01*
X14736428Y-13915000D02*
X14750714Y-13900714D01*
X14779286Y-13857857D01*
X14793571Y-13829286D01*
X14807857Y-13786429D01*
X14822143Y-13715000D01*
X14822143Y-13657857D01*
X14807857Y-13586429D01*
X14793571Y-13543571D01*
X14779286Y-13515000D01*
X14750714Y-13472143D01*
X14736428Y-13457857D01*
X8250000Y-14061000D02*
G75*
G03X8250000Y-14061000I-15000J0D01*
G01*
X8593571Y-13896714D02*
X8622143Y-13896714D01*
X8650714Y-13911000D01*
X8665000Y-13925286D01*
X8679286Y-13953857D01*
X8693571Y-14011000D01*
X8693571Y-14082429D01*
X8679286Y-14139571D01*
X8665000Y-14168143D01*
X8650714Y-14182429D01*
X8622143Y-14196714D01*
X8593571Y-14196714D01*
X8565000Y-14182429D01*
X8550714Y-14168143D01*
X8536428Y-14139571D01*
X8522143Y-14082429D01*
X8522143Y-14011000D01*
X8536428Y-13953857D01*
X8550714Y-13925286D01*
X8565000Y-13911000D01*
X8593571Y-13896714D01*
X8822143Y-14168143D02*
X8836428Y-14182429D01*
X8822143Y-14196714D01*
X8807857Y-14182429D01*
X8822143Y-14168143D01*
X8822143Y-14196714D01*
X8936428Y-13896714D02*
X9122143Y-13896714D01*
X9022143Y-14011000D01*
X9065000Y-14011000D01*
X9093571Y-14025286D01*
X9107857Y-14039571D01*
X9122143Y-14068143D01*
X9122143Y-14139571D01*
X9107857Y-14168143D01*
X9093571Y-14182429D01*
X9065000Y-14196714D01*
X8979286Y-14196714D01*
X8950714Y-14182429D01*
X8936428Y-14168143D01*
X9307857Y-13896714D02*
X9336428Y-13896714D01*
X9365000Y-13911000D01*
X9379286Y-13925286D01*
X9393571Y-13953857D01*
X9407857Y-14011000D01*
X9407857Y-14082429D01*
X9393571Y-14139571D01*
X9379286Y-14168143D01*
X9365000Y-14182429D01*
X9336428Y-14196714D01*
X9307857Y-14196714D01*
X9279286Y-14182429D01*
X9265000Y-14168143D01*
X9250714Y-14139571D01*
X9236428Y-14082429D01*
X9236428Y-14011000D01*
X9250714Y-13953857D01*
X9265000Y-13925286D01*
X9279286Y-13911000D01*
X9307857Y-13896714D01*
X9536428Y-14196714D02*
X9536428Y-13996714D01*
X9536428Y-14025286D02*
X9550714Y-14011000D01*
X9579286Y-13996714D01*
X9622143Y-13996714D01*
X9650714Y-14011000D01*
X9665000Y-14039571D01*
X9665000Y-14196714D01*
X9665000Y-14039571D02*
X9679286Y-14011000D01*
X9707857Y-13996714D01*
X9750714Y-13996714D01*
X9779286Y-14011000D01*
X9793571Y-14039571D01*
X9793571Y-14196714D01*
X9936428Y-14196714D02*
X9936428Y-13996714D01*
X9936428Y-14025286D02*
X9950714Y-14011000D01*
X9979286Y-13996714D01*
X10022143Y-13996714D01*
X10050714Y-14011000D01*
X10065000Y-14039571D01*
X10065000Y-14196714D01*
X10065000Y-14039571D02*
X10079286Y-14011000D01*
X10107857Y-13996714D01*
X10150714Y-13996714D01*
X10179286Y-14011000D01*
X10193571Y-14039571D01*
X10193571Y-14196714D01*
X10779286Y-13882429D02*
X10522143Y-14268143D01*
X11165000Y-13896714D02*
X11193571Y-13896714D01*
X11222143Y-13911000D01*
X11236428Y-13925286D01*
X11250714Y-13953857D01*
X11265000Y-14011000D01*
X11265000Y-14082429D01*
X11250714Y-14139571D01*
X11236428Y-14168143D01*
X11222143Y-14182429D01*
X11193571Y-14196714D01*
X11165000Y-14196714D01*
X11136428Y-14182429D01*
X11122143Y-14168143D01*
X11107857Y-14139571D01*
X11093571Y-14082429D01*
X11093571Y-14011000D01*
X11107857Y-13953857D01*
X11122143Y-13925286D01*
X11136428Y-13911000D01*
X11165000Y-13896714D01*
X11393571Y-14168143D02*
X11407857Y-14182429D01*
X11393571Y-14196714D01*
X11379286Y-14182429D01*
X11393571Y-14168143D01*
X11393571Y-14196714D01*
X11593571Y-13896714D02*
X11622143Y-13896714D01*
X11650714Y-13911000D01*
X11665000Y-13925286D01*
X11679286Y-13953857D01*
X11693571Y-14011000D01*
X11693571Y-14082429D01*
X11679286Y-14139571D01*
X11665000Y-14168143D01*
X11650714Y-14182429D01*
X11622143Y-14196714D01*
X11593571Y-14196714D01*
X11565000Y-14182429D01*
X11550714Y-14168143D01*
X11536428Y-14139571D01*
X11522143Y-14082429D01*
X11522143Y-14011000D01*
X11536428Y-13953857D01*
X11550714Y-13925286D01*
X11565000Y-13911000D01*
X11593571Y-13896714D01*
X11979286Y-14196714D02*
X11807857Y-14196714D01*
X11893571Y-14196714D02*
X11893571Y-13896714D01*
X11865000Y-13939571D01*
X11836428Y-13968143D01*
X11807857Y-13982429D01*
X12093571Y-13925286D02*
X12107857Y-13911000D01*
X12136428Y-13896714D01*
X12207857Y-13896714D01*
X12236428Y-13911000D01*
X12250714Y-13925286D01*
X12265000Y-13953857D01*
X12265000Y-13982429D01*
X12250714Y-14025286D01*
X12079286Y-14196714D01*
X12265000Y-14196714D01*
X12379286Y-13896714D02*
X12379286Y-13953857D01*
X12493571Y-13896714D02*
X12493571Y-13953857D01*
X12936428Y-14311000D02*
X12922143Y-14296714D01*
X12893571Y-14253857D01*
X12879286Y-14225286D01*
X12865000Y-14182429D01*
X12850714Y-14111000D01*
X12850714Y-14053857D01*
X12865000Y-13982429D01*
X12879286Y-13939571D01*
X12893571Y-13911000D01*
X12922143Y-13868143D01*
X12936428Y-13853857D01*
X13207857Y-14196714D02*
X13036428Y-14196714D01*
X13122143Y-14196714D02*
X13122143Y-13896714D01*
X13093571Y-13939571D01*
X13065000Y-13968143D01*
X13036428Y-13982429D01*
X13322143Y-13925286D02*
X13336428Y-13911000D01*
X13365000Y-13896714D01*
X13436428Y-13896714D01*
X13465000Y-13911000D01*
X13479286Y-13925286D01*
X13493571Y-13953857D01*
X13493571Y-13982429D01*
X13479286Y-14025286D01*
X13307857Y-14196714D01*
X13493571Y-14196714D01*
X13850714Y-14196714D02*
X13850714Y-13896714D01*
X13979286Y-14196714D02*
X13979286Y-14039571D01*
X13965000Y-14011000D01*
X13936428Y-13996714D01*
X13893571Y-13996714D01*
X13865000Y-14011000D01*
X13850714Y-14025286D01*
X14165000Y-14196714D02*
X14136428Y-14182429D01*
X14122143Y-14168143D01*
X14107857Y-14139571D01*
X14107857Y-14053857D01*
X14122143Y-14025286D01*
X14136428Y-14011000D01*
X14165000Y-13996714D01*
X14207857Y-13996714D01*
X14236428Y-14011000D01*
X14250714Y-14025286D01*
X14265000Y-14053857D01*
X14265000Y-14139571D01*
X14250714Y-14168143D01*
X14236428Y-14182429D01*
X14207857Y-14196714D01*
X14165000Y-14196714D01*
X14436428Y-14196714D02*
X14407857Y-14182429D01*
X14393571Y-14153857D01*
X14393571Y-13896714D01*
X14665000Y-14182429D02*
X14636428Y-14196714D01*
X14579286Y-14196714D01*
X14550714Y-14182429D01*
X14536428Y-14153857D01*
X14536428Y-14039571D01*
X14550714Y-14011000D01*
X14579286Y-13996714D01*
X14636428Y-13996714D01*
X14665000Y-14011000D01*
X14679286Y-14039571D01*
X14679286Y-14068143D01*
X14536428Y-14096714D01*
X14793571Y-14182429D02*
X14822143Y-14196714D01*
X14879286Y-14196714D01*
X14907857Y-14182429D01*
X14922143Y-14153857D01*
X14922143Y-14139571D01*
X14907857Y-14111000D01*
X14879286Y-14096714D01*
X14836428Y-14096714D01*
X14807857Y-14082429D01*
X14793571Y-14053857D01*
X14793571Y-14039571D01*
X14807857Y-14011000D01*
X14836428Y-13996714D01*
X14879286Y-13996714D01*
X14907857Y-14011000D01*
X15022143Y-14311000D02*
X15036428Y-14296714D01*
X15065000Y-14253857D01*
X15079286Y-14225286D01*
X15093571Y-14182429D01*
X15107857Y-14111000D01*
X15107857Y-14053857D01*
X15093571Y-13982429D01*
X15079286Y-13939571D01*
X15065000Y-13911000D01*
X15036428Y-13868143D01*
X15022143Y-13853857D01*
X8230000Y-14437000D02*
X8230000Y-14477000D01*
X8210000Y-14457000D02*
X8250000Y-14457000D01*
X8593571Y-14292714D02*
X8622143Y-14292714D01*
X8650714Y-14307000D01*
X8665000Y-14321286D01*
X8679286Y-14349857D01*
X8693571Y-14407000D01*
X8693571Y-14478429D01*
X8679286Y-14535571D01*
X8665000Y-14564143D01*
X8650714Y-14578429D01*
X8622143Y-14592714D01*
X8593571Y-14592714D01*
X8565000Y-14578429D01*
X8550714Y-14564143D01*
X8536428Y-14535571D01*
X8522143Y-14478429D01*
X8522143Y-14407000D01*
X8536428Y-14349857D01*
X8550714Y-14321286D01*
X8565000Y-14307000D01*
X8593571Y-14292714D01*
X8822143Y-14564143D02*
X8836428Y-14578429D01*
X8822143Y-14592714D01*
X8807857Y-14578429D01*
X8822143Y-14564143D01*
X8822143Y-14592714D01*
X9093571Y-14392714D02*
X9093571Y-14592714D01*
X9022143Y-14278429D02*
X8950714Y-14492714D01*
X9136428Y-14492714D01*
X9307857Y-14292714D02*
X9336428Y-14292714D01*
X9365000Y-14307000D01*
X9379286Y-14321286D01*
X9393571Y-14349857D01*
X9407857Y-14407000D01*
X9407857Y-14478429D01*
X9393571Y-14535571D01*
X9379286Y-14564143D01*
X9365000Y-14578429D01*
X9336428Y-14592714D01*
X9307857Y-14592714D01*
X9279286Y-14578429D01*
X9265000Y-14564143D01*
X9250714Y-14535571D01*
X9236428Y-14478429D01*
X9236428Y-14407000D01*
X9250714Y-14349857D01*
X9265000Y-14321286D01*
X9279286Y-14307000D01*
X9307857Y-14292714D01*
X9536428Y-14592714D02*
X9536428Y-14392714D01*
X9536428Y-14421286D02*
X9550714Y-14407000D01*
X9579286Y-14392714D01*
X9622143Y-14392714D01*
X9650714Y-14407000D01*
X9665000Y-14435571D01*
X9665000Y-14592714D01*
X9665000Y-14435571D02*
X9679286Y-14407000D01*
X9707857Y-14392714D01*
X9750714Y-14392714D01*
X9779286Y-14407000D01*
X9793571Y-14435571D01*
X9793571Y-14592714D01*
X9936428Y-14592714D02*
X9936428Y-14392714D01*
X9936428Y-14421286D02*
X9950714Y-14407000D01*
X9979286Y-14392714D01*
X10022143Y-14392714D01*
X10050714Y-14407000D01*
X10065000Y-14435571D01*
X10065000Y-14592714D01*
X10065000Y-14435571D02*
X10079286Y-14407000D01*
X10107857Y-14392714D01*
X10150714Y-14392714D01*
X10179286Y-14407000D01*
X10193571Y-14435571D01*
X10193571Y-14592714D01*
X10779286Y-14278429D02*
X10522143Y-14664143D01*
X11165000Y-14292714D02*
X11193571Y-14292714D01*
X11222143Y-14307000D01*
X11236428Y-14321286D01*
X11250714Y-14349857D01*
X11265000Y-14407000D01*
X11265000Y-14478429D01*
X11250714Y-14535571D01*
X11236428Y-14564143D01*
X11222143Y-14578429D01*
X11193571Y-14592714D01*
X11165000Y-14592714D01*
X11136428Y-14578429D01*
X11122143Y-14564143D01*
X11107857Y-14535571D01*
X11093571Y-14478429D01*
X11093571Y-14407000D01*
X11107857Y-14349857D01*
X11122143Y-14321286D01*
X11136428Y-14307000D01*
X11165000Y-14292714D01*
X11393571Y-14564143D02*
X11407857Y-14578429D01*
X11393571Y-14592714D01*
X11379286Y-14578429D01*
X11393571Y-14564143D01*
X11393571Y-14592714D01*
X11593571Y-14292714D02*
X11622143Y-14292714D01*
X11650714Y-14307000D01*
X11665000Y-14321286D01*
X11679286Y-14349857D01*
X11693571Y-14407000D01*
X11693571Y-14478429D01*
X11679286Y-14535571D01*
X11665000Y-14564143D01*
X11650714Y-14578429D01*
X11622143Y-14592714D01*
X11593571Y-14592714D01*
X11565000Y-14578429D01*
X11550714Y-14564143D01*
X11536428Y-14535571D01*
X11522143Y-14478429D01*
X11522143Y-14407000D01*
X11536428Y-14349857D01*
X11550714Y-14321286D01*
X11565000Y-14307000D01*
X11593571Y-14292714D01*
X11979286Y-14592714D02*
X11807857Y-14592714D01*
X11893571Y-14592714D02*
X11893571Y-14292714D01*
X11865000Y-14335571D01*
X11836428Y-14364143D01*
X11807857Y-14378429D01*
X12236428Y-14292714D02*
X12179286Y-14292714D01*
X12150714Y-14307000D01*
X12136428Y-14321286D01*
X12107857Y-14364143D01*
X12093571Y-14421286D01*
X12093571Y-14535571D01*
X12107857Y-14564143D01*
X12122143Y-14578429D01*
X12150714Y-14592714D01*
X12207857Y-14592714D01*
X12236428Y-14578429D01*
X12250714Y-14564143D01*
X12265000Y-14535571D01*
X12265000Y-14464143D01*
X12250714Y-14435571D01*
X12236428Y-14421286D01*
X12207857Y-14407000D01*
X12150714Y-14407000D01*
X12122143Y-14421286D01*
X12107857Y-14435571D01*
X12093571Y-14464143D01*
X12379286Y-14292714D02*
X12379286Y-14349857D01*
X12493571Y-14292714D02*
X12493571Y-14349857D01*
X12936428Y-14707000D02*
X12922143Y-14692714D01*
X12893571Y-14649857D01*
X12879286Y-14621286D01*
X12865000Y-14578429D01*
X12850714Y-14507000D01*
X12850714Y-14449857D01*
X12865000Y-14378429D01*
X12879286Y-14335571D01*
X12893571Y-14307000D01*
X12922143Y-14264143D01*
X12936428Y-14249857D01*
X13036428Y-14321286D02*
X13050714Y-14307000D01*
X13079286Y-14292714D01*
X13150714Y-14292714D01*
X13179286Y-14307000D01*
X13193571Y-14321286D01*
X13207857Y-14349857D01*
X13207857Y-14378429D01*
X13193571Y-14421286D01*
X13022143Y-14592714D01*
X13207857Y-14592714D01*
X13479286Y-14292714D02*
X13336428Y-14292714D01*
X13322143Y-14435571D01*
X13336428Y-14421286D01*
X13365000Y-14407000D01*
X13436428Y-14407000D01*
X13465000Y-14421286D01*
X13479286Y-14435571D01*
X13493571Y-14464143D01*
X13493571Y-14535571D01*
X13479286Y-14564143D01*
X13465000Y-14578429D01*
X13436428Y-14592714D01*
X13365000Y-14592714D01*
X13336428Y-14578429D01*
X13322143Y-14564143D01*
X13850714Y-14592714D02*
X13850714Y-14292714D01*
X13979286Y-14592714D02*
X13979286Y-14435571D01*
X13965000Y-14407000D01*
X13936428Y-14392714D01*
X13893571Y-14392714D01*
X13865000Y-14407000D01*
X13850714Y-14421286D01*
X14165000Y-14592714D02*
X14136428Y-14578429D01*
X14122143Y-14564143D01*
X14107857Y-14535571D01*
X14107857Y-14449857D01*
X14122143Y-14421286D01*
X14136428Y-14407000D01*
X14165000Y-14392714D01*
X14207857Y-14392714D01*
X14236428Y-14407000D01*
X14250714Y-14421286D01*
X14265000Y-14449857D01*
X14265000Y-14535571D01*
X14250714Y-14564143D01*
X14236428Y-14578429D01*
X14207857Y-14592714D01*
X14165000Y-14592714D01*
X14436428Y-14592714D02*
X14407857Y-14578429D01*
X14393571Y-14549857D01*
X14393571Y-14292714D01*
X14665000Y-14578429D02*
X14636428Y-14592714D01*
X14579286Y-14592714D01*
X14550714Y-14578429D01*
X14536428Y-14549857D01*
X14536428Y-14435571D01*
X14550714Y-14407000D01*
X14579286Y-14392714D01*
X14636428Y-14392714D01*
X14665000Y-14407000D01*
X14679286Y-14435571D01*
X14679286Y-14464143D01*
X14536428Y-14492714D01*
X14793571Y-14578429D02*
X14822143Y-14592714D01*
X14879286Y-14592714D01*
X14907857Y-14578429D01*
X14922143Y-14549857D01*
X14922143Y-14535571D01*
X14907857Y-14507000D01*
X14879286Y-14492714D01*
X14836428Y-14492714D01*
X14807857Y-14478429D01*
X14793571Y-14449857D01*
X14793571Y-14435571D01*
X14807857Y-14407000D01*
X14836428Y-14392714D01*
X14879286Y-14392714D01*
X14907857Y-14407000D01*
X15022143Y-14707000D02*
X15036428Y-14692714D01*
X15065000Y-14649857D01*
X15079286Y-14621286D01*
X15093571Y-14578429D01*
X15107857Y-14507000D01*
X15107857Y-14449857D01*
X15093571Y-14378429D01*
X15079286Y-14335571D01*
X15065000Y-14307000D01*
X15036428Y-14264143D01*
X15022143Y-14249857D01*
X8235356Y-14888356D02*
X8235356Y-14817644D01*
X8164644Y-14817644D01*
X8164644Y-14888356D01*
X8235356Y-14888356D01*
X8693571Y-14988714D02*
X8522143Y-14988714D01*
X8607857Y-14988714D02*
X8607857Y-14688714D01*
X8579286Y-14731571D01*
X8550714Y-14760143D01*
X8522143Y-14774429D01*
X8822143Y-14960143D02*
X8836428Y-14974429D01*
X8822143Y-14988714D01*
X8807857Y-14974429D01*
X8822143Y-14960143D01*
X8822143Y-14988714D01*
X9022143Y-14688714D02*
X9050714Y-14688714D01*
X9079286Y-14703000D01*
X9093571Y-14717286D01*
X9107857Y-14745857D01*
X9122143Y-14803000D01*
X9122143Y-14874429D01*
X9107857Y-14931571D01*
X9093571Y-14960143D01*
X9079286Y-14974429D01*
X9050714Y-14988714D01*
X9022143Y-14988714D01*
X8993571Y-14974429D01*
X8979286Y-14960143D01*
X8965000Y-14931571D01*
X8950714Y-14874429D01*
X8950714Y-14803000D01*
X8965000Y-14745857D01*
X8979286Y-14717286D01*
X8993571Y-14703000D01*
X9022143Y-14688714D01*
X9307857Y-14688714D02*
X9336428Y-14688714D01*
X9365000Y-14703000D01*
X9379286Y-14717286D01*
X9393571Y-14745857D01*
X9407857Y-14803000D01*
X9407857Y-14874429D01*
X9393571Y-14931571D01*
X9379286Y-14960143D01*
X9365000Y-14974429D01*
X9336428Y-14988714D01*
X9307857Y-14988714D01*
X9279286Y-14974429D01*
X9265000Y-14960143D01*
X9250714Y-14931571D01*
X9236428Y-14874429D01*
X9236428Y-14803000D01*
X9250714Y-14745857D01*
X9265000Y-14717286D01*
X9279286Y-14703000D01*
X9307857Y-14688714D01*
X9536428Y-14988714D02*
X9536428Y-14788714D01*
X9536428Y-14817286D02*
X9550714Y-14803000D01*
X9579286Y-14788714D01*
X9622143Y-14788714D01*
X9650714Y-14803000D01*
X9665000Y-14831571D01*
X9665000Y-14988714D01*
X9665000Y-14831571D02*
X9679286Y-14803000D01*
X9707857Y-14788714D01*
X9750714Y-14788714D01*
X9779286Y-14803000D01*
X9793571Y-14831571D01*
X9793571Y-14988714D01*
X9936428Y-14988714D02*
X9936428Y-14788714D01*
X9936428Y-14817286D02*
X9950714Y-14803000D01*
X9979286Y-14788714D01*
X10022143Y-14788714D01*
X10050714Y-14803000D01*
X10065000Y-14831571D01*
X10065000Y-14988714D01*
X10065000Y-14831571D02*
X10079286Y-14803000D01*
X10107857Y-14788714D01*
X10150714Y-14788714D01*
X10179286Y-14803000D01*
X10193571Y-14831571D01*
X10193571Y-14988714D01*
X10779286Y-14674429D02*
X10522143Y-15060143D01*
X11165000Y-14688714D02*
X11193571Y-14688714D01*
X11222143Y-14703000D01*
X11236428Y-14717286D01*
X11250714Y-14745857D01*
X11265000Y-14803000D01*
X11265000Y-14874429D01*
X11250714Y-14931571D01*
X11236428Y-14960143D01*
X11222143Y-14974429D01*
X11193571Y-14988714D01*
X11165000Y-14988714D01*
X11136428Y-14974429D01*
X11122143Y-14960143D01*
X11107857Y-14931571D01*
X11093571Y-14874429D01*
X11093571Y-14803000D01*
X11107857Y-14745857D01*
X11122143Y-14717286D01*
X11136428Y-14703000D01*
X11165000Y-14688714D01*
X11393571Y-14960143D02*
X11407857Y-14974429D01*
X11393571Y-14988714D01*
X11379286Y-14974429D01*
X11393571Y-14960143D01*
X11393571Y-14988714D01*
X11593571Y-14688714D02*
X11622143Y-14688714D01*
X11650714Y-14703000D01*
X11665000Y-14717286D01*
X11679286Y-14745857D01*
X11693571Y-14803000D01*
X11693571Y-14874429D01*
X11679286Y-14931571D01*
X11665000Y-14960143D01*
X11650714Y-14974429D01*
X11622143Y-14988714D01*
X11593571Y-14988714D01*
X11565000Y-14974429D01*
X11550714Y-14960143D01*
X11536428Y-14931571D01*
X11522143Y-14874429D01*
X11522143Y-14803000D01*
X11536428Y-14745857D01*
X11550714Y-14717286D01*
X11565000Y-14703000D01*
X11593571Y-14688714D01*
X11793571Y-14688714D02*
X11979286Y-14688714D01*
X11879286Y-14803000D01*
X11922143Y-14803000D01*
X11950714Y-14817286D01*
X11965000Y-14831571D01*
X11979286Y-14860143D01*
X11979286Y-14931571D01*
X11965000Y-14960143D01*
X11950714Y-14974429D01*
X11922143Y-14988714D01*
X11836428Y-14988714D01*
X11807857Y-14974429D01*
X11793571Y-14960143D01*
X12122143Y-14988714D02*
X12179286Y-14988714D01*
X12207857Y-14974429D01*
X12222143Y-14960143D01*
X12250714Y-14917286D01*
X12265000Y-14860143D01*
X12265000Y-14745857D01*
X12250714Y-14717286D01*
X12236428Y-14703000D01*
X12207857Y-14688714D01*
X12150714Y-14688714D01*
X12122143Y-14703000D01*
X12107857Y-14717286D01*
X12093571Y-14745857D01*
X12093571Y-14817286D01*
X12107857Y-14845857D01*
X12122143Y-14860143D01*
X12150714Y-14874429D01*
X12207857Y-14874429D01*
X12236428Y-14860143D01*
X12250714Y-14845857D01*
X12265000Y-14817286D01*
X12379286Y-14688714D02*
X12379286Y-14745857D01*
X12493571Y-14688714D02*
X12493571Y-14745857D01*
X12936428Y-15103000D02*
X12922143Y-15088714D01*
X12893571Y-15045857D01*
X12879286Y-15017286D01*
X12865000Y-14974429D01*
X12850714Y-14903000D01*
X12850714Y-14845857D01*
X12865000Y-14774429D01*
X12879286Y-14731571D01*
X12893571Y-14703000D01*
X12922143Y-14660143D01*
X12936428Y-14645857D01*
X13093571Y-14817286D02*
X13065000Y-14803000D01*
X13050714Y-14788714D01*
X13036428Y-14760143D01*
X13036428Y-14745857D01*
X13050714Y-14717286D01*
X13065000Y-14703000D01*
X13093571Y-14688714D01*
X13150714Y-14688714D01*
X13179286Y-14703000D01*
X13193571Y-14717286D01*
X13207857Y-14745857D01*
X13207857Y-14760143D01*
X13193571Y-14788714D01*
X13179286Y-14803000D01*
X13150714Y-14817286D01*
X13093571Y-14817286D01*
X13065000Y-14831571D01*
X13050714Y-14845857D01*
X13036428Y-14874429D01*
X13036428Y-14931571D01*
X13050714Y-14960143D01*
X13065000Y-14974429D01*
X13093571Y-14988714D01*
X13150714Y-14988714D01*
X13179286Y-14974429D01*
X13193571Y-14960143D01*
X13207857Y-14931571D01*
X13207857Y-14874429D01*
X13193571Y-14845857D01*
X13179286Y-14831571D01*
X13150714Y-14817286D01*
X13565000Y-14988714D02*
X13565000Y-14688714D01*
X13693571Y-14988714D02*
X13693571Y-14831571D01*
X13679286Y-14803000D01*
X13650714Y-14788714D01*
X13607857Y-14788714D01*
X13579286Y-14803000D01*
X13565000Y-14817286D01*
X13879286Y-14988714D02*
X13850714Y-14974429D01*
X13836428Y-14960143D01*
X13822143Y-14931571D01*
X13822143Y-14845857D01*
X13836428Y-14817286D01*
X13850714Y-14803000D01*
X13879286Y-14788714D01*
X13922143Y-14788714D01*
X13950714Y-14803000D01*
X13965000Y-14817286D01*
X13979286Y-14845857D01*
X13979286Y-14931571D01*
X13965000Y-14960143D01*
X13950714Y-14974429D01*
X13922143Y-14988714D01*
X13879286Y-14988714D01*
X14150714Y-14988714D02*
X14122143Y-14974429D01*
X14107857Y-14945857D01*
X14107857Y-14688714D01*
X14379286Y-14974429D02*
X14350714Y-14988714D01*
X14293571Y-14988714D01*
X14265000Y-14974429D01*
X14250714Y-14945857D01*
X14250714Y-14831571D01*
X14265000Y-14803000D01*
X14293571Y-14788714D01*
X14350714Y-14788714D01*
X14379286Y-14803000D01*
X14393571Y-14831571D01*
X14393571Y-14860143D01*
X14250714Y-14888714D01*
X14507857Y-14974429D02*
X14536428Y-14988714D01*
X14593571Y-14988714D01*
X14622143Y-14974429D01*
X14636428Y-14945857D01*
X14636428Y-14931571D01*
X14622143Y-14903000D01*
X14593571Y-14888714D01*
X14550714Y-14888714D01*
X14522143Y-14874429D01*
X14507857Y-14845857D01*
X14507857Y-14831571D01*
X14522143Y-14803000D01*
X14550714Y-14788714D01*
X14593571Y-14788714D01*
X14622143Y-14803000D01*
X14736428Y-15103000D02*
X14750714Y-15088714D01*
X14779286Y-15045857D01*
X14793571Y-15017286D01*
X14807857Y-14974429D01*
X14822143Y-14903000D01*
X14822143Y-14845857D01*
X14807857Y-14774429D01*
X14793571Y-14731571D01*
X14779286Y-14703000D01*
X14750714Y-14660143D01*
X14736428Y-14645857D01*
X8140000Y-15359000D02*
X8250000Y-15249000D01*
X8140000Y-15139000D01*
X8030000Y-15249000D01*
X8140000Y-15359000D01*
X8522143Y-15113286D02*
X8536428Y-15099000D01*
X8565000Y-15084714D01*
X8636428Y-15084714D01*
X8665000Y-15099000D01*
X8679286Y-15113286D01*
X8693571Y-15141857D01*
X8693571Y-15170429D01*
X8679286Y-15213286D01*
X8507857Y-15384714D01*
X8693571Y-15384714D01*
X8822143Y-15356143D02*
X8836428Y-15370429D01*
X8822143Y-15384714D01*
X8807857Y-15370429D01*
X8822143Y-15356143D01*
X8822143Y-15384714D01*
X8950714Y-15113286D02*
X8965000Y-15099000D01*
X8993571Y-15084714D01*
X9065000Y-15084714D01*
X9093571Y-15099000D01*
X9107857Y-15113286D01*
X9122143Y-15141857D01*
X9122143Y-15170429D01*
X9107857Y-15213286D01*
X8936428Y-15384714D01*
X9122143Y-15384714D01*
X9307857Y-15084714D02*
X9336428Y-15084714D01*
X9365000Y-15099000D01*
X9379286Y-15113286D01*
X9393571Y-15141857D01*
X9407857Y-15199000D01*
X9407857Y-15270429D01*
X9393571Y-15327571D01*
X9379286Y-15356143D01*
X9365000Y-15370429D01*
X9336428Y-15384714D01*
X9307857Y-15384714D01*
X9279286Y-15370429D01*
X9265000Y-15356143D01*
X9250714Y-15327571D01*
X9236428Y-15270429D01*
X9236428Y-15199000D01*
X9250714Y-15141857D01*
X9265000Y-15113286D01*
X9279286Y-15099000D01*
X9307857Y-15084714D01*
X9536428Y-15384714D02*
X9536428Y-15184714D01*
X9536428Y-15213286D02*
X9550714Y-15199000D01*
X9579286Y-15184714D01*
X9622143Y-15184714D01*
X9650714Y-15199000D01*
X9665000Y-15227571D01*
X9665000Y-15384714D01*
X9665000Y-15227571D02*
X9679286Y-15199000D01*
X9707857Y-15184714D01*
X9750714Y-15184714D01*
X9779286Y-15199000D01*
X9793571Y-15227571D01*
X9793571Y-15384714D01*
X9936428Y-15384714D02*
X9936428Y-15184714D01*
X9936428Y-15213286D02*
X9950714Y-15199000D01*
X9979286Y-15184714D01*
X10022143Y-15184714D01*
X10050714Y-15199000D01*
X10065000Y-15227571D01*
X10065000Y-15384714D01*
X10065000Y-15227571D02*
X10079286Y-15199000D01*
X10107857Y-15184714D01*
X10150714Y-15184714D01*
X10179286Y-15199000D01*
X10193571Y-15227571D01*
X10193571Y-15384714D01*
X10779286Y-15070429D02*
X10522143Y-15456143D01*
X11165000Y-15084714D02*
X11193571Y-15084714D01*
X11222143Y-15099000D01*
X11236428Y-15113286D01*
X11250714Y-15141857D01*
X11265000Y-15199000D01*
X11265000Y-15270429D01*
X11250714Y-15327571D01*
X11236428Y-15356143D01*
X11222143Y-15370429D01*
X11193571Y-15384714D01*
X11165000Y-15384714D01*
X11136428Y-15370429D01*
X11122143Y-15356143D01*
X11107857Y-15327571D01*
X11093571Y-15270429D01*
X11093571Y-15199000D01*
X11107857Y-15141857D01*
X11122143Y-15113286D01*
X11136428Y-15099000D01*
X11165000Y-15084714D01*
X11393571Y-15356143D02*
X11407857Y-15370429D01*
X11393571Y-15384714D01*
X11379286Y-15370429D01*
X11393571Y-15356143D01*
X11393571Y-15384714D01*
X11593571Y-15084714D02*
X11622143Y-15084714D01*
X11650714Y-15099000D01*
X11665000Y-15113286D01*
X11679286Y-15141857D01*
X11693571Y-15199000D01*
X11693571Y-15270429D01*
X11679286Y-15327571D01*
X11665000Y-15356143D01*
X11650714Y-15370429D01*
X11622143Y-15384714D01*
X11593571Y-15384714D01*
X11565000Y-15370429D01*
X11550714Y-15356143D01*
X11536428Y-15327571D01*
X11522143Y-15270429D01*
X11522143Y-15199000D01*
X11536428Y-15141857D01*
X11550714Y-15113286D01*
X11565000Y-15099000D01*
X11593571Y-15084714D01*
X11865000Y-15213286D02*
X11836428Y-15199000D01*
X11822143Y-15184714D01*
X11807857Y-15156143D01*
X11807857Y-15141857D01*
X11822143Y-15113286D01*
X11836428Y-15099000D01*
X11865000Y-15084714D01*
X11922143Y-15084714D01*
X11950714Y-15099000D01*
X11965000Y-15113286D01*
X11979286Y-15141857D01*
X11979286Y-15156143D01*
X11965000Y-15184714D01*
X11950714Y-15199000D01*
X11922143Y-15213286D01*
X11865000Y-15213286D01*
X11836428Y-15227571D01*
X11822143Y-15241857D01*
X11807857Y-15270429D01*
X11807857Y-15327571D01*
X11822143Y-15356143D01*
X11836428Y-15370429D01*
X11865000Y-15384714D01*
X11922143Y-15384714D01*
X11950714Y-15370429D01*
X11965000Y-15356143D01*
X11979286Y-15327571D01*
X11979286Y-15270429D01*
X11965000Y-15241857D01*
X11950714Y-15227571D01*
X11922143Y-15213286D01*
X12079286Y-15084714D02*
X12279286Y-15084714D01*
X12150714Y-15384714D01*
X12379286Y-15084714D02*
X12379286Y-15141857D01*
X12493571Y-15084714D02*
X12493571Y-15141857D01*
X12936428Y-15499000D02*
X12922143Y-15484714D01*
X12893571Y-15441857D01*
X12879286Y-15413286D01*
X12865000Y-15370429D01*
X12850714Y-15299000D01*
X12850714Y-15241857D01*
X12865000Y-15170429D01*
X12879286Y-15127571D01*
X12893571Y-15099000D01*
X12922143Y-15056143D01*
X12936428Y-15041857D01*
X13036428Y-15113286D02*
X13050714Y-15099000D01*
X13079286Y-15084714D01*
X13150714Y-15084714D01*
X13179286Y-15099000D01*
X13193571Y-15113286D01*
X13207857Y-15141857D01*
X13207857Y-15170429D01*
X13193571Y-15213286D01*
X13022143Y-15384714D01*
X13207857Y-15384714D01*
X13565000Y-15384714D02*
X13565000Y-15084714D01*
X13693571Y-15384714D02*
X13693571Y-15227571D01*
X13679286Y-15199000D01*
X13650714Y-15184714D01*
X13607857Y-15184714D01*
X13579286Y-15199000D01*
X13565000Y-15213286D01*
X13879286Y-15384714D02*
X13850714Y-15370429D01*
X13836428Y-15356143D01*
X13822143Y-15327571D01*
X13822143Y-15241857D01*
X13836428Y-15213286D01*
X13850714Y-15199000D01*
X13879286Y-15184714D01*
X13922143Y-15184714D01*
X13950714Y-15199000D01*
X13965000Y-15213286D01*
X13979286Y-15241857D01*
X13979286Y-15327571D01*
X13965000Y-15356143D01*
X13950714Y-15370429D01*
X13922143Y-15384714D01*
X13879286Y-15384714D01*
X14150714Y-15384714D02*
X14122143Y-15370429D01*
X14107857Y-15341857D01*
X14107857Y-15084714D01*
X14379286Y-15370429D02*
X14350714Y-15384714D01*
X14293571Y-15384714D01*
X14265000Y-15370429D01*
X14250714Y-15341857D01*
X14250714Y-15227571D01*
X14265000Y-15199000D01*
X14293571Y-15184714D01*
X14350714Y-15184714D01*
X14379286Y-15199000D01*
X14393571Y-15227571D01*
X14393571Y-15256143D01*
X14250714Y-15284714D01*
X14507857Y-15370429D02*
X14536428Y-15384714D01*
X14593571Y-15384714D01*
X14622143Y-15370429D01*
X14636428Y-15341857D01*
X14636428Y-15327571D01*
X14622143Y-15299000D01*
X14593571Y-15284714D01*
X14550714Y-15284714D01*
X14522143Y-15270429D01*
X14507857Y-15241857D01*
X14507857Y-15227571D01*
X14522143Y-15199000D01*
X14550714Y-15184714D01*
X14593571Y-15184714D01*
X14622143Y-15199000D01*
X14736428Y-15499000D02*
X14750714Y-15484714D01*
X14779286Y-15441857D01*
X14793571Y-15413286D01*
X14807857Y-15370429D01*
X14822143Y-15299000D01*
X14822143Y-15241857D01*
X14807857Y-15170429D01*
X14793571Y-15127571D01*
X14779286Y-15099000D01*
X14750714Y-15056143D01*
X14736428Y-15041857D01*
M02*
