%TF.GenerationSoftware,KiCad,Pcbnew,(5.1.2)-2*%
%TF.CreationDate,2022-12-09T13:09:16+05:30*%
%TF.ProjectId,mfrcReader,6d667263-5265-4616-9465-722e6b696361,rev?*%
%TF.SameCoordinates,Original*%
%TF.FileFunction,Paste,Top*%
%TF.FilePolarity,Positive*%
%FSLAX46Y46*%
G04 Gerber Fmt 4.6, Leading zero omitted, Abs format (unit mm)*
G04 Created by KiCad (PCBNEW (5.1.2)-2) date 2022-12-09 13:09:16*
%MOMM*%
%LPD*%
G04 APERTURE LIST*
%ADD10C,0.100000*%
%ADD11C,1.150000*%
%ADD12R,1.300000X1.050000*%
G04 APERTURE END LIST*
D10*
G36*
X92680000Y-101975000D02*
G01*
X92680000Y-101125000D01*
X92920000Y-101125000D01*
X92920000Y-101975000D01*
X92680000Y-101975000D01*
G37*
G36*
X93180000Y-101975000D02*
G01*
X93180000Y-101125000D01*
X93420000Y-101125000D01*
X93420000Y-101975000D01*
X93180000Y-101975000D01*
G37*
G36*
X93680000Y-101975000D02*
G01*
X93680000Y-101125000D01*
X93920000Y-101125000D01*
X93920000Y-101975000D01*
X93680000Y-101975000D01*
G37*
G36*
X94180000Y-101975000D02*
G01*
X94180000Y-101125000D01*
X94420000Y-101125000D01*
X94420000Y-101975000D01*
X94180000Y-101975000D01*
G37*
G36*
X94680000Y-101975000D02*
G01*
X94680000Y-101125000D01*
X94920000Y-101125000D01*
X94920000Y-101975000D01*
X94680000Y-101975000D01*
G37*
G36*
X95180000Y-101975000D02*
G01*
X95180000Y-101125000D01*
X95420000Y-101125000D01*
X95420000Y-101975000D01*
X95180000Y-101975000D01*
G37*
G36*
X95680000Y-101975000D02*
G01*
X95680000Y-101125000D01*
X95920000Y-101125000D01*
X95920000Y-101975000D01*
X95680000Y-101975000D01*
G37*
G36*
X96180000Y-101975000D02*
G01*
X96180000Y-101125000D01*
X96420000Y-101125000D01*
X96420000Y-101975000D01*
X96180000Y-101975000D01*
G37*
G36*
X96180000Y-96875000D02*
G01*
X96180000Y-96025000D01*
X96420000Y-96025000D01*
X96420000Y-96875000D01*
X96180000Y-96875000D01*
G37*
G36*
X95680000Y-96875000D02*
G01*
X95680000Y-96025000D01*
X95920000Y-96025000D01*
X95920000Y-96875000D01*
X95680000Y-96875000D01*
G37*
G36*
X95180000Y-96875000D02*
G01*
X95180000Y-96025000D01*
X95420000Y-96025000D01*
X95420000Y-96875000D01*
X95180000Y-96875000D01*
G37*
G36*
X94680000Y-96875000D02*
G01*
X94680000Y-96025000D01*
X94920000Y-96025000D01*
X94920000Y-96875000D01*
X94680000Y-96875000D01*
G37*
G36*
X94180000Y-96875000D02*
G01*
X94180000Y-96025000D01*
X94420000Y-96025000D01*
X94420000Y-96875000D01*
X94180000Y-96875000D01*
G37*
G36*
X93680000Y-96875000D02*
G01*
X93680000Y-96025000D01*
X93920000Y-96025000D01*
X93920000Y-96875000D01*
X93680000Y-96875000D01*
G37*
G36*
X93180000Y-96875000D02*
G01*
X93180000Y-96025000D01*
X93420000Y-96025000D01*
X93420000Y-96875000D01*
X93180000Y-96875000D01*
G37*
G36*
X92680000Y-96875000D02*
G01*
X92680000Y-96025000D01*
X92920000Y-96025000D01*
X92920000Y-96875000D01*
X92680000Y-96875000D01*
G37*
G36*
X91575000Y-97370000D02*
G01*
X91575000Y-97130000D01*
X92425000Y-97130000D01*
X92425000Y-97370000D01*
X91575000Y-97370000D01*
G37*
G36*
X91575000Y-97870000D02*
G01*
X91575000Y-97630000D01*
X92425000Y-97630000D01*
X92425000Y-97870000D01*
X91575000Y-97870000D01*
G37*
G36*
X91575000Y-98370000D02*
G01*
X91575000Y-98130000D01*
X92425000Y-98130000D01*
X92425000Y-98370000D01*
X91575000Y-98370000D01*
G37*
G36*
X91575000Y-98870000D02*
G01*
X91575000Y-98630000D01*
X92425000Y-98630000D01*
X92425000Y-98870000D01*
X91575000Y-98870000D01*
G37*
G36*
X91575000Y-99370000D02*
G01*
X91575000Y-99130000D01*
X92425000Y-99130000D01*
X92425000Y-99370000D01*
X91575000Y-99370000D01*
G37*
G36*
X91575000Y-99870000D02*
G01*
X91575000Y-99630000D01*
X92425000Y-99630000D01*
X92425000Y-99870000D01*
X91575000Y-99870000D01*
G37*
G36*
X91575000Y-100370000D02*
G01*
X91575000Y-100130000D01*
X92425000Y-100130000D01*
X92425000Y-100370000D01*
X91575000Y-100370000D01*
G37*
G36*
X91575000Y-100870000D02*
G01*
X91575000Y-100630000D01*
X92425000Y-100630000D01*
X92425000Y-100870000D01*
X91575000Y-100870000D01*
G37*
G36*
X96675000Y-100870000D02*
G01*
X96675000Y-100630000D01*
X97525000Y-100630000D01*
X97525000Y-100870000D01*
X96675000Y-100870000D01*
G37*
G36*
X96675000Y-100370000D02*
G01*
X96675000Y-100130000D01*
X97525000Y-100130000D01*
X97525000Y-100370000D01*
X96675000Y-100370000D01*
G37*
G36*
X96675000Y-99870000D02*
G01*
X96675000Y-99630000D01*
X97525000Y-99630000D01*
X97525000Y-99870000D01*
X96675000Y-99870000D01*
G37*
G36*
X96675000Y-99370000D02*
G01*
X96675000Y-99130000D01*
X97525000Y-99130000D01*
X97525000Y-99370000D01*
X96675000Y-99370000D01*
G37*
G36*
X96675000Y-98870000D02*
G01*
X96675000Y-98630000D01*
X97525000Y-98630000D01*
X97525000Y-98870000D01*
X96675000Y-98870000D01*
G37*
G36*
X96675000Y-98370000D02*
G01*
X96675000Y-98130000D01*
X97525000Y-98130000D01*
X97525000Y-98370000D01*
X96675000Y-98370000D01*
G37*
G36*
X96675000Y-97870000D02*
G01*
X96675000Y-97630000D01*
X97525000Y-97630000D01*
X97525000Y-97870000D01*
X96675000Y-97870000D01*
G37*
G36*
X96675000Y-97370000D02*
G01*
X96675000Y-97130000D01*
X97525000Y-97130000D01*
X97525000Y-97370000D01*
X96675000Y-97370000D01*
G37*
G36*
X93650000Y-98800000D02*
G01*
X93650000Y-98100000D01*
X94350000Y-98100000D01*
X94350000Y-98800000D01*
X93650000Y-98800000D01*
G37*
G36*
X93650000Y-99900000D02*
G01*
X93650000Y-99200000D01*
X94350000Y-99200000D01*
X94350000Y-99900000D01*
X93650000Y-99900000D01*
G37*
G36*
X94750000Y-99900000D02*
G01*
X94750000Y-99200000D01*
X95450000Y-99200000D01*
X95450000Y-99900000D01*
X94750000Y-99900000D01*
G37*
G36*
X94750000Y-98800000D02*
G01*
X94750000Y-98100000D01*
X95450000Y-98100000D01*
X95450000Y-98800000D01*
X94750000Y-98800000D01*
G37*
G36*
X87899505Y-111301204D02*
G01*
X87923773Y-111304804D01*
X87947572Y-111310765D01*
X87970671Y-111319030D01*
X87992850Y-111329520D01*
X88013893Y-111342132D01*
X88033599Y-111356747D01*
X88051777Y-111373223D01*
X88068253Y-111391401D01*
X88082868Y-111411107D01*
X88095480Y-111432150D01*
X88105970Y-111454329D01*
X88114235Y-111477428D01*
X88120196Y-111501227D01*
X88123796Y-111525495D01*
X88125000Y-111549999D01*
X88125000Y-112450001D01*
X88123796Y-112474505D01*
X88120196Y-112498773D01*
X88114235Y-112522572D01*
X88105970Y-112545671D01*
X88095480Y-112567850D01*
X88082868Y-112588893D01*
X88068253Y-112608599D01*
X88051777Y-112626777D01*
X88033599Y-112643253D01*
X88013893Y-112657868D01*
X87992850Y-112670480D01*
X87970671Y-112680970D01*
X87947572Y-112689235D01*
X87923773Y-112695196D01*
X87899505Y-112698796D01*
X87875001Y-112700000D01*
X87224999Y-112700000D01*
X87200495Y-112698796D01*
X87176227Y-112695196D01*
X87152428Y-112689235D01*
X87129329Y-112680970D01*
X87107150Y-112670480D01*
X87086107Y-112657868D01*
X87066401Y-112643253D01*
X87048223Y-112626777D01*
X87031747Y-112608599D01*
X87017132Y-112588893D01*
X87004520Y-112567850D01*
X86994030Y-112545671D01*
X86985765Y-112522572D01*
X86979804Y-112498773D01*
X86976204Y-112474505D01*
X86975000Y-112450001D01*
X86975000Y-111549999D01*
X86976204Y-111525495D01*
X86979804Y-111501227D01*
X86985765Y-111477428D01*
X86994030Y-111454329D01*
X87004520Y-111432150D01*
X87017132Y-111411107D01*
X87031747Y-111391401D01*
X87048223Y-111373223D01*
X87066401Y-111356747D01*
X87086107Y-111342132D01*
X87107150Y-111329520D01*
X87129329Y-111319030D01*
X87152428Y-111310765D01*
X87176227Y-111304804D01*
X87200495Y-111301204D01*
X87224999Y-111300000D01*
X87875001Y-111300000D01*
X87899505Y-111301204D01*
X87899505Y-111301204D01*
G37*
D11*
X87550000Y-112000000D03*
D10*
G36*
X85849505Y-111301204D02*
G01*
X85873773Y-111304804D01*
X85897572Y-111310765D01*
X85920671Y-111319030D01*
X85942850Y-111329520D01*
X85963893Y-111342132D01*
X85983599Y-111356747D01*
X86001777Y-111373223D01*
X86018253Y-111391401D01*
X86032868Y-111411107D01*
X86045480Y-111432150D01*
X86055970Y-111454329D01*
X86064235Y-111477428D01*
X86070196Y-111501227D01*
X86073796Y-111525495D01*
X86075000Y-111549999D01*
X86075000Y-112450001D01*
X86073796Y-112474505D01*
X86070196Y-112498773D01*
X86064235Y-112522572D01*
X86055970Y-112545671D01*
X86045480Y-112567850D01*
X86032868Y-112588893D01*
X86018253Y-112608599D01*
X86001777Y-112626777D01*
X85983599Y-112643253D01*
X85963893Y-112657868D01*
X85942850Y-112670480D01*
X85920671Y-112680970D01*
X85897572Y-112689235D01*
X85873773Y-112695196D01*
X85849505Y-112698796D01*
X85825001Y-112700000D01*
X85174999Y-112700000D01*
X85150495Y-112698796D01*
X85126227Y-112695196D01*
X85102428Y-112689235D01*
X85079329Y-112680970D01*
X85057150Y-112670480D01*
X85036107Y-112657868D01*
X85016401Y-112643253D01*
X84998223Y-112626777D01*
X84981747Y-112608599D01*
X84967132Y-112588893D01*
X84954520Y-112567850D01*
X84944030Y-112545671D01*
X84935765Y-112522572D01*
X84929804Y-112498773D01*
X84926204Y-112474505D01*
X84925000Y-112450001D01*
X84925000Y-111549999D01*
X84926204Y-111525495D01*
X84929804Y-111501227D01*
X84935765Y-111477428D01*
X84944030Y-111454329D01*
X84954520Y-111432150D01*
X84967132Y-111411107D01*
X84981747Y-111391401D01*
X84998223Y-111373223D01*
X85016401Y-111356747D01*
X85036107Y-111342132D01*
X85057150Y-111329520D01*
X85079329Y-111319030D01*
X85102428Y-111310765D01*
X85126227Y-111304804D01*
X85150495Y-111301204D01*
X85174999Y-111300000D01*
X85825001Y-111300000D01*
X85849505Y-111301204D01*
X85849505Y-111301204D01*
G37*
D11*
X85500000Y-112000000D03*
D10*
G36*
X93349505Y-104801204D02*
G01*
X93373773Y-104804804D01*
X93397572Y-104810765D01*
X93420671Y-104819030D01*
X93442850Y-104829520D01*
X93463893Y-104842132D01*
X93483599Y-104856747D01*
X93501777Y-104873223D01*
X93518253Y-104891401D01*
X93532868Y-104911107D01*
X93545480Y-104932150D01*
X93555970Y-104954329D01*
X93564235Y-104977428D01*
X93570196Y-105001227D01*
X93573796Y-105025495D01*
X93575000Y-105049999D01*
X93575000Y-105950001D01*
X93573796Y-105974505D01*
X93570196Y-105998773D01*
X93564235Y-106022572D01*
X93555970Y-106045671D01*
X93545480Y-106067850D01*
X93532868Y-106088893D01*
X93518253Y-106108599D01*
X93501777Y-106126777D01*
X93483599Y-106143253D01*
X93463893Y-106157868D01*
X93442850Y-106170480D01*
X93420671Y-106180970D01*
X93397572Y-106189235D01*
X93373773Y-106195196D01*
X93349505Y-106198796D01*
X93325001Y-106200000D01*
X92674999Y-106200000D01*
X92650495Y-106198796D01*
X92626227Y-106195196D01*
X92602428Y-106189235D01*
X92579329Y-106180970D01*
X92557150Y-106170480D01*
X92536107Y-106157868D01*
X92516401Y-106143253D01*
X92498223Y-106126777D01*
X92481747Y-106108599D01*
X92467132Y-106088893D01*
X92454520Y-106067850D01*
X92444030Y-106045671D01*
X92435765Y-106022572D01*
X92429804Y-105998773D01*
X92426204Y-105974505D01*
X92425000Y-105950001D01*
X92425000Y-105049999D01*
X92426204Y-105025495D01*
X92429804Y-105001227D01*
X92435765Y-104977428D01*
X92444030Y-104954329D01*
X92454520Y-104932150D01*
X92467132Y-104911107D01*
X92481747Y-104891401D01*
X92498223Y-104873223D01*
X92516401Y-104856747D01*
X92536107Y-104842132D01*
X92557150Y-104829520D01*
X92579329Y-104819030D01*
X92602428Y-104810765D01*
X92626227Y-104804804D01*
X92650495Y-104801204D01*
X92674999Y-104800000D01*
X93325001Y-104800000D01*
X93349505Y-104801204D01*
X93349505Y-104801204D01*
G37*
D11*
X93000000Y-105500000D03*
D10*
G36*
X95399505Y-104801204D02*
G01*
X95423773Y-104804804D01*
X95447572Y-104810765D01*
X95470671Y-104819030D01*
X95492850Y-104829520D01*
X95513893Y-104842132D01*
X95533599Y-104856747D01*
X95551777Y-104873223D01*
X95568253Y-104891401D01*
X95582868Y-104911107D01*
X95595480Y-104932150D01*
X95605970Y-104954329D01*
X95614235Y-104977428D01*
X95620196Y-105001227D01*
X95623796Y-105025495D01*
X95625000Y-105049999D01*
X95625000Y-105950001D01*
X95623796Y-105974505D01*
X95620196Y-105998773D01*
X95614235Y-106022572D01*
X95605970Y-106045671D01*
X95595480Y-106067850D01*
X95582868Y-106088893D01*
X95568253Y-106108599D01*
X95551777Y-106126777D01*
X95533599Y-106143253D01*
X95513893Y-106157868D01*
X95492850Y-106170480D01*
X95470671Y-106180970D01*
X95447572Y-106189235D01*
X95423773Y-106195196D01*
X95399505Y-106198796D01*
X95375001Y-106200000D01*
X94724999Y-106200000D01*
X94700495Y-106198796D01*
X94676227Y-106195196D01*
X94652428Y-106189235D01*
X94629329Y-106180970D01*
X94607150Y-106170480D01*
X94586107Y-106157868D01*
X94566401Y-106143253D01*
X94548223Y-106126777D01*
X94531747Y-106108599D01*
X94517132Y-106088893D01*
X94504520Y-106067850D01*
X94494030Y-106045671D01*
X94485765Y-106022572D01*
X94479804Y-105998773D01*
X94476204Y-105974505D01*
X94475000Y-105950001D01*
X94475000Y-105049999D01*
X94476204Y-105025495D01*
X94479804Y-105001227D01*
X94485765Y-104977428D01*
X94494030Y-104954329D01*
X94504520Y-104932150D01*
X94517132Y-104911107D01*
X94531747Y-104891401D01*
X94548223Y-104873223D01*
X94566401Y-104856747D01*
X94586107Y-104842132D01*
X94607150Y-104829520D01*
X94629329Y-104819030D01*
X94652428Y-104810765D01*
X94676227Y-104804804D01*
X94700495Y-104801204D01*
X94724999Y-104800000D01*
X95375001Y-104800000D01*
X95399505Y-104801204D01*
X95399505Y-104801204D01*
G37*
D11*
X95050000Y-105500000D03*
D10*
G36*
X87899505Y-115301204D02*
G01*
X87923773Y-115304804D01*
X87947572Y-115310765D01*
X87970671Y-115319030D01*
X87992850Y-115329520D01*
X88013893Y-115342132D01*
X88033599Y-115356747D01*
X88051777Y-115373223D01*
X88068253Y-115391401D01*
X88082868Y-115411107D01*
X88095480Y-115432150D01*
X88105970Y-115454329D01*
X88114235Y-115477428D01*
X88120196Y-115501227D01*
X88123796Y-115525495D01*
X88125000Y-115549999D01*
X88125000Y-116450001D01*
X88123796Y-116474505D01*
X88120196Y-116498773D01*
X88114235Y-116522572D01*
X88105970Y-116545671D01*
X88095480Y-116567850D01*
X88082868Y-116588893D01*
X88068253Y-116608599D01*
X88051777Y-116626777D01*
X88033599Y-116643253D01*
X88013893Y-116657868D01*
X87992850Y-116670480D01*
X87970671Y-116680970D01*
X87947572Y-116689235D01*
X87923773Y-116695196D01*
X87899505Y-116698796D01*
X87875001Y-116700000D01*
X87224999Y-116700000D01*
X87200495Y-116698796D01*
X87176227Y-116695196D01*
X87152428Y-116689235D01*
X87129329Y-116680970D01*
X87107150Y-116670480D01*
X87086107Y-116657868D01*
X87066401Y-116643253D01*
X87048223Y-116626777D01*
X87031747Y-116608599D01*
X87017132Y-116588893D01*
X87004520Y-116567850D01*
X86994030Y-116545671D01*
X86985765Y-116522572D01*
X86979804Y-116498773D01*
X86976204Y-116474505D01*
X86975000Y-116450001D01*
X86975000Y-115549999D01*
X86976204Y-115525495D01*
X86979804Y-115501227D01*
X86985765Y-115477428D01*
X86994030Y-115454329D01*
X87004520Y-115432150D01*
X87017132Y-115411107D01*
X87031747Y-115391401D01*
X87048223Y-115373223D01*
X87066401Y-115356747D01*
X87086107Y-115342132D01*
X87107150Y-115329520D01*
X87129329Y-115319030D01*
X87152428Y-115310765D01*
X87176227Y-115304804D01*
X87200495Y-115301204D01*
X87224999Y-115300000D01*
X87875001Y-115300000D01*
X87899505Y-115301204D01*
X87899505Y-115301204D01*
G37*
D11*
X87550000Y-116000000D03*
D10*
G36*
X85849505Y-115301204D02*
G01*
X85873773Y-115304804D01*
X85897572Y-115310765D01*
X85920671Y-115319030D01*
X85942850Y-115329520D01*
X85963893Y-115342132D01*
X85983599Y-115356747D01*
X86001777Y-115373223D01*
X86018253Y-115391401D01*
X86032868Y-115411107D01*
X86045480Y-115432150D01*
X86055970Y-115454329D01*
X86064235Y-115477428D01*
X86070196Y-115501227D01*
X86073796Y-115525495D01*
X86075000Y-115549999D01*
X86075000Y-116450001D01*
X86073796Y-116474505D01*
X86070196Y-116498773D01*
X86064235Y-116522572D01*
X86055970Y-116545671D01*
X86045480Y-116567850D01*
X86032868Y-116588893D01*
X86018253Y-116608599D01*
X86001777Y-116626777D01*
X85983599Y-116643253D01*
X85963893Y-116657868D01*
X85942850Y-116670480D01*
X85920671Y-116680970D01*
X85897572Y-116689235D01*
X85873773Y-116695196D01*
X85849505Y-116698796D01*
X85825001Y-116700000D01*
X85174999Y-116700000D01*
X85150495Y-116698796D01*
X85126227Y-116695196D01*
X85102428Y-116689235D01*
X85079329Y-116680970D01*
X85057150Y-116670480D01*
X85036107Y-116657868D01*
X85016401Y-116643253D01*
X84998223Y-116626777D01*
X84981747Y-116608599D01*
X84967132Y-116588893D01*
X84954520Y-116567850D01*
X84944030Y-116545671D01*
X84935765Y-116522572D01*
X84929804Y-116498773D01*
X84926204Y-116474505D01*
X84925000Y-116450001D01*
X84925000Y-115549999D01*
X84926204Y-115525495D01*
X84929804Y-115501227D01*
X84935765Y-115477428D01*
X84944030Y-115454329D01*
X84954520Y-115432150D01*
X84967132Y-115411107D01*
X84981747Y-115391401D01*
X84998223Y-115373223D01*
X85016401Y-115356747D01*
X85036107Y-115342132D01*
X85057150Y-115329520D01*
X85079329Y-115319030D01*
X85102428Y-115310765D01*
X85126227Y-115304804D01*
X85150495Y-115301204D01*
X85174999Y-115300000D01*
X85825001Y-115300000D01*
X85849505Y-115301204D01*
X85849505Y-115301204D01*
G37*
D11*
X85500000Y-116000000D03*
D10*
G36*
X102024505Y-94476204D02*
G01*
X102048773Y-94479804D01*
X102072572Y-94485765D01*
X102095671Y-94494030D01*
X102117850Y-94504520D01*
X102138893Y-94517132D01*
X102158599Y-94531747D01*
X102176777Y-94548223D01*
X102193253Y-94566401D01*
X102207868Y-94586107D01*
X102220480Y-94607150D01*
X102230970Y-94629329D01*
X102239235Y-94652428D01*
X102245196Y-94676227D01*
X102248796Y-94700495D01*
X102250000Y-94724999D01*
X102250000Y-95375001D01*
X102248796Y-95399505D01*
X102245196Y-95423773D01*
X102239235Y-95447572D01*
X102230970Y-95470671D01*
X102220480Y-95492850D01*
X102207868Y-95513893D01*
X102193253Y-95533599D01*
X102176777Y-95551777D01*
X102158599Y-95568253D01*
X102138893Y-95582868D01*
X102117850Y-95595480D01*
X102095671Y-95605970D01*
X102072572Y-95614235D01*
X102048773Y-95620196D01*
X102024505Y-95623796D01*
X102000001Y-95625000D01*
X101099999Y-95625000D01*
X101075495Y-95623796D01*
X101051227Y-95620196D01*
X101027428Y-95614235D01*
X101004329Y-95605970D01*
X100982150Y-95595480D01*
X100961107Y-95582868D01*
X100941401Y-95568253D01*
X100923223Y-95551777D01*
X100906747Y-95533599D01*
X100892132Y-95513893D01*
X100879520Y-95492850D01*
X100869030Y-95470671D01*
X100860765Y-95447572D01*
X100854804Y-95423773D01*
X100851204Y-95399505D01*
X100850000Y-95375001D01*
X100850000Y-94724999D01*
X100851204Y-94700495D01*
X100854804Y-94676227D01*
X100860765Y-94652428D01*
X100869030Y-94629329D01*
X100879520Y-94607150D01*
X100892132Y-94586107D01*
X100906747Y-94566401D01*
X100923223Y-94548223D01*
X100941401Y-94531747D01*
X100961107Y-94517132D01*
X100982150Y-94504520D01*
X101004329Y-94494030D01*
X101027428Y-94485765D01*
X101051227Y-94479804D01*
X101075495Y-94476204D01*
X101099999Y-94475000D01*
X102000001Y-94475000D01*
X102024505Y-94476204D01*
X102024505Y-94476204D01*
G37*
D11*
X101550000Y-95050000D03*
D10*
G36*
X102024505Y-92426204D02*
G01*
X102048773Y-92429804D01*
X102072572Y-92435765D01*
X102095671Y-92444030D01*
X102117850Y-92454520D01*
X102138893Y-92467132D01*
X102158599Y-92481747D01*
X102176777Y-92498223D01*
X102193253Y-92516401D01*
X102207868Y-92536107D01*
X102220480Y-92557150D01*
X102230970Y-92579329D01*
X102239235Y-92602428D01*
X102245196Y-92626227D01*
X102248796Y-92650495D01*
X102250000Y-92674999D01*
X102250000Y-93325001D01*
X102248796Y-93349505D01*
X102245196Y-93373773D01*
X102239235Y-93397572D01*
X102230970Y-93420671D01*
X102220480Y-93442850D01*
X102207868Y-93463893D01*
X102193253Y-93483599D01*
X102176777Y-93501777D01*
X102158599Y-93518253D01*
X102138893Y-93532868D01*
X102117850Y-93545480D01*
X102095671Y-93555970D01*
X102072572Y-93564235D01*
X102048773Y-93570196D01*
X102024505Y-93573796D01*
X102000001Y-93575000D01*
X101099999Y-93575000D01*
X101075495Y-93573796D01*
X101051227Y-93570196D01*
X101027428Y-93564235D01*
X101004329Y-93555970D01*
X100982150Y-93545480D01*
X100961107Y-93532868D01*
X100941401Y-93518253D01*
X100923223Y-93501777D01*
X100906747Y-93483599D01*
X100892132Y-93463893D01*
X100879520Y-93442850D01*
X100869030Y-93420671D01*
X100860765Y-93397572D01*
X100854804Y-93373773D01*
X100851204Y-93349505D01*
X100850000Y-93325001D01*
X100850000Y-92674999D01*
X100851204Y-92650495D01*
X100854804Y-92626227D01*
X100860765Y-92602428D01*
X100869030Y-92579329D01*
X100879520Y-92557150D01*
X100892132Y-92536107D01*
X100906747Y-92516401D01*
X100923223Y-92498223D01*
X100941401Y-92481747D01*
X100961107Y-92467132D01*
X100982150Y-92454520D01*
X101004329Y-92444030D01*
X101027428Y-92435765D01*
X101051227Y-92429804D01*
X101075495Y-92426204D01*
X101099999Y-92425000D01*
X102000001Y-92425000D01*
X102024505Y-92426204D01*
X102024505Y-92426204D01*
G37*
D11*
X101550000Y-93000000D03*
D10*
G36*
X106399505Y-116801204D02*
G01*
X106423773Y-116804804D01*
X106447572Y-116810765D01*
X106470671Y-116819030D01*
X106492850Y-116829520D01*
X106513893Y-116842132D01*
X106533599Y-116856747D01*
X106551777Y-116873223D01*
X106568253Y-116891401D01*
X106582868Y-116911107D01*
X106595480Y-116932150D01*
X106605970Y-116954329D01*
X106614235Y-116977428D01*
X106620196Y-117001227D01*
X106623796Y-117025495D01*
X106625000Y-117049999D01*
X106625000Y-117950001D01*
X106623796Y-117974505D01*
X106620196Y-117998773D01*
X106614235Y-118022572D01*
X106605970Y-118045671D01*
X106595480Y-118067850D01*
X106582868Y-118088893D01*
X106568253Y-118108599D01*
X106551777Y-118126777D01*
X106533599Y-118143253D01*
X106513893Y-118157868D01*
X106492850Y-118170480D01*
X106470671Y-118180970D01*
X106447572Y-118189235D01*
X106423773Y-118195196D01*
X106399505Y-118198796D01*
X106375001Y-118200000D01*
X105724999Y-118200000D01*
X105700495Y-118198796D01*
X105676227Y-118195196D01*
X105652428Y-118189235D01*
X105629329Y-118180970D01*
X105607150Y-118170480D01*
X105586107Y-118157868D01*
X105566401Y-118143253D01*
X105548223Y-118126777D01*
X105531747Y-118108599D01*
X105517132Y-118088893D01*
X105504520Y-118067850D01*
X105494030Y-118045671D01*
X105485765Y-118022572D01*
X105479804Y-117998773D01*
X105476204Y-117974505D01*
X105475000Y-117950001D01*
X105475000Y-117049999D01*
X105476204Y-117025495D01*
X105479804Y-117001227D01*
X105485765Y-116977428D01*
X105494030Y-116954329D01*
X105504520Y-116932150D01*
X105517132Y-116911107D01*
X105531747Y-116891401D01*
X105548223Y-116873223D01*
X105566401Y-116856747D01*
X105586107Y-116842132D01*
X105607150Y-116829520D01*
X105629329Y-116819030D01*
X105652428Y-116810765D01*
X105676227Y-116804804D01*
X105700495Y-116801204D01*
X105724999Y-116800000D01*
X106375001Y-116800000D01*
X106399505Y-116801204D01*
X106399505Y-116801204D01*
G37*
D11*
X106050000Y-117500000D03*
D10*
G36*
X104349505Y-116801204D02*
G01*
X104373773Y-116804804D01*
X104397572Y-116810765D01*
X104420671Y-116819030D01*
X104442850Y-116829520D01*
X104463893Y-116842132D01*
X104483599Y-116856747D01*
X104501777Y-116873223D01*
X104518253Y-116891401D01*
X104532868Y-116911107D01*
X104545480Y-116932150D01*
X104555970Y-116954329D01*
X104564235Y-116977428D01*
X104570196Y-117001227D01*
X104573796Y-117025495D01*
X104575000Y-117049999D01*
X104575000Y-117950001D01*
X104573796Y-117974505D01*
X104570196Y-117998773D01*
X104564235Y-118022572D01*
X104555970Y-118045671D01*
X104545480Y-118067850D01*
X104532868Y-118088893D01*
X104518253Y-118108599D01*
X104501777Y-118126777D01*
X104483599Y-118143253D01*
X104463893Y-118157868D01*
X104442850Y-118170480D01*
X104420671Y-118180970D01*
X104397572Y-118189235D01*
X104373773Y-118195196D01*
X104349505Y-118198796D01*
X104325001Y-118200000D01*
X103674999Y-118200000D01*
X103650495Y-118198796D01*
X103626227Y-118195196D01*
X103602428Y-118189235D01*
X103579329Y-118180970D01*
X103557150Y-118170480D01*
X103536107Y-118157868D01*
X103516401Y-118143253D01*
X103498223Y-118126777D01*
X103481747Y-118108599D01*
X103467132Y-118088893D01*
X103454520Y-118067850D01*
X103444030Y-118045671D01*
X103435765Y-118022572D01*
X103429804Y-117998773D01*
X103426204Y-117974505D01*
X103425000Y-117950001D01*
X103425000Y-117049999D01*
X103426204Y-117025495D01*
X103429804Y-117001227D01*
X103435765Y-116977428D01*
X103444030Y-116954329D01*
X103454520Y-116932150D01*
X103467132Y-116911107D01*
X103481747Y-116891401D01*
X103498223Y-116873223D01*
X103516401Y-116856747D01*
X103536107Y-116842132D01*
X103557150Y-116829520D01*
X103579329Y-116819030D01*
X103602428Y-116810765D01*
X103626227Y-116804804D01*
X103650495Y-116801204D01*
X103674999Y-116800000D01*
X104325001Y-116800000D01*
X104349505Y-116801204D01*
X104349505Y-116801204D01*
G37*
D11*
X104000000Y-117500000D03*
D10*
G36*
X106424505Y-80301204D02*
G01*
X106448773Y-80304804D01*
X106472572Y-80310765D01*
X106495671Y-80319030D01*
X106517850Y-80329520D01*
X106538893Y-80342132D01*
X106558599Y-80356747D01*
X106576777Y-80373223D01*
X106593253Y-80391401D01*
X106607868Y-80411107D01*
X106620480Y-80432150D01*
X106630970Y-80454329D01*
X106639235Y-80477428D01*
X106645196Y-80501227D01*
X106648796Y-80525495D01*
X106650000Y-80549999D01*
X106650000Y-81450001D01*
X106648796Y-81474505D01*
X106645196Y-81498773D01*
X106639235Y-81522572D01*
X106630970Y-81545671D01*
X106620480Y-81567850D01*
X106607868Y-81588893D01*
X106593253Y-81608599D01*
X106576777Y-81626777D01*
X106558599Y-81643253D01*
X106538893Y-81657868D01*
X106517850Y-81670480D01*
X106495671Y-81680970D01*
X106472572Y-81689235D01*
X106448773Y-81695196D01*
X106424505Y-81698796D01*
X106400001Y-81700000D01*
X105749999Y-81700000D01*
X105725495Y-81698796D01*
X105701227Y-81695196D01*
X105677428Y-81689235D01*
X105654329Y-81680970D01*
X105632150Y-81670480D01*
X105611107Y-81657868D01*
X105591401Y-81643253D01*
X105573223Y-81626777D01*
X105556747Y-81608599D01*
X105542132Y-81588893D01*
X105529520Y-81567850D01*
X105519030Y-81545671D01*
X105510765Y-81522572D01*
X105504804Y-81498773D01*
X105501204Y-81474505D01*
X105500000Y-81450001D01*
X105500000Y-80549999D01*
X105501204Y-80525495D01*
X105504804Y-80501227D01*
X105510765Y-80477428D01*
X105519030Y-80454329D01*
X105529520Y-80432150D01*
X105542132Y-80411107D01*
X105556747Y-80391401D01*
X105573223Y-80373223D01*
X105591401Y-80356747D01*
X105611107Y-80342132D01*
X105632150Y-80329520D01*
X105654329Y-80319030D01*
X105677428Y-80310765D01*
X105701227Y-80304804D01*
X105725495Y-80301204D01*
X105749999Y-80300000D01*
X106400001Y-80300000D01*
X106424505Y-80301204D01*
X106424505Y-80301204D01*
G37*
D11*
X106075000Y-81000000D03*
D10*
G36*
X104374505Y-80301204D02*
G01*
X104398773Y-80304804D01*
X104422572Y-80310765D01*
X104445671Y-80319030D01*
X104467850Y-80329520D01*
X104488893Y-80342132D01*
X104508599Y-80356747D01*
X104526777Y-80373223D01*
X104543253Y-80391401D01*
X104557868Y-80411107D01*
X104570480Y-80432150D01*
X104580970Y-80454329D01*
X104589235Y-80477428D01*
X104595196Y-80501227D01*
X104598796Y-80525495D01*
X104600000Y-80549999D01*
X104600000Y-81450001D01*
X104598796Y-81474505D01*
X104595196Y-81498773D01*
X104589235Y-81522572D01*
X104580970Y-81545671D01*
X104570480Y-81567850D01*
X104557868Y-81588893D01*
X104543253Y-81608599D01*
X104526777Y-81626777D01*
X104508599Y-81643253D01*
X104488893Y-81657868D01*
X104467850Y-81670480D01*
X104445671Y-81680970D01*
X104422572Y-81689235D01*
X104398773Y-81695196D01*
X104374505Y-81698796D01*
X104350001Y-81700000D01*
X103699999Y-81700000D01*
X103675495Y-81698796D01*
X103651227Y-81695196D01*
X103627428Y-81689235D01*
X103604329Y-81680970D01*
X103582150Y-81670480D01*
X103561107Y-81657868D01*
X103541401Y-81643253D01*
X103523223Y-81626777D01*
X103506747Y-81608599D01*
X103492132Y-81588893D01*
X103479520Y-81567850D01*
X103469030Y-81545671D01*
X103460765Y-81522572D01*
X103454804Y-81498773D01*
X103451204Y-81474505D01*
X103450000Y-81450001D01*
X103450000Y-80549999D01*
X103451204Y-80525495D01*
X103454804Y-80501227D01*
X103460765Y-80477428D01*
X103469030Y-80454329D01*
X103479520Y-80432150D01*
X103492132Y-80411107D01*
X103506747Y-80391401D01*
X103523223Y-80373223D01*
X103541401Y-80356747D01*
X103561107Y-80342132D01*
X103582150Y-80329520D01*
X103604329Y-80319030D01*
X103627428Y-80310765D01*
X103651227Y-80304804D01*
X103675495Y-80301204D01*
X103699999Y-80300000D01*
X104350001Y-80300000D01*
X104374505Y-80301204D01*
X104374505Y-80301204D01*
G37*
D11*
X104025000Y-81000000D03*
D10*
G36*
X101524505Y-80376204D02*
G01*
X101548773Y-80379804D01*
X101572572Y-80385765D01*
X101595671Y-80394030D01*
X101617850Y-80404520D01*
X101638893Y-80417132D01*
X101658599Y-80431747D01*
X101676777Y-80448223D01*
X101693253Y-80466401D01*
X101707868Y-80486107D01*
X101720480Y-80507150D01*
X101730970Y-80529329D01*
X101739235Y-80552428D01*
X101745196Y-80576227D01*
X101748796Y-80600495D01*
X101750000Y-80624999D01*
X101750000Y-81275001D01*
X101748796Y-81299505D01*
X101745196Y-81323773D01*
X101739235Y-81347572D01*
X101730970Y-81370671D01*
X101720480Y-81392850D01*
X101707868Y-81413893D01*
X101693253Y-81433599D01*
X101676777Y-81451777D01*
X101658599Y-81468253D01*
X101638893Y-81482868D01*
X101617850Y-81495480D01*
X101595671Y-81505970D01*
X101572572Y-81514235D01*
X101548773Y-81520196D01*
X101524505Y-81523796D01*
X101500001Y-81525000D01*
X100599999Y-81525000D01*
X100575495Y-81523796D01*
X100551227Y-81520196D01*
X100527428Y-81514235D01*
X100504329Y-81505970D01*
X100482150Y-81495480D01*
X100461107Y-81482868D01*
X100441401Y-81468253D01*
X100423223Y-81451777D01*
X100406747Y-81433599D01*
X100392132Y-81413893D01*
X100379520Y-81392850D01*
X100369030Y-81370671D01*
X100360765Y-81347572D01*
X100354804Y-81323773D01*
X100351204Y-81299505D01*
X100350000Y-81275001D01*
X100350000Y-80624999D01*
X100351204Y-80600495D01*
X100354804Y-80576227D01*
X100360765Y-80552428D01*
X100369030Y-80529329D01*
X100379520Y-80507150D01*
X100392132Y-80486107D01*
X100406747Y-80466401D01*
X100423223Y-80448223D01*
X100441401Y-80431747D01*
X100461107Y-80417132D01*
X100482150Y-80404520D01*
X100504329Y-80394030D01*
X100527428Y-80385765D01*
X100551227Y-80379804D01*
X100575495Y-80376204D01*
X100599999Y-80375000D01*
X101500001Y-80375000D01*
X101524505Y-80376204D01*
X101524505Y-80376204D01*
G37*
D11*
X101050000Y-80950000D03*
D10*
G36*
X101524505Y-82426204D02*
G01*
X101548773Y-82429804D01*
X101572572Y-82435765D01*
X101595671Y-82444030D01*
X101617850Y-82454520D01*
X101638893Y-82467132D01*
X101658599Y-82481747D01*
X101676777Y-82498223D01*
X101693253Y-82516401D01*
X101707868Y-82536107D01*
X101720480Y-82557150D01*
X101730970Y-82579329D01*
X101739235Y-82602428D01*
X101745196Y-82626227D01*
X101748796Y-82650495D01*
X101750000Y-82674999D01*
X101750000Y-83325001D01*
X101748796Y-83349505D01*
X101745196Y-83373773D01*
X101739235Y-83397572D01*
X101730970Y-83420671D01*
X101720480Y-83442850D01*
X101707868Y-83463893D01*
X101693253Y-83483599D01*
X101676777Y-83501777D01*
X101658599Y-83518253D01*
X101638893Y-83532868D01*
X101617850Y-83545480D01*
X101595671Y-83555970D01*
X101572572Y-83564235D01*
X101548773Y-83570196D01*
X101524505Y-83573796D01*
X101500001Y-83575000D01*
X100599999Y-83575000D01*
X100575495Y-83573796D01*
X100551227Y-83570196D01*
X100527428Y-83564235D01*
X100504329Y-83555970D01*
X100482150Y-83545480D01*
X100461107Y-83532868D01*
X100441401Y-83518253D01*
X100423223Y-83501777D01*
X100406747Y-83483599D01*
X100392132Y-83463893D01*
X100379520Y-83442850D01*
X100369030Y-83420671D01*
X100360765Y-83397572D01*
X100354804Y-83373773D01*
X100351204Y-83349505D01*
X100350000Y-83325001D01*
X100350000Y-82674999D01*
X100351204Y-82650495D01*
X100354804Y-82626227D01*
X100360765Y-82602428D01*
X100369030Y-82579329D01*
X100379520Y-82557150D01*
X100392132Y-82536107D01*
X100406747Y-82516401D01*
X100423223Y-82498223D01*
X100441401Y-82481747D01*
X100461107Y-82467132D01*
X100482150Y-82454520D01*
X100504329Y-82444030D01*
X100527428Y-82435765D01*
X100551227Y-82429804D01*
X100575495Y-82426204D01*
X100599999Y-82425000D01*
X101500001Y-82425000D01*
X101524505Y-82426204D01*
X101524505Y-82426204D01*
G37*
D11*
X101050000Y-83000000D03*
D10*
G36*
X106399505Y-106801204D02*
G01*
X106423773Y-106804804D01*
X106447572Y-106810765D01*
X106470671Y-106819030D01*
X106492850Y-106829520D01*
X106513893Y-106842132D01*
X106533599Y-106856747D01*
X106551777Y-106873223D01*
X106568253Y-106891401D01*
X106582868Y-106911107D01*
X106595480Y-106932150D01*
X106605970Y-106954329D01*
X106614235Y-106977428D01*
X106620196Y-107001227D01*
X106623796Y-107025495D01*
X106625000Y-107049999D01*
X106625000Y-107950001D01*
X106623796Y-107974505D01*
X106620196Y-107998773D01*
X106614235Y-108022572D01*
X106605970Y-108045671D01*
X106595480Y-108067850D01*
X106582868Y-108088893D01*
X106568253Y-108108599D01*
X106551777Y-108126777D01*
X106533599Y-108143253D01*
X106513893Y-108157868D01*
X106492850Y-108170480D01*
X106470671Y-108180970D01*
X106447572Y-108189235D01*
X106423773Y-108195196D01*
X106399505Y-108198796D01*
X106375001Y-108200000D01*
X105724999Y-108200000D01*
X105700495Y-108198796D01*
X105676227Y-108195196D01*
X105652428Y-108189235D01*
X105629329Y-108180970D01*
X105607150Y-108170480D01*
X105586107Y-108157868D01*
X105566401Y-108143253D01*
X105548223Y-108126777D01*
X105531747Y-108108599D01*
X105517132Y-108088893D01*
X105504520Y-108067850D01*
X105494030Y-108045671D01*
X105485765Y-108022572D01*
X105479804Y-107998773D01*
X105476204Y-107974505D01*
X105475000Y-107950001D01*
X105475000Y-107049999D01*
X105476204Y-107025495D01*
X105479804Y-107001227D01*
X105485765Y-106977428D01*
X105494030Y-106954329D01*
X105504520Y-106932150D01*
X105517132Y-106911107D01*
X105531747Y-106891401D01*
X105548223Y-106873223D01*
X105566401Y-106856747D01*
X105586107Y-106842132D01*
X105607150Y-106829520D01*
X105629329Y-106819030D01*
X105652428Y-106810765D01*
X105676227Y-106804804D01*
X105700495Y-106801204D01*
X105724999Y-106800000D01*
X106375001Y-106800000D01*
X106399505Y-106801204D01*
X106399505Y-106801204D01*
G37*
D11*
X106050000Y-107500000D03*
D10*
G36*
X104349505Y-106801204D02*
G01*
X104373773Y-106804804D01*
X104397572Y-106810765D01*
X104420671Y-106819030D01*
X104442850Y-106829520D01*
X104463893Y-106842132D01*
X104483599Y-106856747D01*
X104501777Y-106873223D01*
X104518253Y-106891401D01*
X104532868Y-106911107D01*
X104545480Y-106932150D01*
X104555970Y-106954329D01*
X104564235Y-106977428D01*
X104570196Y-107001227D01*
X104573796Y-107025495D01*
X104575000Y-107049999D01*
X104575000Y-107950001D01*
X104573796Y-107974505D01*
X104570196Y-107998773D01*
X104564235Y-108022572D01*
X104555970Y-108045671D01*
X104545480Y-108067850D01*
X104532868Y-108088893D01*
X104518253Y-108108599D01*
X104501777Y-108126777D01*
X104483599Y-108143253D01*
X104463893Y-108157868D01*
X104442850Y-108170480D01*
X104420671Y-108180970D01*
X104397572Y-108189235D01*
X104373773Y-108195196D01*
X104349505Y-108198796D01*
X104325001Y-108200000D01*
X103674999Y-108200000D01*
X103650495Y-108198796D01*
X103626227Y-108195196D01*
X103602428Y-108189235D01*
X103579329Y-108180970D01*
X103557150Y-108170480D01*
X103536107Y-108157868D01*
X103516401Y-108143253D01*
X103498223Y-108126777D01*
X103481747Y-108108599D01*
X103467132Y-108088893D01*
X103454520Y-108067850D01*
X103444030Y-108045671D01*
X103435765Y-108022572D01*
X103429804Y-107998773D01*
X103426204Y-107974505D01*
X103425000Y-107950001D01*
X103425000Y-107049999D01*
X103426204Y-107025495D01*
X103429804Y-107001227D01*
X103435765Y-106977428D01*
X103444030Y-106954329D01*
X103454520Y-106932150D01*
X103467132Y-106911107D01*
X103481747Y-106891401D01*
X103498223Y-106873223D01*
X103516401Y-106856747D01*
X103536107Y-106842132D01*
X103557150Y-106829520D01*
X103579329Y-106819030D01*
X103602428Y-106810765D01*
X103626227Y-106804804D01*
X103650495Y-106801204D01*
X103674999Y-106800000D01*
X104325001Y-106800000D01*
X104349505Y-106801204D01*
X104349505Y-106801204D01*
G37*
D11*
X104000000Y-107500000D03*
D10*
G36*
X106449505Y-90301204D02*
G01*
X106473773Y-90304804D01*
X106497572Y-90310765D01*
X106520671Y-90319030D01*
X106542850Y-90329520D01*
X106563893Y-90342132D01*
X106583599Y-90356747D01*
X106601777Y-90373223D01*
X106618253Y-90391401D01*
X106632868Y-90411107D01*
X106645480Y-90432150D01*
X106655970Y-90454329D01*
X106664235Y-90477428D01*
X106670196Y-90501227D01*
X106673796Y-90525495D01*
X106675000Y-90549999D01*
X106675000Y-91450001D01*
X106673796Y-91474505D01*
X106670196Y-91498773D01*
X106664235Y-91522572D01*
X106655970Y-91545671D01*
X106645480Y-91567850D01*
X106632868Y-91588893D01*
X106618253Y-91608599D01*
X106601777Y-91626777D01*
X106583599Y-91643253D01*
X106563893Y-91657868D01*
X106542850Y-91670480D01*
X106520671Y-91680970D01*
X106497572Y-91689235D01*
X106473773Y-91695196D01*
X106449505Y-91698796D01*
X106425001Y-91700000D01*
X105774999Y-91700000D01*
X105750495Y-91698796D01*
X105726227Y-91695196D01*
X105702428Y-91689235D01*
X105679329Y-91680970D01*
X105657150Y-91670480D01*
X105636107Y-91657868D01*
X105616401Y-91643253D01*
X105598223Y-91626777D01*
X105581747Y-91608599D01*
X105567132Y-91588893D01*
X105554520Y-91567850D01*
X105544030Y-91545671D01*
X105535765Y-91522572D01*
X105529804Y-91498773D01*
X105526204Y-91474505D01*
X105525000Y-91450001D01*
X105525000Y-90549999D01*
X105526204Y-90525495D01*
X105529804Y-90501227D01*
X105535765Y-90477428D01*
X105544030Y-90454329D01*
X105554520Y-90432150D01*
X105567132Y-90411107D01*
X105581747Y-90391401D01*
X105598223Y-90373223D01*
X105616401Y-90356747D01*
X105636107Y-90342132D01*
X105657150Y-90329520D01*
X105679329Y-90319030D01*
X105702428Y-90310765D01*
X105726227Y-90304804D01*
X105750495Y-90301204D01*
X105774999Y-90300000D01*
X106425001Y-90300000D01*
X106449505Y-90301204D01*
X106449505Y-90301204D01*
G37*
D11*
X106100000Y-91000000D03*
D10*
G36*
X104399505Y-90301204D02*
G01*
X104423773Y-90304804D01*
X104447572Y-90310765D01*
X104470671Y-90319030D01*
X104492850Y-90329520D01*
X104513893Y-90342132D01*
X104533599Y-90356747D01*
X104551777Y-90373223D01*
X104568253Y-90391401D01*
X104582868Y-90411107D01*
X104595480Y-90432150D01*
X104605970Y-90454329D01*
X104614235Y-90477428D01*
X104620196Y-90501227D01*
X104623796Y-90525495D01*
X104625000Y-90549999D01*
X104625000Y-91450001D01*
X104623796Y-91474505D01*
X104620196Y-91498773D01*
X104614235Y-91522572D01*
X104605970Y-91545671D01*
X104595480Y-91567850D01*
X104582868Y-91588893D01*
X104568253Y-91608599D01*
X104551777Y-91626777D01*
X104533599Y-91643253D01*
X104513893Y-91657868D01*
X104492850Y-91670480D01*
X104470671Y-91680970D01*
X104447572Y-91689235D01*
X104423773Y-91695196D01*
X104399505Y-91698796D01*
X104375001Y-91700000D01*
X103724999Y-91700000D01*
X103700495Y-91698796D01*
X103676227Y-91695196D01*
X103652428Y-91689235D01*
X103629329Y-91680970D01*
X103607150Y-91670480D01*
X103586107Y-91657868D01*
X103566401Y-91643253D01*
X103548223Y-91626777D01*
X103531747Y-91608599D01*
X103517132Y-91588893D01*
X103504520Y-91567850D01*
X103494030Y-91545671D01*
X103485765Y-91522572D01*
X103479804Y-91498773D01*
X103476204Y-91474505D01*
X103475000Y-91450001D01*
X103475000Y-90549999D01*
X103476204Y-90525495D01*
X103479804Y-90501227D01*
X103485765Y-90477428D01*
X103494030Y-90454329D01*
X103504520Y-90432150D01*
X103517132Y-90411107D01*
X103531747Y-90391401D01*
X103548223Y-90373223D01*
X103566401Y-90356747D01*
X103586107Y-90342132D01*
X103607150Y-90329520D01*
X103629329Y-90319030D01*
X103652428Y-90310765D01*
X103676227Y-90304804D01*
X103700495Y-90301204D01*
X103724999Y-90300000D01*
X104375001Y-90300000D01*
X104399505Y-90301204D01*
X104399505Y-90301204D01*
G37*
D11*
X104050000Y-91000000D03*
D10*
G36*
X98874505Y-106801204D02*
G01*
X98898773Y-106804804D01*
X98922572Y-106810765D01*
X98945671Y-106819030D01*
X98967850Y-106829520D01*
X98988893Y-106842132D01*
X99008599Y-106856747D01*
X99026777Y-106873223D01*
X99043253Y-106891401D01*
X99057868Y-106911107D01*
X99070480Y-106932150D01*
X99080970Y-106954329D01*
X99089235Y-106977428D01*
X99095196Y-107001227D01*
X99098796Y-107025495D01*
X99100000Y-107049999D01*
X99100000Y-107950001D01*
X99098796Y-107974505D01*
X99095196Y-107998773D01*
X99089235Y-108022572D01*
X99080970Y-108045671D01*
X99070480Y-108067850D01*
X99057868Y-108088893D01*
X99043253Y-108108599D01*
X99026777Y-108126777D01*
X99008599Y-108143253D01*
X98988893Y-108157868D01*
X98967850Y-108170480D01*
X98945671Y-108180970D01*
X98922572Y-108189235D01*
X98898773Y-108195196D01*
X98874505Y-108198796D01*
X98850001Y-108200000D01*
X98199999Y-108200000D01*
X98175495Y-108198796D01*
X98151227Y-108195196D01*
X98127428Y-108189235D01*
X98104329Y-108180970D01*
X98082150Y-108170480D01*
X98061107Y-108157868D01*
X98041401Y-108143253D01*
X98023223Y-108126777D01*
X98006747Y-108108599D01*
X97992132Y-108088893D01*
X97979520Y-108067850D01*
X97969030Y-108045671D01*
X97960765Y-108022572D01*
X97954804Y-107998773D01*
X97951204Y-107974505D01*
X97950000Y-107950001D01*
X97950000Y-107049999D01*
X97951204Y-107025495D01*
X97954804Y-107001227D01*
X97960765Y-106977428D01*
X97969030Y-106954329D01*
X97979520Y-106932150D01*
X97992132Y-106911107D01*
X98006747Y-106891401D01*
X98023223Y-106873223D01*
X98041401Y-106856747D01*
X98061107Y-106842132D01*
X98082150Y-106829520D01*
X98104329Y-106819030D01*
X98127428Y-106810765D01*
X98151227Y-106804804D01*
X98175495Y-106801204D01*
X98199999Y-106800000D01*
X98850001Y-106800000D01*
X98874505Y-106801204D01*
X98874505Y-106801204D01*
G37*
D11*
X98525000Y-107500000D03*
D10*
G36*
X100924505Y-106801204D02*
G01*
X100948773Y-106804804D01*
X100972572Y-106810765D01*
X100995671Y-106819030D01*
X101017850Y-106829520D01*
X101038893Y-106842132D01*
X101058599Y-106856747D01*
X101076777Y-106873223D01*
X101093253Y-106891401D01*
X101107868Y-106911107D01*
X101120480Y-106932150D01*
X101130970Y-106954329D01*
X101139235Y-106977428D01*
X101145196Y-107001227D01*
X101148796Y-107025495D01*
X101150000Y-107049999D01*
X101150000Y-107950001D01*
X101148796Y-107974505D01*
X101145196Y-107998773D01*
X101139235Y-108022572D01*
X101130970Y-108045671D01*
X101120480Y-108067850D01*
X101107868Y-108088893D01*
X101093253Y-108108599D01*
X101076777Y-108126777D01*
X101058599Y-108143253D01*
X101038893Y-108157868D01*
X101017850Y-108170480D01*
X100995671Y-108180970D01*
X100972572Y-108189235D01*
X100948773Y-108195196D01*
X100924505Y-108198796D01*
X100900001Y-108200000D01*
X100249999Y-108200000D01*
X100225495Y-108198796D01*
X100201227Y-108195196D01*
X100177428Y-108189235D01*
X100154329Y-108180970D01*
X100132150Y-108170480D01*
X100111107Y-108157868D01*
X100091401Y-108143253D01*
X100073223Y-108126777D01*
X100056747Y-108108599D01*
X100042132Y-108088893D01*
X100029520Y-108067850D01*
X100019030Y-108045671D01*
X100010765Y-108022572D01*
X100004804Y-107998773D01*
X100001204Y-107974505D01*
X100000000Y-107950001D01*
X100000000Y-107049999D01*
X100001204Y-107025495D01*
X100004804Y-107001227D01*
X100010765Y-106977428D01*
X100019030Y-106954329D01*
X100029520Y-106932150D01*
X100042132Y-106911107D01*
X100056747Y-106891401D01*
X100073223Y-106873223D01*
X100091401Y-106856747D01*
X100111107Y-106842132D01*
X100132150Y-106829520D01*
X100154329Y-106819030D01*
X100177428Y-106810765D01*
X100201227Y-106804804D01*
X100225495Y-106801204D01*
X100249999Y-106800000D01*
X100900001Y-106800000D01*
X100924505Y-106801204D01*
X100924505Y-106801204D01*
G37*
D11*
X100575000Y-107500000D03*
D10*
G36*
X106399505Y-109801204D02*
G01*
X106423773Y-109804804D01*
X106447572Y-109810765D01*
X106470671Y-109819030D01*
X106492850Y-109829520D01*
X106513893Y-109842132D01*
X106533599Y-109856747D01*
X106551777Y-109873223D01*
X106568253Y-109891401D01*
X106582868Y-109911107D01*
X106595480Y-109932150D01*
X106605970Y-109954329D01*
X106614235Y-109977428D01*
X106620196Y-110001227D01*
X106623796Y-110025495D01*
X106625000Y-110049999D01*
X106625000Y-110950001D01*
X106623796Y-110974505D01*
X106620196Y-110998773D01*
X106614235Y-111022572D01*
X106605970Y-111045671D01*
X106595480Y-111067850D01*
X106582868Y-111088893D01*
X106568253Y-111108599D01*
X106551777Y-111126777D01*
X106533599Y-111143253D01*
X106513893Y-111157868D01*
X106492850Y-111170480D01*
X106470671Y-111180970D01*
X106447572Y-111189235D01*
X106423773Y-111195196D01*
X106399505Y-111198796D01*
X106375001Y-111200000D01*
X105724999Y-111200000D01*
X105700495Y-111198796D01*
X105676227Y-111195196D01*
X105652428Y-111189235D01*
X105629329Y-111180970D01*
X105607150Y-111170480D01*
X105586107Y-111157868D01*
X105566401Y-111143253D01*
X105548223Y-111126777D01*
X105531747Y-111108599D01*
X105517132Y-111088893D01*
X105504520Y-111067850D01*
X105494030Y-111045671D01*
X105485765Y-111022572D01*
X105479804Y-110998773D01*
X105476204Y-110974505D01*
X105475000Y-110950001D01*
X105475000Y-110049999D01*
X105476204Y-110025495D01*
X105479804Y-110001227D01*
X105485765Y-109977428D01*
X105494030Y-109954329D01*
X105504520Y-109932150D01*
X105517132Y-109911107D01*
X105531747Y-109891401D01*
X105548223Y-109873223D01*
X105566401Y-109856747D01*
X105586107Y-109842132D01*
X105607150Y-109829520D01*
X105629329Y-109819030D01*
X105652428Y-109810765D01*
X105676227Y-109804804D01*
X105700495Y-109801204D01*
X105724999Y-109800000D01*
X106375001Y-109800000D01*
X106399505Y-109801204D01*
X106399505Y-109801204D01*
G37*
D11*
X106050000Y-110500000D03*
D10*
G36*
X104349505Y-109801204D02*
G01*
X104373773Y-109804804D01*
X104397572Y-109810765D01*
X104420671Y-109819030D01*
X104442850Y-109829520D01*
X104463893Y-109842132D01*
X104483599Y-109856747D01*
X104501777Y-109873223D01*
X104518253Y-109891401D01*
X104532868Y-109911107D01*
X104545480Y-109932150D01*
X104555970Y-109954329D01*
X104564235Y-109977428D01*
X104570196Y-110001227D01*
X104573796Y-110025495D01*
X104575000Y-110049999D01*
X104575000Y-110950001D01*
X104573796Y-110974505D01*
X104570196Y-110998773D01*
X104564235Y-111022572D01*
X104555970Y-111045671D01*
X104545480Y-111067850D01*
X104532868Y-111088893D01*
X104518253Y-111108599D01*
X104501777Y-111126777D01*
X104483599Y-111143253D01*
X104463893Y-111157868D01*
X104442850Y-111170480D01*
X104420671Y-111180970D01*
X104397572Y-111189235D01*
X104373773Y-111195196D01*
X104349505Y-111198796D01*
X104325001Y-111200000D01*
X103674999Y-111200000D01*
X103650495Y-111198796D01*
X103626227Y-111195196D01*
X103602428Y-111189235D01*
X103579329Y-111180970D01*
X103557150Y-111170480D01*
X103536107Y-111157868D01*
X103516401Y-111143253D01*
X103498223Y-111126777D01*
X103481747Y-111108599D01*
X103467132Y-111088893D01*
X103454520Y-111067850D01*
X103444030Y-111045671D01*
X103435765Y-111022572D01*
X103429804Y-110998773D01*
X103426204Y-110974505D01*
X103425000Y-110950001D01*
X103425000Y-110049999D01*
X103426204Y-110025495D01*
X103429804Y-110001227D01*
X103435765Y-109977428D01*
X103444030Y-109954329D01*
X103454520Y-109932150D01*
X103467132Y-109911107D01*
X103481747Y-109891401D01*
X103498223Y-109873223D01*
X103516401Y-109856747D01*
X103536107Y-109842132D01*
X103557150Y-109829520D01*
X103579329Y-109819030D01*
X103602428Y-109810765D01*
X103626227Y-109804804D01*
X103650495Y-109801204D01*
X103674999Y-109800000D01*
X104325001Y-109800000D01*
X104349505Y-109801204D01*
X104349505Y-109801204D01*
G37*
D11*
X104000000Y-110500000D03*
D10*
G36*
X106449505Y-86801204D02*
G01*
X106473773Y-86804804D01*
X106497572Y-86810765D01*
X106520671Y-86819030D01*
X106542850Y-86829520D01*
X106563893Y-86842132D01*
X106583599Y-86856747D01*
X106601777Y-86873223D01*
X106618253Y-86891401D01*
X106632868Y-86911107D01*
X106645480Y-86932150D01*
X106655970Y-86954329D01*
X106664235Y-86977428D01*
X106670196Y-87001227D01*
X106673796Y-87025495D01*
X106675000Y-87049999D01*
X106675000Y-87950001D01*
X106673796Y-87974505D01*
X106670196Y-87998773D01*
X106664235Y-88022572D01*
X106655970Y-88045671D01*
X106645480Y-88067850D01*
X106632868Y-88088893D01*
X106618253Y-88108599D01*
X106601777Y-88126777D01*
X106583599Y-88143253D01*
X106563893Y-88157868D01*
X106542850Y-88170480D01*
X106520671Y-88180970D01*
X106497572Y-88189235D01*
X106473773Y-88195196D01*
X106449505Y-88198796D01*
X106425001Y-88200000D01*
X105774999Y-88200000D01*
X105750495Y-88198796D01*
X105726227Y-88195196D01*
X105702428Y-88189235D01*
X105679329Y-88180970D01*
X105657150Y-88170480D01*
X105636107Y-88157868D01*
X105616401Y-88143253D01*
X105598223Y-88126777D01*
X105581747Y-88108599D01*
X105567132Y-88088893D01*
X105554520Y-88067850D01*
X105544030Y-88045671D01*
X105535765Y-88022572D01*
X105529804Y-87998773D01*
X105526204Y-87974505D01*
X105525000Y-87950001D01*
X105525000Y-87049999D01*
X105526204Y-87025495D01*
X105529804Y-87001227D01*
X105535765Y-86977428D01*
X105544030Y-86954329D01*
X105554520Y-86932150D01*
X105567132Y-86911107D01*
X105581747Y-86891401D01*
X105598223Y-86873223D01*
X105616401Y-86856747D01*
X105636107Y-86842132D01*
X105657150Y-86829520D01*
X105679329Y-86819030D01*
X105702428Y-86810765D01*
X105726227Y-86804804D01*
X105750495Y-86801204D01*
X105774999Y-86800000D01*
X106425001Y-86800000D01*
X106449505Y-86801204D01*
X106449505Y-86801204D01*
G37*
D11*
X106100000Y-87500000D03*
D10*
G36*
X104399505Y-86801204D02*
G01*
X104423773Y-86804804D01*
X104447572Y-86810765D01*
X104470671Y-86819030D01*
X104492850Y-86829520D01*
X104513893Y-86842132D01*
X104533599Y-86856747D01*
X104551777Y-86873223D01*
X104568253Y-86891401D01*
X104582868Y-86911107D01*
X104595480Y-86932150D01*
X104605970Y-86954329D01*
X104614235Y-86977428D01*
X104620196Y-87001227D01*
X104623796Y-87025495D01*
X104625000Y-87049999D01*
X104625000Y-87950001D01*
X104623796Y-87974505D01*
X104620196Y-87998773D01*
X104614235Y-88022572D01*
X104605970Y-88045671D01*
X104595480Y-88067850D01*
X104582868Y-88088893D01*
X104568253Y-88108599D01*
X104551777Y-88126777D01*
X104533599Y-88143253D01*
X104513893Y-88157868D01*
X104492850Y-88170480D01*
X104470671Y-88180970D01*
X104447572Y-88189235D01*
X104423773Y-88195196D01*
X104399505Y-88198796D01*
X104375001Y-88200000D01*
X103724999Y-88200000D01*
X103700495Y-88198796D01*
X103676227Y-88195196D01*
X103652428Y-88189235D01*
X103629329Y-88180970D01*
X103607150Y-88170480D01*
X103586107Y-88157868D01*
X103566401Y-88143253D01*
X103548223Y-88126777D01*
X103531747Y-88108599D01*
X103517132Y-88088893D01*
X103504520Y-88067850D01*
X103494030Y-88045671D01*
X103485765Y-88022572D01*
X103479804Y-87998773D01*
X103476204Y-87974505D01*
X103475000Y-87950001D01*
X103475000Y-87049999D01*
X103476204Y-87025495D01*
X103479804Y-87001227D01*
X103485765Y-86977428D01*
X103494030Y-86954329D01*
X103504520Y-86932150D01*
X103517132Y-86911107D01*
X103531747Y-86891401D01*
X103548223Y-86873223D01*
X103566401Y-86856747D01*
X103586107Y-86842132D01*
X103607150Y-86829520D01*
X103629329Y-86819030D01*
X103652428Y-86810765D01*
X103676227Y-86804804D01*
X103700495Y-86801204D01*
X103724999Y-86800000D01*
X104375001Y-86800000D01*
X104399505Y-86801204D01*
X104399505Y-86801204D01*
G37*
D11*
X104050000Y-87500000D03*
D10*
G36*
X104349505Y-123801204D02*
G01*
X104373773Y-123804804D01*
X104397572Y-123810765D01*
X104420671Y-123819030D01*
X104442850Y-123829520D01*
X104463893Y-123842132D01*
X104483599Y-123856747D01*
X104501777Y-123873223D01*
X104518253Y-123891401D01*
X104532868Y-123911107D01*
X104545480Y-123932150D01*
X104555970Y-123954329D01*
X104564235Y-123977428D01*
X104570196Y-124001227D01*
X104573796Y-124025495D01*
X104575000Y-124049999D01*
X104575000Y-124950001D01*
X104573796Y-124974505D01*
X104570196Y-124998773D01*
X104564235Y-125022572D01*
X104555970Y-125045671D01*
X104545480Y-125067850D01*
X104532868Y-125088893D01*
X104518253Y-125108599D01*
X104501777Y-125126777D01*
X104483599Y-125143253D01*
X104463893Y-125157868D01*
X104442850Y-125170480D01*
X104420671Y-125180970D01*
X104397572Y-125189235D01*
X104373773Y-125195196D01*
X104349505Y-125198796D01*
X104325001Y-125200000D01*
X103674999Y-125200000D01*
X103650495Y-125198796D01*
X103626227Y-125195196D01*
X103602428Y-125189235D01*
X103579329Y-125180970D01*
X103557150Y-125170480D01*
X103536107Y-125157868D01*
X103516401Y-125143253D01*
X103498223Y-125126777D01*
X103481747Y-125108599D01*
X103467132Y-125088893D01*
X103454520Y-125067850D01*
X103444030Y-125045671D01*
X103435765Y-125022572D01*
X103429804Y-124998773D01*
X103426204Y-124974505D01*
X103425000Y-124950001D01*
X103425000Y-124049999D01*
X103426204Y-124025495D01*
X103429804Y-124001227D01*
X103435765Y-123977428D01*
X103444030Y-123954329D01*
X103454520Y-123932150D01*
X103467132Y-123911107D01*
X103481747Y-123891401D01*
X103498223Y-123873223D01*
X103516401Y-123856747D01*
X103536107Y-123842132D01*
X103557150Y-123829520D01*
X103579329Y-123819030D01*
X103602428Y-123810765D01*
X103626227Y-123804804D01*
X103650495Y-123801204D01*
X103674999Y-123800000D01*
X104325001Y-123800000D01*
X104349505Y-123801204D01*
X104349505Y-123801204D01*
G37*
D11*
X104000000Y-124500000D03*
D10*
G36*
X106399505Y-123801204D02*
G01*
X106423773Y-123804804D01*
X106447572Y-123810765D01*
X106470671Y-123819030D01*
X106492850Y-123829520D01*
X106513893Y-123842132D01*
X106533599Y-123856747D01*
X106551777Y-123873223D01*
X106568253Y-123891401D01*
X106582868Y-123911107D01*
X106595480Y-123932150D01*
X106605970Y-123954329D01*
X106614235Y-123977428D01*
X106620196Y-124001227D01*
X106623796Y-124025495D01*
X106625000Y-124049999D01*
X106625000Y-124950001D01*
X106623796Y-124974505D01*
X106620196Y-124998773D01*
X106614235Y-125022572D01*
X106605970Y-125045671D01*
X106595480Y-125067850D01*
X106582868Y-125088893D01*
X106568253Y-125108599D01*
X106551777Y-125126777D01*
X106533599Y-125143253D01*
X106513893Y-125157868D01*
X106492850Y-125170480D01*
X106470671Y-125180970D01*
X106447572Y-125189235D01*
X106423773Y-125195196D01*
X106399505Y-125198796D01*
X106375001Y-125200000D01*
X105724999Y-125200000D01*
X105700495Y-125198796D01*
X105676227Y-125195196D01*
X105652428Y-125189235D01*
X105629329Y-125180970D01*
X105607150Y-125170480D01*
X105586107Y-125157868D01*
X105566401Y-125143253D01*
X105548223Y-125126777D01*
X105531747Y-125108599D01*
X105517132Y-125088893D01*
X105504520Y-125067850D01*
X105494030Y-125045671D01*
X105485765Y-125022572D01*
X105479804Y-124998773D01*
X105476204Y-124974505D01*
X105475000Y-124950001D01*
X105475000Y-124049999D01*
X105476204Y-124025495D01*
X105479804Y-124001227D01*
X105485765Y-123977428D01*
X105494030Y-123954329D01*
X105504520Y-123932150D01*
X105517132Y-123911107D01*
X105531747Y-123891401D01*
X105548223Y-123873223D01*
X105566401Y-123856747D01*
X105586107Y-123842132D01*
X105607150Y-123829520D01*
X105629329Y-123819030D01*
X105652428Y-123810765D01*
X105676227Y-123804804D01*
X105700495Y-123801204D01*
X105724999Y-123800000D01*
X106375001Y-123800000D01*
X106399505Y-123801204D01*
X106399505Y-123801204D01*
G37*
D11*
X106050000Y-124500000D03*
D10*
G36*
X106399505Y-73801204D02*
G01*
X106423773Y-73804804D01*
X106447572Y-73810765D01*
X106470671Y-73819030D01*
X106492850Y-73829520D01*
X106513893Y-73842132D01*
X106533599Y-73856747D01*
X106551777Y-73873223D01*
X106568253Y-73891401D01*
X106582868Y-73911107D01*
X106595480Y-73932150D01*
X106605970Y-73954329D01*
X106614235Y-73977428D01*
X106620196Y-74001227D01*
X106623796Y-74025495D01*
X106625000Y-74049999D01*
X106625000Y-74950001D01*
X106623796Y-74974505D01*
X106620196Y-74998773D01*
X106614235Y-75022572D01*
X106605970Y-75045671D01*
X106595480Y-75067850D01*
X106582868Y-75088893D01*
X106568253Y-75108599D01*
X106551777Y-75126777D01*
X106533599Y-75143253D01*
X106513893Y-75157868D01*
X106492850Y-75170480D01*
X106470671Y-75180970D01*
X106447572Y-75189235D01*
X106423773Y-75195196D01*
X106399505Y-75198796D01*
X106375001Y-75200000D01*
X105724999Y-75200000D01*
X105700495Y-75198796D01*
X105676227Y-75195196D01*
X105652428Y-75189235D01*
X105629329Y-75180970D01*
X105607150Y-75170480D01*
X105586107Y-75157868D01*
X105566401Y-75143253D01*
X105548223Y-75126777D01*
X105531747Y-75108599D01*
X105517132Y-75088893D01*
X105504520Y-75067850D01*
X105494030Y-75045671D01*
X105485765Y-75022572D01*
X105479804Y-74998773D01*
X105476204Y-74974505D01*
X105475000Y-74950001D01*
X105475000Y-74049999D01*
X105476204Y-74025495D01*
X105479804Y-74001227D01*
X105485765Y-73977428D01*
X105494030Y-73954329D01*
X105504520Y-73932150D01*
X105517132Y-73911107D01*
X105531747Y-73891401D01*
X105548223Y-73873223D01*
X105566401Y-73856747D01*
X105586107Y-73842132D01*
X105607150Y-73829520D01*
X105629329Y-73819030D01*
X105652428Y-73810765D01*
X105676227Y-73804804D01*
X105700495Y-73801204D01*
X105724999Y-73800000D01*
X106375001Y-73800000D01*
X106399505Y-73801204D01*
X106399505Y-73801204D01*
G37*
D11*
X106050000Y-74500000D03*
D10*
G36*
X104349505Y-73801204D02*
G01*
X104373773Y-73804804D01*
X104397572Y-73810765D01*
X104420671Y-73819030D01*
X104442850Y-73829520D01*
X104463893Y-73842132D01*
X104483599Y-73856747D01*
X104501777Y-73873223D01*
X104518253Y-73891401D01*
X104532868Y-73911107D01*
X104545480Y-73932150D01*
X104555970Y-73954329D01*
X104564235Y-73977428D01*
X104570196Y-74001227D01*
X104573796Y-74025495D01*
X104575000Y-74049999D01*
X104575000Y-74950001D01*
X104573796Y-74974505D01*
X104570196Y-74998773D01*
X104564235Y-75022572D01*
X104555970Y-75045671D01*
X104545480Y-75067850D01*
X104532868Y-75088893D01*
X104518253Y-75108599D01*
X104501777Y-75126777D01*
X104483599Y-75143253D01*
X104463893Y-75157868D01*
X104442850Y-75170480D01*
X104420671Y-75180970D01*
X104397572Y-75189235D01*
X104373773Y-75195196D01*
X104349505Y-75198796D01*
X104325001Y-75200000D01*
X103674999Y-75200000D01*
X103650495Y-75198796D01*
X103626227Y-75195196D01*
X103602428Y-75189235D01*
X103579329Y-75180970D01*
X103557150Y-75170480D01*
X103536107Y-75157868D01*
X103516401Y-75143253D01*
X103498223Y-75126777D01*
X103481747Y-75108599D01*
X103467132Y-75088893D01*
X103454520Y-75067850D01*
X103444030Y-75045671D01*
X103435765Y-75022572D01*
X103429804Y-74998773D01*
X103426204Y-74974505D01*
X103425000Y-74950001D01*
X103425000Y-74049999D01*
X103426204Y-74025495D01*
X103429804Y-74001227D01*
X103435765Y-73977428D01*
X103444030Y-73954329D01*
X103454520Y-73932150D01*
X103467132Y-73911107D01*
X103481747Y-73891401D01*
X103498223Y-73873223D01*
X103516401Y-73856747D01*
X103536107Y-73842132D01*
X103557150Y-73829520D01*
X103579329Y-73819030D01*
X103602428Y-73810765D01*
X103626227Y-73804804D01*
X103650495Y-73801204D01*
X103674999Y-73800000D01*
X104325001Y-73800000D01*
X104349505Y-73801204D01*
X104349505Y-73801204D01*
G37*
D11*
X104000000Y-74500000D03*
D10*
G36*
X90024505Y-104876204D02*
G01*
X90048773Y-104879804D01*
X90072572Y-104885765D01*
X90095671Y-104894030D01*
X90117850Y-104904520D01*
X90138893Y-104917132D01*
X90158599Y-104931747D01*
X90176777Y-104948223D01*
X90193253Y-104966401D01*
X90207868Y-104986107D01*
X90220480Y-105007150D01*
X90230970Y-105029329D01*
X90239235Y-105052428D01*
X90245196Y-105076227D01*
X90248796Y-105100495D01*
X90250000Y-105124999D01*
X90250000Y-105775001D01*
X90248796Y-105799505D01*
X90245196Y-105823773D01*
X90239235Y-105847572D01*
X90230970Y-105870671D01*
X90220480Y-105892850D01*
X90207868Y-105913893D01*
X90193253Y-105933599D01*
X90176777Y-105951777D01*
X90158599Y-105968253D01*
X90138893Y-105982868D01*
X90117850Y-105995480D01*
X90095671Y-106005970D01*
X90072572Y-106014235D01*
X90048773Y-106020196D01*
X90024505Y-106023796D01*
X90000001Y-106025000D01*
X89099999Y-106025000D01*
X89075495Y-106023796D01*
X89051227Y-106020196D01*
X89027428Y-106014235D01*
X89004329Y-106005970D01*
X88982150Y-105995480D01*
X88961107Y-105982868D01*
X88941401Y-105968253D01*
X88923223Y-105951777D01*
X88906747Y-105933599D01*
X88892132Y-105913893D01*
X88879520Y-105892850D01*
X88869030Y-105870671D01*
X88860765Y-105847572D01*
X88854804Y-105823773D01*
X88851204Y-105799505D01*
X88850000Y-105775001D01*
X88850000Y-105124999D01*
X88851204Y-105100495D01*
X88854804Y-105076227D01*
X88860765Y-105052428D01*
X88869030Y-105029329D01*
X88879520Y-105007150D01*
X88892132Y-104986107D01*
X88906747Y-104966401D01*
X88923223Y-104948223D01*
X88941401Y-104931747D01*
X88961107Y-104917132D01*
X88982150Y-104904520D01*
X89004329Y-104894030D01*
X89027428Y-104885765D01*
X89051227Y-104879804D01*
X89075495Y-104876204D01*
X89099999Y-104875000D01*
X90000001Y-104875000D01*
X90024505Y-104876204D01*
X90024505Y-104876204D01*
G37*
D11*
X89550000Y-105450000D03*
D10*
G36*
X90024505Y-106926204D02*
G01*
X90048773Y-106929804D01*
X90072572Y-106935765D01*
X90095671Y-106944030D01*
X90117850Y-106954520D01*
X90138893Y-106967132D01*
X90158599Y-106981747D01*
X90176777Y-106998223D01*
X90193253Y-107016401D01*
X90207868Y-107036107D01*
X90220480Y-107057150D01*
X90230970Y-107079329D01*
X90239235Y-107102428D01*
X90245196Y-107126227D01*
X90248796Y-107150495D01*
X90250000Y-107174999D01*
X90250000Y-107825001D01*
X90248796Y-107849505D01*
X90245196Y-107873773D01*
X90239235Y-107897572D01*
X90230970Y-107920671D01*
X90220480Y-107942850D01*
X90207868Y-107963893D01*
X90193253Y-107983599D01*
X90176777Y-108001777D01*
X90158599Y-108018253D01*
X90138893Y-108032868D01*
X90117850Y-108045480D01*
X90095671Y-108055970D01*
X90072572Y-108064235D01*
X90048773Y-108070196D01*
X90024505Y-108073796D01*
X90000001Y-108075000D01*
X89099999Y-108075000D01*
X89075495Y-108073796D01*
X89051227Y-108070196D01*
X89027428Y-108064235D01*
X89004329Y-108055970D01*
X88982150Y-108045480D01*
X88961107Y-108032868D01*
X88941401Y-108018253D01*
X88923223Y-108001777D01*
X88906747Y-107983599D01*
X88892132Y-107963893D01*
X88879520Y-107942850D01*
X88869030Y-107920671D01*
X88860765Y-107897572D01*
X88854804Y-107873773D01*
X88851204Y-107849505D01*
X88850000Y-107825001D01*
X88850000Y-107174999D01*
X88851204Y-107150495D01*
X88854804Y-107126227D01*
X88860765Y-107102428D01*
X88869030Y-107079329D01*
X88879520Y-107057150D01*
X88892132Y-107036107D01*
X88906747Y-107016401D01*
X88923223Y-106998223D01*
X88941401Y-106981747D01*
X88961107Y-106967132D01*
X88982150Y-106954520D01*
X89004329Y-106944030D01*
X89027428Y-106935765D01*
X89051227Y-106929804D01*
X89075495Y-106926204D01*
X89099999Y-106925000D01*
X90000001Y-106925000D01*
X90024505Y-106926204D01*
X90024505Y-106926204D01*
G37*
D11*
X89550000Y-107500000D03*
D10*
G36*
X99524505Y-94426204D02*
G01*
X99548773Y-94429804D01*
X99572572Y-94435765D01*
X99595671Y-94444030D01*
X99617850Y-94454520D01*
X99638893Y-94467132D01*
X99658599Y-94481747D01*
X99676777Y-94498223D01*
X99693253Y-94516401D01*
X99707868Y-94536107D01*
X99720480Y-94557150D01*
X99730970Y-94579329D01*
X99739235Y-94602428D01*
X99745196Y-94626227D01*
X99748796Y-94650495D01*
X99750000Y-94674999D01*
X99750000Y-95325001D01*
X99748796Y-95349505D01*
X99745196Y-95373773D01*
X99739235Y-95397572D01*
X99730970Y-95420671D01*
X99720480Y-95442850D01*
X99707868Y-95463893D01*
X99693253Y-95483599D01*
X99676777Y-95501777D01*
X99658599Y-95518253D01*
X99638893Y-95532868D01*
X99617850Y-95545480D01*
X99595671Y-95555970D01*
X99572572Y-95564235D01*
X99548773Y-95570196D01*
X99524505Y-95573796D01*
X99500001Y-95575000D01*
X98599999Y-95575000D01*
X98575495Y-95573796D01*
X98551227Y-95570196D01*
X98527428Y-95564235D01*
X98504329Y-95555970D01*
X98482150Y-95545480D01*
X98461107Y-95532868D01*
X98441401Y-95518253D01*
X98423223Y-95501777D01*
X98406747Y-95483599D01*
X98392132Y-95463893D01*
X98379520Y-95442850D01*
X98369030Y-95420671D01*
X98360765Y-95397572D01*
X98354804Y-95373773D01*
X98351204Y-95349505D01*
X98350000Y-95325001D01*
X98350000Y-94674999D01*
X98351204Y-94650495D01*
X98354804Y-94626227D01*
X98360765Y-94602428D01*
X98369030Y-94579329D01*
X98379520Y-94557150D01*
X98392132Y-94536107D01*
X98406747Y-94516401D01*
X98423223Y-94498223D01*
X98441401Y-94481747D01*
X98461107Y-94467132D01*
X98482150Y-94454520D01*
X98504329Y-94444030D01*
X98527428Y-94435765D01*
X98551227Y-94429804D01*
X98575495Y-94426204D01*
X98599999Y-94425000D01*
X99500001Y-94425000D01*
X99524505Y-94426204D01*
X99524505Y-94426204D01*
G37*
D11*
X99050000Y-95000000D03*
D10*
G36*
X99524505Y-92376204D02*
G01*
X99548773Y-92379804D01*
X99572572Y-92385765D01*
X99595671Y-92394030D01*
X99617850Y-92404520D01*
X99638893Y-92417132D01*
X99658599Y-92431747D01*
X99676777Y-92448223D01*
X99693253Y-92466401D01*
X99707868Y-92486107D01*
X99720480Y-92507150D01*
X99730970Y-92529329D01*
X99739235Y-92552428D01*
X99745196Y-92576227D01*
X99748796Y-92600495D01*
X99750000Y-92624999D01*
X99750000Y-93275001D01*
X99748796Y-93299505D01*
X99745196Y-93323773D01*
X99739235Y-93347572D01*
X99730970Y-93370671D01*
X99720480Y-93392850D01*
X99707868Y-93413893D01*
X99693253Y-93433599D01*
X99676777Y-93451777D01*
X99658599Y-93468253D01*
X99638893Y-93482868D01*
X99617850Y-93495480D01*
X99595671Y-93505970D01*
X99572572Y-93514235D01*
X99548773Y-93520196D01*
X99524505Y-93523796D01*
X99500001Y-93525000D01*
X98599999Y-93525000D01*
X98575495Y-93523796D01*
X98551227Y-93520196D01*
X98527428Y-93514235D01*
X98504329Y-93505970D01*
X98482150Y-93495480D01*
X98461107Y-93482868D01*
X98441401Y-93468253D01*
X98423223Y-93451777D01*
X98406747Y-93433599D01*
X98392132Y-93413893D01*
X98379520Y-93392850D01*
X98369030Y-93370671D01*
X98360765Y-93347572D01*
X98354804Y-93323773D01*
X98351204Y-93299505D01*
X98350000Y-93275001D01*
X98350000Y-92624999D01*
X98351204Y-92600495D01*
X98354804Y-92576227D01*
X98360765Y-92552428D01*
X98369030Y-92529329D01*
X98379520Y-92507150D01*
X98392132Y-92486107D01*
X98406747Y-92466401D01*
X98423223Y-92448223D01*
X98441401Y-92431747D01*
X98461107Y-92417132D01*
X98482150Y-92404520D01*
X98504329Y-92394030D01*
X98527428Y-92385765D01*
X98551227Y-92379804D01*
X98575495Y-92376204D01*
X98599999Y-92375000D01*
X99500001Y-92375000D01*
X99524505Y-92376204D01*
X99524505Y-92376204D01*
G37*
D11*
X99050000Y-92950000D03*
D10*
G36*
X100899505Y-110301204D02*
G01*
X100923773Y-110304804D01*
X100947572Y-110310765D01*
X100970671Y-110319030D01*
X100992850Y-110329520D01*
X101013893Y-110342132D01*
X101033599Y-110356747D01*
X101051777Y-110373223D01*
X101068253Y-110391401D01*
X101082868Y-110411107D01*
X101095480Y-110432150D01*
X101105970Y-110454329D01*
X101114235Y-110477428D01*
X101120196Y-110501227D01*
X101123796Y-110525495D01*
X101125000Y-110549999D01*
X101125000Y-111450001D01*
X101123796Y-111474505D01*
X101120196Y-111498773D01*
X101114235Y-111522572D01*
X101105970Y-111545671D01*
X101095480Y-111567850D01*
X101082868Y-111588893D01*
X101068253Y-111608599D01*
X101051777Y-111626777D01*
X101033599Y-111643253D01*
X101013893Y-111657868D01*
X100992850Y-111670480D01*
X100970671Y-111680970D01*
X100947572Y-111689235D01*
X100923773Y-111695196D01*
X100899505Y-111698796D01*
X100875001Y-111700000D01*
X100224999Y-111700000D01*
X100200495Y-111698796D01*
X100176227Y-111695196D01*
X100152428Y-111689235D01*
X100129329Y-111680970D01*
X100107150Y-111670480D01*
X100086107Y-111657868D01*
X100066401Y-111643253D01*
X100048223Y-111626777D01*
X100031747Y-111608599D01*
X100017132Y-111588893D01*
X100004520Y-111567850D01*
X99994030Y-111545671D01*
X99985765Y-111522572D01*
X99979804Y-111498773D01*
X99976204Y-111474505D01*
X99975000Y-111450001D01*
X99975000Y-110549999D01*
X99976204Y-110525495D01*
X99979804Y-110501227D01*
X99985765Y-110477428D01*
X99994030Y-110454329D01*
X100004520Y-110432150D01*
X100017132Y-110411107D01*
X100031747Y-110391401D01*
X100048223Y-110373223D01*
X100066401Y-110356747D01*
X100086107Y-110342132D01*
X100107150Y-110329520D01*
X100129329Y-110319030D01*
X100152428Y-110310765D01*
X100176227Y-110304804D01*
X100200495Y-110301204D01*
X100224999Y-110300000D01*
X100875001Y-110300000D01*
X100899505Y-110301204D01*
X100899505Y-110301204D01*
G37*
D11*
X100550000Y-111000000D03*
D10*
G36*
X98849505Y-110301204D02*
G01*
X98873773Y-110304804D01*
X98897572Y-110310765D01*
X98920671Y-110319030D01*
X98942850Y-110329520D01*
X98963893Y-110342132D01*
X98983599Y-110356747D01*
X99001777Y-110373223D01*
X99018253Y-110391401D01*
X99032868Y-110411107D01*
X99045480Y-110432150D01*
X99055970Y-110454329D01*
X99064235Y-110477428D01*
X99070196Y-110501227D01*
X99073796Y-110525495D01*
X99075000Y-110549999D01*
X99075000Y-111450001D01*
X99073796Y-111474505D01*
X99070196Y-111498773D01*
X99064235Y-111522572D01*
X99055970Y-111545671D01*
X99045480Y-111567850D01*
X99032868Y-111588893D01*
X99018253Y-111608599D01*
X99001777Y-111626777D01*
X98983599Y-111643253D01*
X98963893Y-111657868D01*
X98942850Y-111670480D01*
X98920671Y-111680970D01*
X98897572Y-111689235D01*
X98873773Y-111695196D01*
X98849505Y-111698796D01*
X98825001Y-111700000D01*
X98174999Y-111700000D01*
X98150495Y-111698796D01*
X98126227Y-111695196D01*
X98102428Y-111689235D01*
X98079329Y-111680970D01*
X98057150Y-111670480D01*
X98036107Y-111657868D01*
X98016401Y-111643253D01*
X97998223Y-111626777D01*
X97981747Y-111608599D01*
X97967132Y-111588893D01*
X97954520Y-111567850D01*
X97944030Y-111545671D01*
X97935765Y-111522572D01*
X97929804Y-111498773D01*
X97926204Y-111474505D01*
X97925000Y-111450001D01*
X97925000Y-110549999D01*
X97926204Y-110525495D01*
X97929804Y-110501227D01*
X97935765Y-110477428D01*
X97944030Y-110454329D01*
X97954520Y-110432150D01*
X97967132Y-110411107D01*
X97981747Y-110391401D01*
X97998223Y-110373223D01*
X98016401Y-110356747D01*
X98036107Y-110342132D01*
X98057150Y-110329520D01*
X98079329Y-110319030D01*
X98102428Y-110310765D01*
X98126227Y-110304804D01*
X98150495Y-110301204D01*
X98174999Y-110300000D01*
X98825001Y-110300000D01*
X98849505Y-110301204D01*
X98849505Y-110301204D01*
G37*
D11*
X98500000Y-111000000D03*
D12*
X93400000Y-92875000D03*
X95700000Y-92875000D03*
X95700000Y-91125000D03*
X93400000Y-91125000D03*
D10*
G36*
X104349505Y-113301204D02*
G01*
X104373773Y-113304804D01*
X104397572Y-113310765D01*
X104420671Y-113319030D01*
X104442850Y-113329520D01*
X104463893Y-113342132D01*
X104483599Y-113356747D01*
X104501777Y-113373223D01*
X104518253Y-113391401D01*
X104532868Y-113411107D01*
X104545480Y-113432150D01*
X104555970Y-113454329D01*
X104564235Y-113477428D01*
X104570196Y-113501227D01*
X104573796Y-113525495D01*
X104575000Y-113549999D01*
X104575000Y-114450001D01*
X104573796Y-114474505D01*
X104570196Y-114498773D01*
X104564235Y-114522572D01*
X104555970Y-114545671D01*
X104545480Y-114567850D01*
X104532868Y-114588893D01*
X104518253Y-114608599D01*
X104501777Y-114626777D01*
X104483599Y-114643253D01*
X104463893Y-114657868D01*
X104442850Y-114670480D01*
X104420671Y-114680970D01*
X104397572Y-114689235D01*
X104373773Y-114695196D01*
X104349505Y-114698796D01*
X104325001Y-114700000D01*
X103674999Y-114700000D01*
X103650495Y-114698796D01*
X103626227Y-114695196D01*
X103602428Y-114689235D01*
X103579329Y-114680970D01*
X103557150Y-114670480D01*
X103536107Y-114657868D01*
X103516401Y-114643253D01*
X103498223Y-114626777D01*
X103481747Y-114608599D01*
X103467132Y-114588893D01*
X103454520Y-114567850D01*
X103444030Y-114545671D01*
X103435765Y-114522572D01*
X103429804Y-114498773D01*
X103426204Y-114474505D01*
X103425000Y-114450001D01*
X103425000Y-113549999D01*
X103426204Y-113525495D01*
X103429804Y-113501227D01*
X103435765Y-113477428D01*
X103444030Y-113454329D01*
X103454520Y-113432150D01*
X103467132Y-113411107D01*
X103481747Y-113391401D01*
X103498223Y-113373223D01*
X103516401Y-113356747D01*
X103536107Y-113342132D01*
X103557150Y-113329520D01*
X103579329Y-113319030D01*
X103602428Y-113310765D01*
X103626227Y-113304804D01*
X103650495Y-113301204D01*
X103674999Y-113300000D01*
X104325001Y-113300000D01*
X104349505Y-113301204D01*
X104349505Y-113301204D01*
G37*
D11*
X104000000Y-114000000D03*
D10*
G36*
X106399505Y-113301204D02*
G01*
X106423773Y-113304804D01*
X106447572Y-113310765D01*
X106470671Y-113319030D01*
X106492850Y-113329520D01*
X106513893Y-113342132D01*
X106533599Y-113356747D01*
X106551777Y-113373223D01*
X106568253Y-113391401D01*
X106582868Y-113411107D01*
X106595480Y-113432150D01*
X106605970Y-113454329D01*
X106614235Y-113477428D01*
X106620196Y-113501227D01*
X106623796Y-113525495D01*
X106625000Y-113549999D01*
X106625000Y-114450001D01*
X106623796Y-114474505D01*
X106620196Y-114498773D01*
X106614235Y-114522572D01*
X106605970Y-114545671D01*
X106595480Y-114567850D01*
X106582868Y-114588893D01*
X106568253Y-114608599D01*
X106551777Y-114626777D01*
X106533599Y-114643253D01*
X106513893Y-114657868D01*
X106492850Y-114670480D01*
X106470671Y-114680970D01*
X106447572Y-114689235D01*
X106423773Y-114695196D01*
X106399505Y-114698796D01*
X106375001Y-114700000D01*
X105724999Y-114700000D01*
X105700495Y-114698796D01*
X105676227Y-114695196D01*
X105652428Y-114689235D01*
X105629329Y-114680970D01*
X105607150Y-114670480D01*
X105586107Y-114657868D01*
X105566401Y-114643253D01*
X105548223Y-114626777D01*
X105531747Y-114608599D01*
X105517132Y-114588893D01*
X105504520Y-114567850D01*
X105494030Y-114545671D01*
X105485765Y-114522572D01*
X105479804Y-114498773D01*
X105476204Y-114474505D01*
X105475000Y-114450001D01*
X105475000Y-113549999D01*
X105476204Y-113525495D01*
X105479804Y-113501227D01*
X105485765Y-113477428D01*
X105494030Y-113454329D01*
X105504520Y-113432150D01*
X105517132Y-113411107D01*
X105531747Y-113391401D01*
X105548223Y-113373223D01*
X105566401Y-113356747D01*
X105586107Y-113342132D01*
X105607150Y-113329520D01*
X105629329Y-113319030D01*
X105652428Y-113310765D01*
X105676227Y-113304804D01*
X105700495Y-113301204D01*
X105724999Y-113300000D01*
X106375001Y-113300000D01*
X106399505Y-113301204D01*
X106399505Y-113301204D01*
G37*
D11*
X106050000Y-114000000D03*
D10*
G36*
X106424505Y-83801204D02*
G01*
X106448773Y-83804804D01*
X106472572Y-83810765D01*
X106495671Y-83819030D01*
X106517850Y-83829520D01*
X106538893Y-83842132D01*
X106558599Y-83856747D01*
X106576777Y-83873223D01*
X106593253Y-83891401D01*
X106607868Y-83911107D01*
X106620480Y-83932150D01*
X106630970Y-83954329D01*
X106639235Y-83977428D01*
X106645196Y-84001227D01*
X106648796Y-84025495D01*
X106650000Y-84049999D01*
X106650000Y-84950001D01*
X106648796Y-84974505D01*
X106645196Y-84998773D01*
X106639235Y-85022572D01*
X106630970Y-85045671D01*
X106620480Y-85067850D01*
X106607868Y-85088893D01*
X106593253Y-85108599D01*
X106576777Y-85126777D01*
X106558599Y-85143253D01*
X106538893Y-85157868D01*
X106517850Y-85170480D01*
X106495671Y-85180970D01*
X106472572Y-85189235D01*
X106448773Y-85195196D01*
X106424505Y-85198796D01*
X106400001Y-85200000D01*
X105749999Y-85200000D01*
X105725495Y-85198796D01*
X105701227Y-85195196D01*
X105677428Y-85189235D01*
X105654329Y-85180970D01*
X105632150Y-85170480D01*
X105611107Y-85157868D01*
X105591401Y-85143253D01*
X105573223Y-85126777D01*
X105556747Y-85108599D01*
X105542132Y-85088893D01*
X105529520Y-85067850D01*
X105519030Y-85045671D01*
X105510765Y-85022572D01*
X105504804Y-84998773D01*
X105501204Y-84974505D01*
X105500000Y-84950001D01*
X105500000Y-84049999D01*
X105501204Y-84025495D01*
X105504804Y-84001227D01*
X105510765Y-83977428D01*
X105519030Y-83954329D01*
X105529520Y-83932150D01*
X105542132Y-83911107D01*
X105556747Y-83891401D01*
X105573223Y-83873223D01*
X105591401Y-83856747D01*
X105611107Y-83842132D01*
X105632150Y-83829520D01*
X105654329Y-83819030D01*
X105677428Y-83810765D01*
X105701227Y-83804804D01*
X105725495Y-83801204D01*
X105749999Y-83800000D01*
X106400001Y-83800000D01*
X106424505Y-83801204D01*
X106424505Y-83801204D01*
G37*
D11*
X106075000Y-84500000D03*
D10*
G36*
X104374505Y-83801204D02*
G01*
X104398773Y-83804804D01*
X104422572Y-83810765D01*
X104445671Y-83819030D01*
X104467850Y-83829520D01*
X104488893Y-83842132D01*
X104508599Y-83856747D01*
X104526777Y-83873223D01*
X104543253Y-83891401D01*
X104557868Y-83911107D01*
X104570480Y-83932150D01*
X104580970Y-83954329D01*
X104589235Y-83977428D01*
X104595196Y-84001227D01*
X104598796Y-84025495D01*
X104600000Y-84049999D01*
X104600000Y-84950001D01*
X104598796Y-84974505D01*
X104595196Y-84998773D01*
X104589235Y-85022572D01*
X104580970Y-85045671D01*
X104570480Y-85067850D01*
X104557868Y-85088893D01*
X104543253Y-85108599D01*
X104526777Y-85126777D01*
X104508599Y-85143253D01*
X104488893Y-85157868D01*
X104467850Y-85170480D01*
X104445671Y-85180970D01*
X104422572Y-85189235D01*
X104398773Y-85195196D01*
X104374505Y-85198796D01*
X104350001Y-85200000D01*
X103699999Y-85200000D01*
X103675495Y-85198796D01*
X103651227Y-85195196D01*
X103627428Y-85189235D01*
X103604329Y-85180970D01*
X103582150Y-85170480D01*
X103561107Y-85157868D01*
X103541401Y-85143253D01*
X103523223Y-85126777D01*
X103506747Y-85108599D01*
X103492132Y-85088893D01*
X103479520Y-85067850D01*
X103469030Y-85045671D01*
X103460765Y-85022572D01*
X103454804Y-84998773D01*
X103451204Y-84974505D01*
X103450000Y-84950001D01*
X103450000Y-84049999D01*
X103451204Y-84025495D01*
X103454804Y-84001227D01*
X103460765Y-83977428D01*
X103469030Y-83954329D01*
X103479520Y-83932150D01*
X103492132Y-83911107D01*
X103506747Y-83891401D01*
X103523223Y-83873223D01*
X103541401Y-83856747D01*
X103561107Y-83842132D01*
X103582150Y-83829520D01*
X103604329Y-83819030D01*
X103627428Y-83810765D01*
X103651227Y-83804804D01*
X103675495Y-83801204D01*
X103699999Y-83800000D01*
X104350001Y-83800000D01*
X104374505Y-83801204D01*
X104374505Y-83801204D01*
G37*
D11*
X104025000Y-84500000D03*
D10*
G36*
X101524505Y-116976204D02*
G01*
X101548773Y-116979804D01*
X101572572Y-116985765D01*
X101595671Y-116994030D01*
X101617850Y-117004520D01*
X101638893Y-117017132D01*
X101658599Y-117031747D01*
X101676777Y-117048223D01*
X101693253Y-117066401D01*
X101707868Y-117086107D01*
X101720480Y-117107150D01*
X101730970Y-117129329D01*
X101739235Y-117152428D01*
X101745196Y-117176227D01*
X101748796Y-117200495D01*
X101750000Y-117224999D01*
X101750000Y-117875001D01*
X101748796Y-117899505D01*
X101745196Y-117923773D01*
X101739235Y-117947572D01*
X101730970Y-117970671D01*
X101720480Y-117992850D01*
X101707868Y-118013893D01*
X101693253Y-118033599D01*
X101676777Y-118051777D01*
X101658599Y-118068253D01*
X101638893Y-118082868D01*
X101617850Y-118095480D01*
X101595671Y-118105970D01*
X101572572Y-118114235D01*
X101548773Y-118120196D01*
X101524505Y-118123796D01*
X101500001Y-118125000D01*
X100599999Y-118125000D01*
X100575495Y-118123796D01*
X100551227Y-118120196D01*
X100527428Y-118114235D01*
X100504329Y-118105970D01*
X100482150Y-118095480D01*
X100461107Y-118082868D01*
X100441401Y-118068253D01*
X100423223Y-118051777D01*
X100406747Y-118033599D01*
X100392132Y-118013893D01*
X100379520Y-117992850D01*
X100369030Y-117970671D01*
X100360765Y-117947572D01*
X100354804Y-117923773D01*
X100351204Y-117899505D01*
X100350000Y-117875001D01*
X100350000Y-117224999D01*
X100351204Y-117200495D01*
X100354804Y-117176227D01*
X100360765Y-117152428D01*
X100369030Y-117129329D01*
X100379520Y-117107150D01*
X100392132Y-117086107D01*
X100406747Y-117066401D01*
X100423223Y-117048223D01*
X100441401Y-117031747D01*
X100461107Y-117017132D01*
X100482150Y-117004520D01*
X100504329Y-116994030D01*
X100527428Y-116985765D01*
X100551227Y-116979804D01*
X100575495Y-116976204D01*
X100599999Y-116975000D01*
X101500001Y-116975000D01*
X101524505Y-116976204D01*
X101524505Y-116976204D01*
G37*
D11*
X101050000Y-117550000D03*
D10*
G36*
X101524505Y-114926204D02*
G01*
X101548773Y-114929804D01*
X101572572Y-114935765D01*
X101595671Y-114944030D01*
X101617850Y-114954520D01*
X101638893Y-114967132D01*
X101658599Y-114981747D01*
X101676777Y-114998223D01*
X101693253Y-115016401D01*
X101707868Y-115036107D01*
X101720480Y-115057150D01*
X101730970Y-115079329D01*
X101739235Y-115102428D01*
X101745196Y-115126227D01*
X101748796Y-115150495D01*
X101750000Y-115174999D01*
X101750000Y-115825001D01*
X101748796Y-115849505D01*
X101745196Y-115873773D01*
X101739235Y-115897572D01*
X101730970Y-115920671D01*
X101720480Y-115942850D01*
X101707868Y-115963893D01*
X101693253Y-115983599D01*
X101676777Y-116001777D01*
X101658599Y-116018253D01*
X101638893Y-116032868D01*
X101617850Y-116045480D01*
X101595671Y-116055970D01*
X101572572Y-116064235D01*
X101548773Y-116070196D01*
X101524505Y-116073796D01*
X101500001Y-116075000D01*
X100599999Y-116075000D01*
X100575495Y-116073796D01*
X100551227Y-116070196D01*
X100527428Y-116064235D01*
X100504329Y-116055970D01*
X100482150Y-116045480D01*
X100461107Y-116032868D01*
X100441401Y-116018253D01*
X100423223Y-116001777D01*
X100406747Y-115983599D01*
X100392132Y-115963893D01*
X100379520Y-115942850D01*
X100369030Y-115920671D01*
X100360765Y-115897572D01*
X100354804Y-115873773D01*
X100351204Y-115849505D01*
X100350000Y-115825001D01*
X100350000Y-115174999D01*
X100351204Y-115150495D01*
X100354804Y-115126227D01*
X100360765Y-115102428D01*
X100369030Y-115079329D01*
X100379520Y-115057150D01*
X100392132Y-115036107D01*
X100406747Y-115016401D01*
X100423223Y-114998223D01*
X100441401Y-114981747D01*
X100461107Y-114967132D01*
X100482150Y-114954520D01*
X100504329Y-114944030D01*
X100527428Y-114935765D01*
X100551227Y-114929804D01*
X100575495Y-114926204D01*
X100599999Y-114925000D01*
X101500001Y-114925000D01*
X101524505Y-114926204D01*
X101524505Y-114926204D01*
G37*
D11*
X101050000Y-115500000D03*
D10*
G36*
X98024505Y-114901204D02*
G01*
X98048773Y-114904804D01*
X98072572Y-114910765D01*
X98095671Y-114919030D01*
X98117850Y-114929520D01*
X98138893Y-114942132D01*
X98158599Y-114956747D01*
X98176777Y-114973223D01*
X98193253Y-114991401D01*
X98207868Y-115011107D01*
X98220480Y-115032150D01*
X98230970Y-115054329D01*
X98239235Y-115077428D01*
X98245196Y-115101227D01*
X98248796Y-115125495D01*
X98250000Y-115149999D01*
X98250000Y-115800001D01*
X98248796Y-115824505D01*
X98245196Y-115848773D01*
X98239235Y-115872572D01*
X98230970Y-115895671D01*
X98220480Y-115917850D01*
X98207868Y-115938893D01*
X98193253Y-115958599D01*
X98176777Y-115976777D01*
X98158599Y-115993253D01*
X98138893Y-116007868D01*
X98117850Y-116020480D01*
X98095671Y-116030970D01*
X98072572Y-116039235D01*
X98048773Y-116045196D01*
X98024505Y-116048796D01*
X98000001Y-116050000D01*
X97099999Y-116050000D01*
X97075495Y-116048796D01*
X97051227Y-116045196D01*
X97027428Y-116039235D01*
X97004329Y-116030970D01*
X96982150Y-116020480D01*
X96961107Y-116007868D01*
X96941401Y-115993253D01*
X96923223Y-115976777D01*
X96906747Y-115958599D01*
X96892132Y-115938893D01*
X96879520Y-115917850D01*
X96869030Y-115895671D01*
X96860765Y-115872572D01*
X96854804Y-115848773D01*
X96851204Y-115824505D01*
X96850000Y-115800001D01*
X96850000Y-115149999D01*
X96851204Y-115125495D01*
X96854804Y-115101227D01*
X96860765Y-115077428D01*
X96869030Y-115054329D01*
X96879520Y-115032150D01*
X96892132Y-115011107D01*
X96906747Y-114991401D01*
X96923223Y-114973223D01*
X96941401Y-114956747D01*
X96961107Y-114942132D01*
X96982150Y-114929520D01*
X97004329Y-114919030D01*
X97027428Y-114910765D01*
X97051227Y-114904804D01*
X97075495Y-114901204D01*
X97099999Y-114900000D01*
X98000001Y-114900000D01*
X98024505Y-114901204D01*
X98024505Y-114901204D01*
G37*
D11*
X97550000Y-115475000D03*
D10*
G36*
X98024505Y-116951204D02*
G01*
X98048773Y-116954804D01*
X98072572Y-116960765D01*
X98095671Y-116969030D01*
X98117850Y-116979520D01*
X98138893Y-116992132D01*
X98158599Y-117006747D01*
X98176777Y-117023223D01*
X98193253Y-117041401D01*
X98207868Y-117061107D01*
X98220480Y-117082150D01*
X98230970Y-117104329D01*
X98239235Y-117127428D01*
X98245196Y-117151227D01*
X98248796Y-117175495D01*
X98250000Y-117199999D01*
X98250000Y-117850001D01*
X98248796Y-117874505D01*
X98245196Y-117898773D01*
X98239235Y-117922572D01*
X98230970Y-117945671D01*
X98220480Y-117967850D01*
X98207868Y-117988893D01*
X98193253Y-118008599D01*
X98176777Y-118026777D01*
X98158599Y-118043253D01*
X98138893Y-118057868D01*
X98117850Y-118070480D01*
X98095671Y-118080970D01*
X98072572Y-118089235D01*
X98048773Y-118095196D01*
X98024505Y-118098796D01*
X98000001Y-118100000D01*
X97099999Y-118100000D01*
X97075495Y-118098796D01*
X97051227Y-118095196D01*
X97027428Y-118089235D01*
X97004329Y-118080970D01*
X96982150Y-118070480D01*
X96961107Y-118057868D01*
X96941401Y-118043253D01*
X96923223Y-118026777D01*
X96906747Y-118008599D01*
X96892132Y-117988893D01*
X96879520Y-117967850D01*
X96869030Y-117945671D01*
X96860765Y-117922572D01*
X96854804Y-117898773D01*
X96851204Y-117874505D01*
X96850000Y-117850001D01*
X96850000Y-117199999D01*
X96851204Y-117175495D01*
X96854804Y-117151227D01*
X96860765Y-117127428D01*
X96869030Y-117104329D01*
X96879520Y-117082150D01*
X96892132Y-117061107D01*
X96906747Y-117041401D01*
X96923223Y-117023223D01*
X96941401Y-117006747D01*
X96961107Y-116992132D01*
X96982150Y-116979520D01*
X97004329Y-116969030D01*
X97027428Y-116960765D01*
X97051227Y-116954804D01*
X97075495Y-116951204D01*
X97099999Y-116950000D01*
X98000001Y-116950000D01*
X98024505Y-116951204D01*
X98024505Y-116951204D01*
G37*
D11*
X97550000Y-117525000D03*
D10*
G36*
X98524505Y-82451204D02*
G01*
X98548773Y-82454804D01*
X98572572Y-82460765D01*
X98595671Y-82469030D01*
X98617850Y-82479520D01*
X98638893Y-82492132D01*
X98658599Y-82506747D01*
X98676777Y-82523223D01*
X98693253Y-82541401D01*
X98707868Y-82561107D01*
X98720480Y-82582150D01*
X98730970Y-82604329D01*
X98739235Y-82627428D01*
X98745196Y-82651227D01*
X98748796Y-82675495D01*
X98750000Y-82699999D01*
X98750000Y-83350001D01*
X98748796Y-83374505D01*
X98745196Y-83398773D01*
X98739235Y-83422572D01*
X98730970Y-83445671D01*
X98720480Y-83467850D01*
X98707868Y-83488893D01*
X98693253Y-83508599D01*
X98676777Y-83526777D01*
X98658599Y-83543253D01*
X98638893Y-83557868D01*
X98617850Y-83570480D01*
X98595671Y-83580970D01*
X98572572Y-83589235D01*
X98548773Y-83595196D01*
X98524505Y-83598796D01*
X98500001Y-83600000D01*
X97599999Y-83600000D01*
X97575495Y-83598796D01*
X97551227Y-83595196D01*
X97527428Y-83589235D01*
X97504329Y-83580970D01*
X97482150Y-83570480D01*
X97461107Y-83557868D01*
X97441401Y-83543253D01*
X97423223Y-83526777D01*
X97406747Y-83508599D01*
X97392132Y-83488893D01*
X97379520Y-83467850D01*
X97369030Y-83445671D01*
X97360765Y-83422572D01*
X97354804Y-83398773D01*
X97351204Y-83374505D01*
X97350000Y-83350001D01*
X97350000Y-82699999D01*
X97351204Y-82675495D01*
X97354804Y-82651227D01*
X97360765Y-82627428D01*
X97369030Y-82604329D01*
X97379520Y-82582150D01*
X97392132Y-82561107D01*
X97406747Y-82541401D01*
X97423223Y-82523223D01*
X97441401Y-82506747D01*
X97461107Y-82492132D01*
X97482150Y-82479520D01*
X97504329Y-82469030D01*
X97527428Y-82460765D01*
X97551227Y-82454804D01*
X97575495Y-82451204D01*
X97599999Y-82450000D01*
X98500001Y-82450000D01*
X98524505Y-82451204D01*
X98524505Y-82451204D01*
G37*
D11*
X98050000Y-83025000D03*
D10*
G36*
X98524505Y-80401204D02*
G01*
X98548773Y-80404804D01*
X98572572Y-80410765D01*
X98595671Y-80419030D01*
X98617850Y-80429520D01*
X98638893Y-80442132D01*
X98658599Y-80456747D01*
X98676777Y-80473223D01*
X98693253Y-80491401D01*
X98707868Y-80511107D01*
X98720480Y-80532150D01*
X98730970Y-80554329D01*
X98739235Y-80577428D01*
X98745196Y-80601227D01*
X98748796Y-80625495D01*
X98750000Y-80649999D01*
X98750000Y-81300001D01*
X98748796Y-81324505D01*
X98745196Y-81348773D01*
X98739235Y-81372572D01*
X98730970Y-81395671D01*
X98720480Y-81417850D01*
X98707868Y-81438893D01*
X98693253Y-81458599D01*
X98676777Y-81476777D01*
X98658599Y-81493253D01*
X98638893Y-81507868D01*
X98617850Y-81520480D01*
X98595671Y-81530970D01*
X98572572Y-81539235D01*
X98548773Y-81545196D01*
X98524505Y-81548796D01*
X98500001Y-81550000D01*
X97599999Y-81550000D01*
X97575495Y-81548796D01*
X97551227Y-81545196D01*
X97527428Y-81539235D01*
X97504329Y-81530970D01*
X97482150Y-81520480D01*
X97461107Y-81507868D01*
X97441401Y-81493253D01*
X97423223Y-81476777D01*
X97406747Y-81458599D01*
X97392132Y-81438893D01*
X97379520Y-81417850D01*
X97369030Y-81395671D01*
X97360765Y-81372572D01*
X97354804Y-81348773D01*
X97351204Y-81324505D01*
X97350000Y-81300001D01*
X97350000Y-80649999D01*
X97351204Y-80625495D01*
X97354804Y-80601227D01*
X97360765Y-80577428D01*
X97369030Y-80554329D01*
X97379520Y-80532150D01*
X97392132Y-80511107D01*
X97406747Y-80491401D01*
X97423223Y-80473223D01*
X97441401Y-80456747D01*
X97461107Y-80442132D01*
X97482150Y-80429520D01*
X97504329Y-80419030D01*
X97527428Y-80410765D01*
X97551227Y-80404804D01*
X97575495Y-80401204D01*
X97599999Y-80400000D01*
X98500001Y-80400000D01*
X98524505Y-80401204D01*
X98524505Y-80401204D01*
G37*
D11*
X98050000Y-80975000D03*
D10*
G36*
X98524505Y-88426204D02*
G01*
X98548773Y-88429804D01*
X98572572Y-88435765D01*
X98595671Y-88444030D01*
X98617850Y-88454520D01*
X98638893Y-88467132D01*
X98658599Y-88481747D01*
X98676777Y-88498223D01*
X98693253Y-88516401D01*
X98707868Y-88536107D01*
X98720480Y-88557150D01*
X98730970Y-88579329D01*
X98739235Y-88602428D01*
X98745196Y-88626227D01*
X98748796Y-88650495D01*
X98750000Y-88674999D01*
X98750000Y-89325001D01*
X98748796Y-89349505D01*
X98745196Y-89373773D01*
X98739235Y-89397572D01*
X98730970Y-89420671D01*
X98720480Y-89442850D01*
X98707868Y-89463893D01*
X98693253Y-89483599D01*
X98676777Y-89501777D01*
X98658599Y-89518253D01*
X98638893Y-89532868D01*
X98617850Y-89545480D01*
X98595671Y-89555970D01*
X98572572Y-89564235D01*
X98548773Y-89570196D01*
X98524505Y-89573796D01*
X98500001Y-89575000D01*
X97599999Y-89575000D01*
X97575495Y-89573796D01*
X97551227Y-89570196D01*
X97527428Y-89564235D01*
X97504329Y-89555970D01*
X97482150Y-89545480D01*
X97461107Y-89532868D01*
X97441401Y-89518253D01*
X97423223Y-89501777D01*
X97406747Y-89483599D01*
X97392132Y-89463893D01*
X97379520Y-89442850D01*
X97369030Y-89420671D01*
X97360765Y-89397572D01*
X97354804Y-89373773D01*
X97351204Y-89349505D01*
X97350000Y-89325001D01*
X97350000Y-88674999D01*
X97351204Y-88650495D01*
X97354804Y-88626227D01*
X97360765Y-88602428D01*
X97369030Y-88579329D01*
X97379520Y-88557150D01*
X97392132Y-88536107D01*
X97406747Y-88516401D01*
X97423223Y-88498223D01*
X97441401Y-88481747D01*
X97461107Y-88467132D01*
X97482150Y-88454520D01*
X97504329Y-88444030D01*
X97527428Y-88435765D01*
X97551227Y-88429804D01*
X97575495Y-88426204D01*
X97599999Y-88425000D01*
X98500001Y-88425000D01*
X98524505Y-88426204D01*
X98524505Y-88426204D01*
G37*
D11*
X98050000Y-89000000D03*
D10*
G36*
X98524505Y-90476204D02*
G01*
X98548773Y-90479804D01*
X98572572Y-90485765D01*
X98595671Y-90494030D01*
X98617850Y-90504520D01*
X98638893Y-90517132D01*
X98658599Y-90531747D01*
X98676777Y-90548223D01*
X98693253Y-90566401D01*
X98707868Y-90586107D01*
X98720480Y-90607150D01*
X98730970Y-90629329D01*
X98739235Y-90652428D01*
X98745196Y-90676227D01*
X98748796Y-90700495D01*
X98750000Y-90724999D01*
X98750000Y-91375001D01*
X98748796Y-91399505D01*
X98745196Y-91423773D01*
X98739235Y-91447572D01*
X98730970Y-91470671D01*
X98720480Y-91492850D01*
X98707868Y-91513893D01*
X98693253Y-91533599D01*
X98676777Y-91551777D01*
X98658599Y-91568253D01*
X98638893Y-91582868D01*
X98617850Y-91595480D01*
X98595671Y-91605970D01*
X98572572Y-91614235D01*
X98548773Y-91620196D01*
X98524505Y-91623796D01*
X98500001Y-91625000D01*
X97599999Y-91625000D01*
X97575495Y-91623796D01*
X97551227Y-91620196D01*
X97527428Y-91614235D01*
X97504329Y-91605970D01*
X97482150Y-91595480D01*
X97461107Y-91582868D01*
X97441401Y-91568253D01*
X97423223Y-91551777D01*
X97406747Y-91533599D01*
X97392132Y-91513893D01*
X97379520Y-91492850D01*
X97369030Y-91470671D01*
X97360765Y-91447572D01*
X97354804Y-91423773D01*
X97351204Y-91399505D01*
X97350000Y-91375001D01*
X97350000Y-90724999D01*
X97351204Y-90700495D01*
X97354804Y-90676227D01*
X97360765Y-90652428D01*
X97369030Y-90629329D01*
X97379520Y-90607150D01*
X97392132Y-90586107D01*
X97406747Y-90566401D01*
X97423223Y-90548223D01*
X97441401Y-90531747D01*
X97461107Y-90517132D01*
X97482150Y-90504520D01*
X97504329Y-90494030D01*
X97527428Y-90485765D01*
X97551227Y-90479804D01*
X97575495Y-90476204D01*
X97599999Y-90475000D01*
X98500001Y-90475000D01*
X98524505Y-90476204D01*
X98524505Y-90476204D01*
G37*
D11*
X98050000Y-91050000D03*
D10*
G36*
X91524505Y-90426204D02*
G01*
X91548773Y-90429804D01*
X91572572Y-90435765D01*
X91595671Y-90444030D01*
X91617850Y-90454520D01*
X91638893Y-90467132D01*
X91658599Y-90481747D01*
X91676777Y-90498223D01*
X91693253Y-90516401D01*
X91707868Y-90536107D01*
X91720480Y-90557150D01*
X91730970Y-90579329D01*
X91739235Y-90602428D01*
X91745196Y-90626227D01*
X91748796Y-90650495D01*
X91750000Y-90674999D01*
X91750000Y-91325001D01*
X91748796Y-91349505D01*
X91745196Y-91373773D01*
X91739235Y-91397572D01*
X91730970Y-91420671D01*
X91720480Y-91442850D01*
X91707868Y-91463893D01*
X91693253Y-91483599D01*
X91676777Y-91501777D01*
X91658599Y-91518253D01*
X91638893Y-91532868D01*
X91617850Y-91545480D01*
X91595671Y-91555970D01*
X91572572Y-91564235D01*
X91548773Y-91570196D01*
X91524505Y-91573796D01*
X91500001Y-91575000D01*
X90599999Y-91575000D01*
X90575495Y-91573796D01*
X90551227Y-91570196D01*
X90527428Y-91564235D01*
X90504329Y-91555970D01*
X90482150Y-91545480D01*
X90461107Y-91532868D01*
X90441401Y-91518253D01*
X90423223Y-91501777D01*
X90406747Y-91483599D01*
X90392132Y-91463893D01*
X90379520Y-91442850D01*
X90369030Y-91420671D01*
X90360765Y-91397572D01*
X90354804Y-91373773D01*
X90351204Y-91349505D01*
X90350000Y-91325001D01*
X90350000Y-90674999D01*
X90351204Y-90650495D01*
X90354804Y-90626227D01*
X90360765Y-90602428D01*
X90369030Y-90579329D01*
X90379520Y-90557150D01*
X90392132Y-90536107D01*
X90406747Y-90516401D01*
X90423223Y-90498223D01*
X90441401Y-90481747D01*
X90461107Y-90467132D01*
X90482150Y-90454520D01*
X90504329Y-90444030D01*
X90527428Y-90435765D01*
X90551227Y-90429804D01*
X90575495Y-90426204D01*
X90599999Y-90425000D01*
X91500001Y-90425000D01*
X91524505Y-90426204D01*
X91524505Y-90426204D01*
G37*
D11*
X91050000Y-91000000D03*
D10*
G36*
X91524505Y-88376204D02*
G01*
X91548773Y-88379804D01*
X91572572Y-88385765D01*
X91595671Y-88394030D01*
X91617850Y-88404520D01*
X91638893Y-88417132D01*
X91658599Y-88431747D01*
X91676777Y-88448223D01*
X91693253Y-88466401D01*
X91707868Y-88486107D01*
X91720480Y-88507150D01*
X91730970Y-88529329D01*
X91739235Y-88552428D01*
X91745196Y-88576227D01*
X91748796Y-88600495D01*
X91750000Y-88624999D01*
X91750000Y-89275001D01*
X91748796Y-89299505D01*
X91745196Y-89323773D01*
X91739235Y-89347572D01*
X91730970Y-89370671D01*
X91720480Y-89392850D01*
X91707868Y-89413893D01*
X91693253Y-89433599D01*
X91676777Y-89451777D01*
X91658599Y-89468253D01*
X91638893Y-89482868D01*
X91617850Y-89495480D01*
X91595671Y-89505970D01*
X91572572Y-89514235D01*
X91548773Y-89520196D01*
X91524505Y-89523796D01*
X91500001Y-89525000D01*
X90599999Y-89525000D01*
X90575495Y-89523796D01*
X90551227Y-89520196D01*
X90527428Y-89514235D01*
X90504329Y-89505970D01*
X90482150Y-89495480D01*
X90461107Y-89482868D01*
X90441401Y-89468253D01*
X90423223Y-89451777D01*
X90406747Y-89433599D01*
X90392132Y-89413893D01*
X90379520Y-89392850D01*
X90369030Y-89370671D01*
X90360765Y-89347572D01*
X90354804Y-89323773D01*
X90351204Y-89299505D01*
X90350000Y-89275001D01*
X90350000Y-88624999D01*
X90351204Y-88600495D01*
X90354804Y-88576227D01*
X90360765Y-88552428D01*
X90369030Y-88529329D01*
X90379520Y-88507150D01*
X90392132Y-88486107D01*
X90406747Y-88466401D01*
X90423223Y-88448223D01*
X90441401Y-88431747D01*
X90461107Y-88417132D01*
X90482150Y-88404520D01*
X90504329Y-88394030D01*
X90527428Y-88385765D01*
X90551227Y-88379804D01*
X90575495Y-88376204D01*
X90599999Y-88375000D01*
X91500001Y-88375000D01*
X91524505Y-88376204D01*
X91524505Y-88376204D01*
G37*
D11*
X91050000Y-88950000D03*
D10*
G36*
X106449505Y-77301204D02*
G01*
X106473773Y-77304804D01*
X106497572Y-77310765D01*
X106520671Y-77319030D01*
X106542850Y-77329520D01*
X106563893Y-77342132D01*
X106583599Y-77356747D01*
X106601777Y-77373223D01*
X106618253Y-77391401D01*
X106632868Y-77411107D01*
X106645480Y-77432150D01*
X106655970Y-77454329D01*
X106664235Y-77477428D01*
X106670196Y-77501227D01*
X106673796Y-77525495D01*
X106675000Y-77549999D01*
X106675000Y-78450001D01*
X106673796Y-78474505D01*
X106670196Y-78498773D01*
X106664235Y-78522572D01*
X106655970Y-78545671D01*
X106645480Y-78567850D01*
X106632868Y-78588893D01*
X106618253Y-78608599D01*
X106601777Y-78626777D01*
X106583599Y-78643253D01*
X106563893Y-78657868D01*
X106542850Y-78670480D01*
X106520671Y-78680970D01*
X106497572Y-78689235D01*
X106473773Y-78695196D01*
X106449505Y-78698796D01*
X106425001Y-78700000D01*
X105774999Y-78700000D01*
X105750495Y-78698796D01*
X105726227Y-78695196D01*
X105702428Y-78689235D01*
X105679329Y-78680970D01*
X105657150Y-78670480D01*
X105636107Y-78657868D01*
X105616401Y-78643253D01*
X105598223Y-78626777D01*
X105581747Y-78608599D01*
X105567132Y-78588893D01*
X105554520Y-78567850D01*
X105544030Y-78545671D01*
X105535765Y-78522572D01*
X105529804Y-78498773D01*
X105526204Y-78474505D01*
X105525000Y-78450001D01*
X105525000Y-77549999D01*
X105526204Y-77525495D01*
X105529804Y-77501227D01*
X105535765Y-77477428D01*
X105544030Y-77454329D01*
X105554520Y-77432150D01*
X105567132Y-77411107D01*
X105581747Y-77391401D01*
X105598223Y-77373223D01*
X105616401Y-77356747D01*
X105636107Y-77342132D01*
X105657150Y-77329520D01*
X105679329Y-77319030D01*
X105702428Y-77310765D01*
X105726227Y-77304804D01*
X105750495Y-77301204D01*
X105774999Y-77300000D01*
X106425001Y-77300000D01*
X106449505Y-77301204D01*
X106449505Y-77301204D01*
G37*
D11*
X106100000Y-78000000D03*
D10*
G36*
X104399505Y-77301204D02*
G01*
X104423773Y-77304804D01*
X104447572Y-77310765D01*
X104470671Y-77319030D01*
X104492850Y-77329520D01*
X104513893Y-77342132D01*
X104533599Y-77356747D01*
X104551777Y-77373223D01*
X104568253Y-77391401D01*
X104582868Y-77411107D01*
X104595480Y-77432150D01*
X104605970Y-77454329D01*
X104614235Y-77477428D01*
X104620196Y-77501227D01*
X104623796Y-77525495D01*
X104625000Y-77549999D01*
X104625000Y-78450001D01*
X104623796Y-78474505D01*
X104620196Y-78498773D01*
X104614235Y-78522572D01*
X104605970Y-78545671D01*
X104595480Y-78567850D01*
X104582868Y-78588893D01*
X104568253Y-78608599D01*
X104551777Y-78626777D01*
X104533599Y-78643253D01*
X104513893Y-78657868D01*
X104492850Y-78670480D01*
X104470671Y-78680970D01*
X104447572Y-78689235D01*
X104423773Y-78695196D01*
X104399505Y-78698796D01*
X104375001Y-78700000D01*
X103724999Y-78700000D01*
X103700495Y-78698796D01*
X103676227Y-78695196D01*
X103652428Y-78689235D01*
X103629329Y-78680970D01*
X103607150Y-78670480D01*
X103586107Y-78657868D01*
X103566401Y-78643253D01*
X103548223Y-78626777D01*
X103531747Y-78608599D01*
X103517132Y-78588893D01*
X103504520Y-78567850D01*
X103494030Y-78545671D01*
X103485765Y-78522572D01*
X103479804Y-78498773D01*
X103476204Y-78474505D01*
X103475000Y-78450001D01*
X103475000Y-77549999D01*
X103476204Y-77525495D01*
X103479804Y-77501227D01*
X103485765Y-77477428D01*
X103494030Y-77454329D01*
X103504520Y-77432150D01*
X103517132Y-77411107D01*
X103531747Y-77391401D01*
X103548223Y-77373223D01*
X103566401Y-77356747D01*
X103586107Y-77342132D01*
X103607150Y-77329520D01*
X103629329Y-77319030D01*
X103652428Y-77310765D01*
X103676227Y-77304804D01*
X103700495Y-77301204D01*
X103724999Y-77300000D01*
X104375001Y-77300000D01*
X104399505Y-77301204D01*
X104399505Y-77301204D01*
G37*
D11*
X104050000Y-78000000D03*
D10*
G36*
X104349505Y-120801204D02*
G01*
X104373773Y-120804804D01*
X104397572Y-120810765D01*
X104420671Y-120819030D01*
X104442850Y-120829520D01*
X104463893Y-120842132D01*
X104483599Y-120856747D01*
X104501777Y-120873223D01*
X104518253Y-120891401D01*
X104532868Y-120911107D01*
X104545480Y-120932150D01*
X104555970Y-120954329D01*
X104564235Y-120977428D01*
X104570196Y-121001227D01*
X104573796Y-121025495D01*
X104575000Y-121049999D01*
X104575000Y-121950001D01*
X104573796Y-121974505D01*
X104570196Y-121998773D01*
X104564235Y-122022572D01*
X104555970Y-122045671D01*
X104545480Y-122067850D01*
X104532868Y-122088893D01*
X104518253Y-122108599D01*
X104501777Y-122126777D01*
X104483599Y-122143253D01*
X104463893Y-122157868D01*
X104442850Y-122170480D01*
X104420671Y-122180970D01*
X104397572Y-122189235D01*
X104373773Y-122195196D01*
X104349505Y-122198796D01*
X104325001Y-122200000D01*
X103674999Y-122200000D01*
X103650495Y-122198796D01*
X103626227Y-122195196D01*
X103602428Y-122189235D01*
X103579329Y-122180970D01*
X103557150Y-122170480D01*
X103536107Y-122157868D01*
X103516401Y-122143253D01*
X103498223Y-122126777D01*
X103481747Y-122108599D01*
X103467132Y-122088893D01*
X103454520Y-122067850D01*
X103444030Y-122045671D01*
X103435765Y-122022572D01*
X103429804Y-121998773D01*
X103426204Y-121974505D01*
X103425000Y-121950001D01*
X103425000Y-121049999D01*
X103426204Y-121025495D01*
X103429804Y-121001227D01*
X103435765Y-120977428D01*
X103444030Y-120954329D01*
X103454520Y-120932150D01*
X103467132Y-120911107D01*
X103481747Y-120891401D01*
X103498223Y-120873223D01*
X103516401Y-120856747D01*
X103536107Y-120842132D01*
X103557150Y-120829520D01*
X103579329Y-120819030D01*
X103602428Y-120810765D01*
X103626227Y-120804804D01*
X103650495Y-120801204D01*
X103674999Y-120800000D01*
X104325001Y-120800000D01*
X104349505Y-120801204D01*
X104349505Y-120801204D01*
G37*
D11*
X104000000Y-121500000D03*
D10*
G36*
X106399505Y-120801204D02*
G01*
X106423773Y-120804804D01*
X106447572Y-120810765D01*
X106470671Y-120819030D01*
X106492850Y-120829520D01*
X106513893Y-120842132D01*
X106533599Y-120856747D01*
X106551777Y-120873223D01*
X106568253Y-120891401D01*
X106582868Y-120911107D01*
X106595480Y-120932150D01*
X106605970Y-120954329D01*
X106614235Y-120977428D01*
X106620196Y-121001227D01*
X106623796Y-121025495D01*
X106625000Y-121049999D01*
X106625000Y-121950001D01*
X106623796Y-121974505D01*
X106620196Y-121998773D01*
X106614235Y-122022572D01*
X106605970Y-122045671D01*
X106595480Y-122067850D01*
X106582868Y-122088893D01*
X106568253Y-122108599D01*
X106551777Y-122126777D01*
X106533599Y-122143253D01*
X106513893Y-122157868D01*
X106492850Y-122170480D01*
X106470671Y-122180970D01*
X106447572Y-122189235D01*
X106423773Y-122195196D01*
X106399505Y-122198796D01*
X106375001Y-122200000D01*
X105724999Y-122200000D01*
X105700495Y-122198796D01*
X105676227Y-122195196D01*
X105652428Y-122189235D01*
X105629329Y-122180970D01*
X105607150Y-122170480D01*
X105586107Y-122157868D01*
X105566401Y-122143253D01*
X105548223Y-122126777D01*
X105531747Y-122108599D01*
X105517132Y-122088893D01*
X105504520Y-122067850D01*
X105494030Y-122045671D01*
X105485765Y-122022572D01*
X105479804Y-121998773D01*
X105476204Y-121974505D01*
X105475000Y-121950001D01*
X105475000Y-121049999D01*
X105476204Y-121025495D01*
X105479804Y-121001227D01*
X105485765Y-120977428D01*
X105494030Y-120954329D01*
X105504520Y-120932150D01*
X105517132Y-120911107D01*
X105531747Y-120891401D01*
X105548223Y-120873223D01*
X105566401Y-120856747D01*
X105586107Y-120842132D01*
X105607150Y-120829520D01*
X105629329Y-120819030D01*
X105652428Y-120810765D01*
X105676227Y-120804804D01*
X105700495Y-120801204D01*
X105724999Y-120800000D01*
X106375001Y-120800000D01*
X106399505Y-120801204D01*
X106399505Y-120801204D01*
G37*
D11*
X106050000Y-121500000D03*
D10*
G36*
X104374505Y-100801204D02*
G01*
X104398773Y-100804804D01*
X104422572Y-100810765D01*
X104445671Y-100819030D01*
X104467850Y-100829520D01*
X104488893Y-100842132D01*
X104508599Y-100856747D01*
X104526777Y-100873223D01*
X104543253Y-100891401D01*
X104557868Y-100911107D01*
X104570480Y-100932150D01*
X104580970Y-100954329D01*
X104589235Y-100977428D01*
X104595196Y-101001227D01*
X104598796Y-101025495D01*
X104600000Y-101049999D01*
X104600000Y-101950001D01*
X104598796Y-101974505D01*
X104595196Y-101998773D01*
X104589235Y-102022572D01*
X104580970Y-102045671D01*
X104570480Y-102067850D01*
X104557868Y-102088893D01*
X104543253Y-102108599D01*
X104526777Y-102126777D01*
X104508599Y-102143253D01*
X104488893Y-102157868D01*
X104467850Y-102170480D01*
X104445671Y-102180970D01*
X104422572Y-102189235D01*
X104398773Y-102195196D01*
X104374505Y-102198796D01*
X104350001Y-102200000D01*
X103699999Y-102200000D01*
X103675495Y-102198796D01*
X103651227Y-102195196D01*
X103627428Y-102189235D01*
X103604329Y-102180970D01*
X103582150Y-102170480D01*
X103561107Y-102157868D01*
X103541401Y-102143253D01*
X103523223Y-102126777D01*
X103506747Y-102108599D01*
X103492132Y-102088893D01*
X103479520Y-102067850D01*
X103469030Y-102045671D01*
X103460765Y-102022572D01*
X103454804Y-101998773D01*
X103451204Y-101974505D01*
X103450000Y-101950001D01*
X103450000Y-101049999D01*
X103451204Y-101025495D01*
X103454804Y-101001227D01*
X103460765Y-100977428D01*
X103469030Y-100954329D01*
X103479520Y-100932150D01*
X103492132Y-100911107D01*
X103506747Y-100891401D01*
X103523223Y-100873223D01*
X103541401Y-100856747D01*
X103561107Y-100842132D01*
X103582150Y-100829520D01*
X103604329Y-100819030D01*
X103627428Y-100810765D01*
X103651227Y-100804804D01*
X103675495Y-100801204D01*
X103699999Y-100800000D01*
X104350001Y-100800000D01*
X104374505Y-100801204D01*
X104374505Y-100801204D01*
G37*
D11*
X104025000Y-101500000D03*
D10*
G36*
X106424505Y-100801204D02*
G01*
X106448773Y-100804804D01*
X106472572Y-100810765D01*
X106495671Y-100819030D01*
X106517850Y-100829520D01*
X106538893Y-100842132D01*
X106558599Y-100856747D01*
X106576777Y-100873223D01*
X106593253Y-100891401D01*
X106607868Y-100911107D01*
X106620480Y-100932150D01*
X106630970Y-100954329D01*
X106639235Y-100977428D01*
X106645196Y-101001227D01*
X106648796Y-101025495D01*
X106650000Y-101049999D01*
X106650000Y-101950001D01*
X106648796Y-101974505D01*
X106645196Y-101998773D01*
X106639235Y-102022572D01*
X106630970Y-102045671D01*
X106620480Y-102067850D01*
X106607868Y-102088893D01*
X106593253Y-102108599D01*
X106576777Y-102126777D01*
X106558599Y-102143253D01*
X106538893Y-102157868D01*
X106517850Y-102170480D01*
X106495671Y-102180970D01*
X106472572Y-102189235D01*
X106448773Y-102195196D01*
X106424505Y-102198796D01*
X106400001Y-102200000D01*
X105749999Y-102200000D01*
X105725495Y-102198796D01*
X105701227Y-102195196D01*
X105677428Y-102189235D01*
X105654329Y-102180970D01*
X105632150Y-102170480D01*
X105611107Y-102157868D01*
X105591401Y-102143253D01*
X105573223Y-102126777D01*
X105556747Y-102108599D01*
X105542132Y-102088893D01*
X105529520Y-102067850D01*
X105519030Y-102045671D01*
X105510765Y-102022572D01*
X105504804Y-101998773D01*
X105501204Y-101974505D01*
X105500000Y-101950001D01*
X105500000Y-101049999D01*
X105501204Y-101025495D01*
X105504804Y-101001227D01*
X105510765Y-100977428D01*
X105519030Y-100954329D01*
X105529520Y-100932150D01*
X105542132Y-100911107D01*
X105556747Y-100891401D01*
X105573223Y-100873223D01*
X105591401Y-100856747D01*
X105611107Y-100842132D01*
X105632150Y-100829520D01*
X105654329Y-100819030D01*
X105677428Y-100810765D01*
X105701227Y-100804804D01*
X105725495Y-100801204D01*
X105749999Y-100800000D01*
X106400001Y-100800000D01*
X106424505Y-100801204D01*
X106424505Y-100801204D01*
G37*
D11*
X106075000Y-101500000D03*
D10*
G36*
X106449505Y-93801204D02*
G01*
X106473773Y-93804804D01*
X106497572Y-93810765D01*
X106520671Y-93819030D01*
X106542850Y-93829520D01*
X106563893Y-93842132D01*
X106583599Y-93856747D01*
X106601777Y-93873223D01*
X106618253Y-93891401D01*
X106632868Y-93911107D01*
X106645480Y-93932150D01*
X106655970Y-93954329D01*
X106664235Y-93977428D01*
X106670196Y-94001227D01*
X106673796Y-94025495D01*
X106675000Y-94049999D01*
X106675000Y-94950001D01*
X106673796Y-94974505D01*
X106670196Y-94998773D01*
X106664235Y-95022572D01*
X106655970Y-95045671D01*
X106645480Y-95067850D01*
X106632868Y-95088893D01*
X106618253Y-95108599D01*
X106601777Y-95126777D01*
X106583599Y-95143253D01*
X106563893Y-95157868D01*
X106542850Y-95170480D01*
X106520671Y-95180970D01*
X106497572Y-95189235D01*
X106473773Y-95195196D01*
X106449505Y-95198796D01*
X106425001Y-95200000D01*
X105774999Y-95200000D01*
X105750495Y-95198796D01*
X105726227Y-95195196D01*
X105702428Y-95189235D01*
X105679329Y-95180970D01*
X105657150Y-95170480D01*
X105636107Y-95157868D01*
X105616401Y-95143253D01*
X105598223Y-95126777D01*
X105581747Y-95108599D01*
X105567132Y-95088893D01*
X105554520Y-95067850D01*
X105544030Y-95045671D01*
X105535765Y-95022572D01*
X105529804Y-94998773D01*
X105526204Y-94974505D01*
X105525000Y-94950001D01*
X105525000Y-94049999D01*
X105526204Y-94025495D01*
X105529804Y-94001227D01*
X105535765Y-93977428D01*
X105544030Y-93954329D01*
X105554520Y-93932150D01*
X105567132Y-93911107D01*
X105581747Y-93891401D01*
X105598223Y-93873223D01*
X105616401Y-93856747D01*
X105636107Y-93842132D01*
X105657150Y-93829520D01*
X105679329Y-93819030D01*
X105702428Y-93810765D01*
X105726227Y-93804804D01*
X105750495Y-93801204D01*
X105774999Y-93800000D01*
X106425001Y-93800000D01*
X106449505Y-93801204D01*
X106449505Y-93801204D01*
G37*
D11*
X106100000Y-94500000D03*
D10*
G36*
X104399505Y-93801204D02*
G01*
X104423773Y-93804804D01*
X104447572Y-93810765D01*
X104470671Y-93819030D01*
X104492850Y-93829520D01*
X104513893Y-93842132D01*
X104533599Y-93856747D01*
X104551777Y-93873223D01*
X104568253Y-93891401D01*
X104582868Y-93911107D01*
X104595480Y-93932150D01*
X104605970Y-93954329D01*
X104614235Y-93977428D01*
X104620196Y-94001227D01*
X104623796Y-94025495D01*
X104625000Y-94049999D01*
X104625000Y-94950001D01*
X104623796Y-94974505D01*
X104620196Y-94998773D01*
X104614235Y-95022572D01*
X104605970Y-95045671D01*
X104595480Y-95067850D01*
X104582868Y-95088893D01*
X104568253Y-95108599D01*
X104551777Y-95126777D01*
X104533599Y-95143253D01*
X104513893Y-95157868D01*
X104492850Y-95170480D01*
X104470671Y-95180970D01*
X104447572Y-95189235D01*
X104423773Y-95195196D01*
X104399505Y-95198796D01*
X104375001Y-95200000D01*
X103724999Y-95200000D01*
X103700495Y-95198796D01*
X103676227Y-95195196D01*
X103652428Y-95189235D01*
X103629329Y-95180970D01*
X103607150Y-95170480D01*
X103586107Y-95157868D01*
X103566401Y-95143253D01*
X103548223Y-95126777D01*
X103531747Y-95108599D01*
X103517132Y-95088893D01*
X103504520Y-95067850D01*
X103494030Y-95045671D01*
X103485765Y-95022572D01*
X103479804Y-94998773D01*
X103476204Y-94974505D01*
X103475000Y-94950001D01*
X103475000Y-94049999D01*
X103476204Y-94025495D01*
X103479804Y-94001227D01*
X103485765Y-93977428D01*
X103494030Y-93954329D01*
X103504520Y-93932150D01*
X103517132Y-93911107D01*
X103531747Y-93891401D01*
X103548223Y-93873223D01*
X103566401Y-93856747D01*
X103586107Y-93842132D01*
X103607150Y-93829520D01*
X103629329Y-93819030D01*
X103652428Y-93810765D01*
X103676227Y-93804804D01*
X103700495Y-93801204D01*
X103724999Y-93800000D01*
X104375001Y-93800000D01*
X104399505Y-93801204D01*
X104399505Y-93801204D01*
G37*
D11*
X104050000Y-94500000D03*
D10*
G36*
X104399505Y-103801204D02*
G01*
X104423773Y-103804804D01*
X104447572Y-103810765D01*
X104470671Y-103819030D01*
X104492850Y-103829520D01*
X104513893Y-103842132D01*
X104533599Y-103856747D01*
X104551777Y-103873223D01*
X104568253Y-103891401D01*
X104582868Y-103911107D01*
X104595480Y-103932150D01*
X104605970Y-103954329D01*
X104614235Y-103977428D01*
X104620196Y-104001227D01*
X104623796Y-104025495D01*
X104625000Y-104049999D01*
X104625000Y-104950001D01*
X104623796Y-104974505D01*
X104620196Y-104998773D01*
X104614235Y-105022572D01*
X104605970Y-105045671D01*
X104595480Y-105067850D01*
X104582868Y-105088893D01*
X104568253Y-105108599D01*
X104551777Y-105126777D01*
X104533599Y-105143253D01*
X104513893Y-105157868D01*
X104492850Y-105170480D01*
X104470671Y-105180970D01*
X104447572Y-105189235D01*
X104423773Y-105195196D01*
X104399505Y-105198796D01*
X104375001Y-105200000D01*
X103724999Y-105200000D01*
X103700495Y-105198796D01*
X103676227Y-105195196D01*
X103652428Y-105189235D01*
X103629329Y-105180970D01*
X103607150Y-105170480D01*
X103586107Y-105157868D01*
X103566401Y-105143253D01*
X103548223Y-105126777D01*
X103531747Y-105108599D01*
X103517132Y-105088893D01*
X103504520Y-105067850D01*
X103494030Y-105045671D01*
X103485765Y-105022572D01*
X103479804Y-104998773D01*
X103476204Y-104974505D01*
X103475000Y-104950001D01*
X103475000Y-104049999D01*
X103476204Y-104025495D01*
X103479804Y-104001227D01*
X103485765Y-103977428D01*
X103494030Y-103954329D01*
X103504520Y-103932150D01*
X103517132Y-103911107D01*
X103531747Y-103891401D01*
X103548223Y-103873223D01*
X103566401Y-103856747D01*
X103586107Y-103842132D01*
X103607150Y-103829520D01*
X103629329Y-103819030D01*
X103652428Y-103810765D01*
X103676227Y-103804804D01*
X103700495Y-103801204D01*
X103724999Y-103800000D01*
X104375001Y-103800000D01*
X104399505Y-103801204D01*
X104399505Y-103801204D01*
G37*
D11*
X104050000Y-104500000D03*
D10*
G36*
X106449505Y-103801204D02*
G01*
X106473773Y-103804804D01*
X106497572Y-103810765D01*
X106520671Y-103819030D01*
X106542850Y-103829520D01*
X106563893Y-103842132D01*
X106583599Y-103856747D01*
X106601777Y-103873223D01*
X106618253Y-103891401D01*
X106632868Y-103911107D01*
X106645480Y-103932150D01*
X106655970Y-103954329D01*
X106664235Y-103977428D01*
X106670196Y-104001227D01*
X106673796Y-104025495D01*
X106675000Y-104049999D01*
X106675000Y-104950001D01*
X106673796Y-104974505D01*
X106670196Y-104998773D01*
X106664235Y-105022572D01*
X106655970Y-105045671D01*
X106645480Y-105067850D01*
X106632868Y-105088893D01*
X106618253Y-105108599D01*
X106601777Y-105126777D01*
X106583599Y-105143253D01*
X106563893Y-105157868D01*
X106542850Y-105170480D01*
X106520671Y-105180970D01*
X106497572Y-105189235D01*
X106473773Y-105195196D01*
X106449505Y-105198796D01*
X106425001Y-105200000D01*
X105774999Y-105200000D01*
X105750495Y-105198796D01*
X105726227Y-105195196D01*
X105702428Y-105189235D01*
X105679329Y-105180970D01*
X105657150Y-105170480D01*
X105636107Y-105157868D01*
X105616401Y-105143253D01*
X105598223Y-105126777D01*
X105581747Y-105108599D01*
X105567132Y-105088893D01*
X105554520Y-105067850D01*
X105544030Y-105045671D01*
X105535765Y-105022572D01*
X105529804Y-104998773D01*
X105526204Y-104974505D01*
X105525000Y-104950001D01*
X105525000Y-104049999D01*
X105526204Y-104025495D01*
X105529804Y-104001227D01*
X105535765Y-103977428D01*
X105544030Y-103954329D01*
X105554520Y-103932150D01*
X105567132Y-103911107D01*
X105581747Y-103891401D01*
X105598223Y-103873223D01*
X105616401Y-103856747D01*
X105636107Y-103842132D01*
X105657150Y-103829520D01*
X105679329Y-103819030D01*
X105702428Y-103810765D01*
X105726227Y-103804804D01*
X105750495Y-103801204D01*
X105774999Y-103800000D01*
X106425001Y-103800000D01*
X106449505Y-103801204D01*
X106449505Y-103801204D01*
G37*
D11*
X106100000Y-104500000D03*
D10*
G36*
X106424505Y-96801204D02*
G01*
X106448773Y-96804804D01*
X106472572Y-96810765D01*
X106495671Y-96819030D01*
X106517850Y-96829520D01*
X106538893Y-96842132D01*
X106558599Y-96856747D01*
X106576777Y-96873223D01*
X106593253Y-96891401D01*
X106607868Y-96911107D01*
X106620480Y-96932150D01*
X106630970Y-96954329D01*
X106639235Y-96977428D01*
X106645196Y-97001227D01*
X106648796Y-97025495D01*
X106650000Y-97049999D01*
X106650000Y-97950001D01*
X106648796Y-97974505D01*
X106645196Y-97998773D01*
X106639235Y-98022572D01*
X106630970Y-98045671D01*
X106620480Y-98067850D01*
X106607868Y-98088893D01*
X106593253Y-98108599D01*
X106576777Y-98126777D01*
X106558599Y-98143253D01*
X106538893Y-98157868D01*
X106517850Y-98170480D01*
X106495671Y-98180970D01*
X106472572Y-98189235D01*
X106448773Y-98195196D01*
X106424505Y-98198796D01*
X106400001Y-98200000D01*
X105749999Y-98200000D01*
X105725495Y-98198796D01*
X105701227Y-98195196D01*
X105677428Y-98189235D01*
X105654329Y-98180970D01*
X105632150Y-98170480D01*
X105611107Y-98157868D01*
X105591401Y-98143253D01*
X105573223Y-98126777D01*
X105556747Y-98108599D01*
X105542132Y-98088893D01*
X105529520Y-98067850D01*
X105519030Y-98045671D01*
X105510765Y-98022572D01*
X105504804Y-97998773D01*
X105501204Y-97974505D01*
X105500000Y-97950001D01*
X105500000Y-97049999D01*
X105501204Y-97025495D01*
X105504804Y-97001227D01*
X105510765Y-96977428D01*
X105519030Y-96954329D01*
X105529520Y-96932150D01*
X105542132Y-96911107D01*
X105556747Y-96891401D01*
X105573223Y-96873223D01*
X105591401Y-96856747D01*
X105611107Y-96842132D01*
X105632150Y-96829520D01*
X105654329Y-96819030D01*
X105677428Y-96810765D01*
X105701227Y-96804804D01*
X105725495Y-96801204D01*
X105749999Y-96800000D01*
X106400001Y-96800000D01*
X106424505Y-96801204D01*
X106424505Y-96801204D01*
G37*
D11*
X106075000Y-97500000D03*
D10*
G36*
X104374505Y-96801204D02*
G01*
X104398773Y-96804804D01*
X104422572Y-96810765D01*
X104445671Y-96819030D01*
X104467850Y-96829520D01*
X104488893Y-96842132D01*
X104508599Y-96856747D01*
X104526777Y-96873223D01*
X104543253Y-96891401D01*
X104557868Y-96911107D01*
X104570480Y-96932150D01*
X104580970Y-96954329D01*
X104589235Y-96977428D01*
X104595196Y-97001227D01*
X104598796Y-97025495D01*
X104600000Y-97049999D01*
X104600000Y-97950001D01*
X104598796Y-97974505D01*
X104595196Y-97998773D01*
X104589235Y-98022572D01*
X104580970Y-98045671D01*
X104570480Y-98067850D01*
X104557868Y-98088893D01*
X104543253Y-98108599D01*
X104526777Y-98126777D01*
X104508599Y-98143253D01*
X104488893Y-98157868D01*
X104467850Y-98170480D01*
X104445671Y-98180970D01*
X104422572Y-98189235D01*
X104398773Y-98195196D01*
X104374505Y-98198796D01*
X104350001Y-98200000D01*
X103699999Y-98200000D01*
X103675495Y-98198796D01*
X103651227Y-98195196D01*
X103627428Y-98189235D01*
X103604329Y-98180970D01*
X103582150Y-98170480D01*
X103561107Y-98157868D01*
X103541401Y-98143253D01*
X103523223Y-98126777D01*
X103506747Y-98108599D01*
X103492132Y-98088893D01*
X103479520Y-98067850D01*
X103469030Y-98045671D01*
X103460765Y-98022572D01*
X103454804Y-97998773D01*
X103451204Y-97974505D01*
X103450000Y-97950001D01*
X103450000Y-97049999D01*
X103451204Y-97025495D01*
X103454804Y-97001227D01*
X103460765Y-96977428D01*
X103469030Y-96954329D01*
X103479520Y-96932150D01*
X103492132Y-96911107D01*
X103506747Y-96891401D01*
X103523223Y-96873223D01*
X103541401Y-96856747D01*
X103561107Y-96842132D01*
X103582150Y-96829520D01*
X103604329Y-96819030D01*
X103627428Y-96810765D01*
X103651227Y-96804804D01*
X103675495Y-96801204D01*
X103699999Y-96800000D01*
X104350001Y-96800000D01*
X104374505Y-96801204D01*
X104374505Y-96801204D01*
G37*
D11*
X104025000Y-97500000D03*
D10*
G36*
X91024505Y-116426204D02*
G01*
X91048773Y-116429804D01*
X91072572Y-116435765D01*
X91095671Y-116444030D01*
X91117850Y-116454520D01*
X91138893Y-116467132D01*
X91158599Y-116481747D01*
X91176777Y-116498223D01*
X91193253Y-116516401D01*
X91207868Y-116536107D01*
X91220480Y-116557150D01*
X91230970Y-116579329D01*
X91239235Y-116602428D01*
X91245196Y-116626227D01*
X91248796Y-116650495D01*
X91250000Y-116674999D01*
X91250000Y-117325001D01*
X91248796Y-117349505D01*
X91245196Y-117373773D01*
X91239235Y-117397572D01*
X91230970Y-117420671D01*
X91220480Y-117442850D01*
X91207868Y-117463893D01*
X91193253Y-117483599D01*
X91176777Y-117501777D01*
X91158599Y-117518253D01*
X91138893Y-117532868D01*
X91117850Y-117545480D01*
X91095671Y-117555970D01*
X91072572Y-117564235D01*
X91048773Y-117570196D01*
X91024505Y-117573796D01*
X91000001Y-117575000D01*
X90099999Y-117575000D01*
X90075495Y-117573796D01*
X90051227Y-117570196D01*
X90027428Y-117564235D01*
X90004329Y-117555970D01*
X89982150Y-117545480D01*
X89961107Y-117532868D01*
X89941401Y-117518253D01*
X89923223Y-117501777D01*
X89906747Y-117483599D01*
X89892132Y-117463893D01*
X89879520Y-117442850D01*
X89869030Y-117420671D01*
X89860765Y-117397572D01*
X89854804Y-117373773D01*
X89851204Y-117349505D01*
X89850000Y-117325001D01*
X89850000Y-116674999D01*
X89851204Y-116650495D01*
X89854804Y-116626227D01*
X89860765Y-116602428D01*
X89869030Y-116579329D01*
X89879520Y-116557150D01*
X89892132Y-116536107D01*
X89906747Y-116516401D01*
X89923223Y-116498223D01*
X89941401Y-116481747D01*
X89961107Y-116467132D01*
X89982150Y-116454520D01*
X90004329Y-116444030D01*
X90027428Y-116435765D01*
X90051227Y-116429804D01*
X90075495Y-116426204D01*
X90099999Y-116425000D01*
X91000001Y-116425000D01*
X91024505Y-116426204D01*
X91024505Y-116426204D01*
G37*
D11*
X90550000Y-117000000D03*
D10*
G36*
X91024505Y-118476204D02*
G01*
X91048773Y-118479804D01*
X91072572Y-118485765D01*
X91095671Y-118494030D01*
X91117850Y-118504520D01*
X91138893Y-118517132D01*
X91158599Y-118531747D01*
X91176777Y-118548223D01*
X91193253Y-118566401D01*
X91207868Y-118586107D01*
X91220480Y-118607150D01*
X91230970Y-118629329D01*
X91239235Y-118652428D01*
X91245196Y-118676227D01*
X91248796Y-118700495D01*
X91250000Y-118724999D01*
X91250000Y-119375001D01*
X91248796Y-119399505D01*
X91245196Y-119423773D01*
X91239235Y-119447572D01*
X91230970Y-119470671D01*
X91220480Y-119492850D01*
X91207868Y-119513893D01*
X91193253Y-119533599D01*
X91176777Y-119551777D01*
X91158599Y-119568253D01*
X91138893Y-119582868D01*
X91117850Y-119595480D01*
X91095671Y-119605970D01*
X91072572Y-119614235D01*
X91048773Y-119620196D01*
X91024505Y-119623796D01*
X91000001Y-119625000D01*
X90099999Y-119625000D01*
X90075495Y-119623796D01*
X90051227Y-119620196D01*
X90027428Y-119614235D01*
X90004329Y-119605970D01*
X89982150Y-119595480D01*
X89961107Y-119582868D01*
X89941401Y-119568253D01*
X89923223Y-119551777D01*
X89906747Y-119533599D01*
X89892132Y-119513893D01*
X89879520Y-119492850D01*
X89869030Y-119470671D01*
X89860765Y-119447572D01*
X89854804Y-119423773D01*
X89851204Y-119399505D01*
X89850000Y-119375001D01*
X89850000Y-118724999D01*
X89851204Y-118700495D01*
X89854804Y-118676227D01*
X89860765Y-118652428D01*
X89869030Y-118629329D01*
X89879520Y-118607150D01*
X89892132Y-118586107D01*
X89906747Y-118566401D01*
X89923223Y-118548223D01*
X89941401Y-118531747D01*
X89961107Y-118517132D01*
X89982150Y-118504520D01*
X90004329Y-118494030D01*
X90027428Y-118485765D01*
X90051227Y-118479804D01*
X90075495Y-118476204D01*
X90099999Y-118475000D01*
X91000001Y-118475000D01*
X91024505Y-118476204D01*
X91024505Y-118476204D01*
G37*
D11*
X90550000Y-119050000D03*
D10*
G36*
X85899505Y-119301204D02*
G01*
X85923773Y-119304804D01*
X85947572Y-119310765D01*
X85970671Y-119319030D01*
X85992850Y-119329520D01*
X86013893Y-119342132D01*
X86033599Y-119356747D01*
X86051777Y-119373223D01*
X86068253Y-119391401D01*
X86082868Y-119411107D01*
X86095480Y-119432150D01*
X86105970Y-119454329D01*
X86114235Y-119477428D01*
X86120196Y-119501227D01*
X86123796Y-119525495D01*
X86125000Y-119549999D01*
X86125000Y-120450001D01*
X86123796Y-120474505D01*
X86120196Y-120498773D01*
X86114235Y-120522572D01*
X86105970Y-120545671D01*
X86095480Y-120567850D01*
X86082868Y-120588893D01*
X86068253Y-120608599D01*
X86051777Y-120626777D01*
X86033599Y-120643253D01*
X86013893Y-120657868D01*
X85992850Y-120670480D01*
X85970671Y-120680970D01*
X85947572Y-120689235D01*
X85923773Y-120695196D01*
X85899505Y-120698796D01*
X85875001Y-120700000D01*
X85224999Y-120700000D01*
X85200495Y-120698796D01*
X85176227Y-120695196D01*
X85152428Y-120689235D01*
X85129329Y-120680970D01*
X85107150Y-120670480D01*
X85086107Y-120657868D01*
X85066401Y-120643253D01*
X85048223Y-120626777D01*
X85031747Y-120608599D01*
X85017132Y-120588893D01*
X85004520Y-120567850D01*
X84994030Y-120545671D01*
X84985765Y-120522572D01*
X84979804Y-120498773D01*
X84976204Y-120474505D01*
X84975000Y-120450001D01*
X84975000Y-119549999D01*
X84976204Y-119525495D01*
X84979804Y-119501227D01*
X84985765Y-119477428D01*
X84994030Y-119454329D01*
X85004520Y-119432150D01*
X85017132Y-119411107D01*
X85031747Y-119391401D01*
X85048223Y-119373223D01*
X85066401Y-119356747D01*
X85086107Y-119342132D01*
X85107150Y-119329520D01*
X85129329Y-119319030D01*
X85152428Y-119310765D01*
X85176227Y-119304804D01*
X85200495Y-119301204D01*
X85224999Y-119300000D01*
X85875001Y-119300000D01*
X85899505Y-119301204D01*
X85899505Y-119301204D01*
G37*
D11*
X85550000Y-120000000D03*
D10*
G36*
X87949505Y-119301204D02*
G01*
X87973773Y-119304804D01*
X87997572Y-119310765D01*
X88020671Y-119319030D01*
X88042850Y-119329520D01*
X88063893Y-119342132D01*
X88083599Y-119356747D01*
X88101777Y-119373223D01*
X88118253Y-119391401D01*
X88132868Y-119411107D01*
X88145480Y-119432150D01*
X88155970Y-119454329D01*
X88164235Y-119477428D01*
X88170196Y-119501227D01*
X88173796Y-119525495D01*
X88175000Y-119549999D01*
X88175000Y-120450001D01*
X88173796Y-120474505D01*
X88170196Y-120498773D01*
X88164235Y-120522572D01*
X88155970Y-120545671D01*
X88145480Y-120567850D01*
X88132868Y-120588893D01*
X88118253Y-120608599D01*
X88101777Y-120626777D01*
X88083599Y-120643253D01*
X88063893Y-120657868D01*
X88042850Y-120670480D01*
X88020671Y-120680970D01*
X87997572Y-120689235D01*
X87973773Y-120695196D01*
X87949505Y-120698796D01*
X87925001Y-120700000D01*
X87274999Y-120700000D01*
X87250495Y-120698796D01*
X87226227Y-120695196D01*
X87202428Y-120689235D01*
X87179329Y-120680970D01*
X87157150Y-120670480D01*
X87136107Y-120657868D01*
X87116401Y-120643253D01*
X87098223Y-120626777D01*
X87081747Y-120608599D01*
X87067132Y-120588893D01*
X87054520Y-120567850D01*
X87044030Y-120545671D01*
X87035765Y-120522572D01*
X87029804Y-120498773D01*
X87026204Y-120474505D01*
X87025000Y-120450001D01*
X87025000Y-119549999D01*
X87026204Y-119525495D01*
X87029804Y-119501227D01*
X87035765Y-119477428D01*
X87044030Y-119454329D01*
X87054520Y-119432150D01*
X87067132Y-119411107D01*
X87081747Y-119391401D01*
X87098223Y-119373223D01*
X87116401Y-119356747D01*
X87136107Y-119342132D01*
X87157150Y-119329520D01*
X87179329Y-119319030D01*
X87202428Y-119310765D01*
X87226227Y-119304804D01*
X87250495Y-119301204D01*
X87274999Y-119300000D01*
X87925001Y-119300000D01*
X87949505Y-119301204D01*
X87949505Y-119301204D01*
G37*
D11*
X87600000Y-120000000D03*
M02*
